<svg width="116" height="120" viewBox="0 0 116 120" fill="none" xmlns="http://www.w3.org/2000/svg">
<path d="M3.61479 26.1218L50.2712 26.1218V24.075L3.61479 24.075V26.1218Z" fill="#EBEBEB"/>
<path d="M47.6532 26.1246H45.6064V32.8922H47.6532V26.1246Z" fill="#EBEBEB"/>
<path d="M47.6532 26.1246H45.6064V28.2162H47.6532V26.1246Z" fill="#DBDBDB"/>
<path d="M8.274 26.1246H6.2272V32.8922H8.274V26.1246Z" fill="#EBEBEB"/>
<path d="M8.274 26.1246H6.2272V28.2162H8.274V26.1246Z" fill="#DBDBDB"/>
<path d="M41.5604 24.0778V11.0382H38.276V24.0778H41.5604Z" fill="#C7C7C7"/>
<path d="M41.5604 11.7746V10.341H38.276V11.7746H41.5604Z" fill="#DBDBDB"/>
<path d="M41.5604 14.1406V13.6086H38.276V14.1406H41.5604Z" fill="#DBDBDB"/>
<path d="M41.5604 22.367V20.9334H37.8672V22.367H41.5604Z" fill="#DBDBDB"/>
<path d="M38.276 24.0778V8.86542H35.98V24.0778H38.276Z" fill="#DBDBDB"/>
<path d="M37.828 16.1454V10.2962H36.4504V16.1454H37.828Z" fill="#EBEBEB"/>
<path d="M21.27 24.0831L32.0885 13.3884L30.4744 11.7556L19.6558 22.4502L21.27 24.0831Z" fill="#C7C7C7"/>
<path d="M23.4792 21.2418L27.639 17.1297L26.6705 16.15L22.5107 20.2621L23.4792 21.2418Z" fill="#DBDBDB"/>
<path d="M35.9828 24.0778V12.525H32.0852V24.0778H35.9828Z" fill="#A6A6A6"/>
<path d="M35.9828 22.857V21.779H32.0852V22.857H35.9828Z" fill="#C7C7C7"/>
<path d="M35.9828 21.0706V20.6534H32.0852V21.0706H35.9828Z" fill="#C7C7C7"/>
<path d="M44.254 24.0806V13.2222H41.5632V24.0806H44.254Z" fill="#A6A6A6"/>
<path d="M44.254 22.927V21.9162H41.5632V22.927H44.254Z" fill="#C7C7C7"/>
<path d="M44.254 16.4702V15.4594H41.5632V16.4702H44.254Z" fill="#C7C7C7"/>
<path d="M44.2512 17.5566V17.1646H41.5604V17.5566H44.2512Z" fill="#C7C7C7"/>
<path d="M13.048 10.1674C15.344 12.4074 15.7304 15.8962 15.246 18.9426C15.246 19.0098 15.1256 18.993 15.1256 18.9258C15.1256 18.2342 15.148 17.5454 15.1452 16.8622C15.1452 16.8286 15.1228 16.8006 15.1088 16.7698C14.4901 16.3622 13.9783 15.8119 13.6164 15.1654C13.2328 14.4122 13.0816 13.561 12.7904 12.7714C12.7624 12.6958 12.8436 12.7182 12.894 12.7574C14.294 13.7878 14.7364 14.8966 15.134 16.3778C15.1248 15.6028 15.0433 14.8304 14.8904 14.0706C14.6238 12.6384 13.9646 11.3085 12.9864 10.229C12.9812 10.2204 12.9789 10.2103 12.9801 10.2003C12.9813 10.1903 12.9858 10.181 12.9929 10.1739C13 10.1668 13.0094 10.1623 13.0193 10.1611C13.0293 10.1599 13.0394 10.1621 13.048 10.1674Z" fill="#A6A6A6"/>
<path d="M12.6168 10.4306C12.2192 10.4306 11.9728 11.0746 11.6648 11.2706C11.6324 11.2969 11.5948 11.3161 11.5545 11.3269C11.5141 11.3377 11.472 11.3398 11.4307 11.3332C11.3895 11.3266 11.3502 11.3114 11.3152 11.2885C11.2803 11.2657 11.2506 11.2357 11.228 11.2006C10.9228 10.775 11.3428 10.2514 11.7348 9.95739C11.4752 10.1029 11.2012 10.2211 10.9172 10.3102C10.8784 10.3238 10.8371 10.3288 10.7962 10.3246C10.7553 10.3205 10.7158 10.3074 10.6805 10.2863C10.6452 10.2652 10.615 10.2366 10.592 10.2025C10.5691 10.1684 10.5539 10.1296 10.5476 10.089C10.4132 9.50939 11.1412 9.24899 11.6424 9.24899C11.3988 9.08099 10.7044 8.62459 11.0824 8.40899C11.4604 8.19339 12.2724 8.83739 12.5356 9.05299C12.9276 9.36939 13.3924 9.84539 13.412 10.341C13.426 10.9066 12.9192 10.551 12.6168 10.4306Z" fill="#DBDBDB"/>
<path d="M12.7288 10.5286C12.2248 10.2962 11.2532 10.6294 11.172 10.4362C11.004 10.047 11.7796 9.78099 12.1996 9.72779C11.8132 9.62419 11.0796 9.44779 11.0964 9.08659C11.1244 8.63299 12.2304 9.02219 12.7904 9.45059C13.4932 9.99099 13.4904 10.5146 13.3728 10.6182C13.2132 10.761 12.8128 10.565 12.7288 10.5286Z" fill="#EBEBEB"/>
<path d="M18.2784 9.9462C15.8984 12.105 15.3804 15.5658 15.7584 18.6262C15.7584 18.6962 15.876 18.6822 15.8788 18.6262C15.904 17.9346 15.9096 17.2458 15.9376 16.5626L15.9768 16.4702C16.6106 16.0884 17.1428 15.5591 17.528 14.9274C17.9424 14.1882 18.1244 13.3426 18.4464 12.567C18.4772 12.4914 18.396 12.511 18.3428 12.5474C16.9064 13.5246 16.4192 14.6166 15.9628 16.081C16.001 15.307 16.1116 14.5383 16.2932 13.785C16.6155 12.3625 17.3271 11.0576 18.3484 10.0162C18.3577 10.0069 18.3629 9.99433 18.3629 9.9812C18.3629 9.96807 18.3577 9.95548 18.3484 9.9462C18.3391 9.93692 18.3265 9.9317 18.3134 9.9317C18.3003 9.9317 18.2877 9.93692 18.2784 9.9462Z" fill="#A6A6A6"/>
<path d="M18.6984 10.2234C19.0932 10.2514 19.3172 10.8926 19.6168 11.0886C19.6482 11.1162 19.6851 11.1369 19.725 11.1493C19.7649 11.1617 19.807 11.1655 19.8485 11.1604C19.89 11.1554 19.93 11.1417 19.9658 11.1201C20.0016 11.0986 20.0325 11.0697 20.0564 11.0354C20.3784 10.621 19.978 10.0806 19.5972 9.77261C19.8505 9.93586 20.1197 10.0728 20.4008 10.1814C20.4391 10.1966 20.4802 10.2031 20.5213 10.2005C20.5624 10.198 20.6024 10.1864 20.6385 10.1666C20.6746 10.1468 20.7059 10.1193 20.7301 10.0861C20.7544 10.0528 20.771 10.0146 20.7788 9.97421C20.9328 9.39741 20.2188 9.11181 19.7176 9.08101C19.964 8.92141 20.6752 8.49021 20.3168 8.24101C19.9584 7.99181 19.1184 8.63021 18.8384 8.84021C18.4352 9.14261 17.9536 9.59901 17.9172 10.0918C17.8724 10.6686 18.3904 10.3326 18.6984 10.2234Z" fill="#DBDBDB"/>
<path d="M18.5808 10.3102C19.096 10.1002 20.0508 10.467 20.1404 10.2794C20.3224 9.89862 19.558 9.60182 19.1436 9.53462C19.5328 9.44502 20.2636 9.30502 20.2636 8.93262C20.2636 8.47902 19.1436 8.82622 18.5584 9.23502C17.836 9.74742 17.8192 10.2682 17.9312 10.3774C18.088 10.5314 18.4968 10.3522 18.5808 10.3102Z" fill="#EBEBEB"/>
<path d="M15.8424 15.6498C15.683 16.8046 15.4359 17.9457 15.1032 19.063C15.0987 19.0849 15.0858 19.1041 15.0671 19.1165C15.0485 19.1288 15.0257 19.1332 15.0038 19.1288C14.9819 19.1243 14.9626 19.1114 14.9503 19.0927C14.938 19.0741 14.9335 19.0513 14.938 19.0294C15.0948 17.9766 15.3804 16.9434 15.5344 15.8934C15.7064 14.8283 15.7683 13.7483 15.7192 12.6706C15.6184 10.8982 15.1368 9.01099 13.9804 7.63059C13.9552 7.59699 14.0084 7.54939 14.0336 7.58019C16.352 10.2822 15.9936 13.5946 15.9936 13.8914C16.3212 12.7714 16.66 11.4918 17.9004 10.3522C17.9536 10.3018 17.9956 10.327 17.9872 10.411C17.766 12.483 17.1892 13.5666 15.9852 14.6754C15.9376 14.9974 15.8956 15.325 15.8424 15.6498Z" fill="#A6A6A6"/>
<path d="M13.958 7.93581C13.5408 7.75101 12.9668 8.28021 12.558 8.31661C12.5121 8.32761 12.4644 8.32898 12.4179 8.32062C12.3715 8.31226 12.3272 8.29436 12.288 8.26805C12.2488 8.24174 12.2155 8.20759 12.1902 8.16776C12.1648 8.12792 12.148 8.08326 12.1408 8.03661C12.0372 7.44301 12.7372 7.10701 13.2916 7.00061C12.9416 6.97821 12.5972 7.07341 12.2528 6.98101C12.2054 6.97549 12.1597 6.95975 12.1189 6.93488C12.0781 6.91001 12.0433 6.8766 12.0166 6.83694C11.99 6.79729 11.9723 6.75234 11.9648 6.70518C11.9572 6.65803 11.9599 6.6098 11.9728 6.56381C12.1268 5.89461 13.0116 6.00381 13.538 6.23061C13.37 5.95061 12.88 5.11061 13.3756 5.06301C13.8712 5.01541 14.3948 6.10461 14.56 6.46301C14.8064 6.98941 15.0528 7.71461 14.8204 8.23821C14.56 8.83741 14.2128 8.21301 13.958 7.93581Z" fill="#DBDBDB"/>
<path d="M14.028 8.09259C13.6192 7.60259 12.446 7.45699 12.4572 7.21619C12.4796 6.72899 13.4176 6.84099 13.8796 6.99779C13.5324 6.69539 12.8492 6.15779 13.0592 5.77699C13.3168 5.32059 14.266 6.28099 14.6328 7.00899C15.092 7.92459 14.8232 8.46219 14.6496 8.51259C14.4116 8.57979 14.0952 8.17659 14.028 8.09259Z" fill="#EBEBEB"/>
<path d="M17.3684 16.2714L18.3904 24.0778H12.1716C12.3004 23.3862 13.4568 16.263 13.4568 16.263L17.3684 16.2714Z" fill="#DBDBDB"/>
<path d="M91.5292 18.2706C91.6987 17.5524 92.0068 16.8742 92.4364 16.2742C92.8452 15.7142 93.5041 15.3073 94.4132 15.0534C94.6932 14.9694 95.0208 14.8798 95.4156 14.7734C95.8219 14.6747 96.219 14.5417 96.6028 14.3758C96.9933 14.2091 97.3538 13.9792 97.6696 13.6954C97.9897 13.4064 98.2135 13.0263 98.3108 12.6062C98.3944 12.3041 98.405 11.9864 98.3416 11.6794C98.2827 11.4035 98.1684 11.1425 98.0056 10.9122C97.8373 10.6799 97.624 10.4837 97.3784 10.3354C97.1272 10.1798 96.8532 10.0646 96.5664 9.99379C96.2372 9.90919 95.8941 9.89299 95.5584 9.94619C95.2532 9.99156 94.9555 10.0782 94.6736 10.2038C94.3988 10.327 94.1394 10.482 93.9008 10.6658C93.6807 10.8328 93.4704 11.0123 93.2708 11.2034L91.5628 9.24339C91.8808 8.81381 92.2689 8.44086 92.7108 8.14019C93.1411 7.84791 93.6131 7.6223 94.1108 7.47099C94.618 7.31932 95.1439 7.23922 95.6732 7.23299C96.2198 7.22517 96.765 7.29014 97.2944 7.42619C97.8977 7.57847 98.4757 7.81707 99.0108 8.13459C99.5455 8.44988 100.012 8.86872 100.383 9.36659C100.765 9.88653 101.029 10.4838 101.156 11.1166C101.298 11.8605 101.265 12.6274 101.06 13.3566C100.954 13.8128 100.78 14.2506 100.545 14.6558C100.336 15.0047 100.074 15.3184 99.7668 15.5854C99.4629 15.8463 99.127 16.0674 98.7672 16.2434C98.3768 16.4315 97.9735 16.5915 97.5604 16.7222C97.1936 16.8342 96.8324 16.935 96.4712 17.0302C96.1229 17.1201 95.7836 17.242 95.4576 17.3942C95.1459 17.5356 94.8615 17.7308 94.6176 17.971C94.367 18.235 94.1928 18.5621 94.1136 18.9174L91.5292 18.2706ZM90.1824 23.823L91.0084 20.5414L93.6488 21.205L92.8228 24.4866L90.1824 23.823Z" fill="#EBEBEB"/>
<path d="M8.2208 79.1286C8.34098 79.659 8.35619 80.2079 8.2656 80.7442C8.13195 81.3147 7.8129 81.8248 7.3584 82.1946C7.2016 82.3374 7.0084 82.5054 6.7788 82.6958C6.5411 82.8919 6.32093 83.1083 6.1208 83.3426C5.91448 83.5786 5.74889 83.8474 5.6308 84.1378C5.51231 84.433 5.4869 84.7574 5.558 85.0674C5.6016 85.2953 5.69744 85.51 5.838 85.6946C5.96654 85.8581 6.12648 85.9942 6.3084 86.095C6.49545 86.193 6.70006 86.2529 6.9104 86.2714C7.12737 86.294 7.34653 86.2827 7.56 86.2378C7.80319 86.1907 8.03452 86.0955 8.2404 85.9578C8.42871 85.8297 8.59833 85.6761 8.7444 85.5014C8.88665 85.3292 9.00878 85.1413 9.1084 84.9414C9.20142 84.7601 9.28279 84.5731 9.352 84.3814L11.116 85.1206C11.0424 85.5086 10.9043 85.8815 10.7072 86.2238C10.5157 86.5583 10.2739 86.8614 9.9904 87.1226C9.70379 87.3887 9.38033 87.6122 9.03 87.7862C8.67003 87.9671 8.28782 88.0998 7.8932 88.181C7.4443 88.2756 6.98407 88.3049 6.5268 88.2678C6.07055 88.2316 5.62605 88.105 5.2192 87.8954C4.79711 87.6729 4.42835 87.3615 4.1384 86.9826C3.80512 86.5352 3.57991 86.0167 3.4804 85.4678C3.40262 85.1312 3.37619 84.7847 3.402 84.4402C3.4269 84.1412 3.49969 83.8481 3.6176 83.5722C3.73335 83.3003 3.88496 83.0451 4.0684 82.8134C4.26509 82.5606 4.48035 82.3229 4.7124 82.1022C4.9196 81.9118 5.1268 81.727 5.3368 81.5422C5.53981 81.3726 5.72722 81.1852 5.8968 80.9822C6.04801 80.7864 6.16364 80.5656 6.2384 80.3298C6.32014 80.0732 6.32983 79.7991 6.2664 79.5374L8.2208 79.1286ZM7.3192 75.0098L7.8316 77.4542L5.8716 77.8658L5.3592 75.4242L7.3192 75.0098Z" fill="#EBEBEB"/>
<path d="M96.3984 54.1442C96.7281 54.5769 96.9706 55.0695 97.1124 55.5946C97.2252 56.1712 97.1434 56.769 96.88 57.2942C96.7988 57.4902 96.6924 57.7226 96.5636 57.9914C96.4276 58.2683 96.317 58.5569 96.2332 58.8538C96.1437 59.1542 96.1049 59.4674 96.1184 59.7806C96.1345 60.0981 96.2457 60.4035 96.4376 60.657C96.5714 60.8458 96.7479 61.0003 96.9528 61.1078C97.1382 61.2036 97.3411 61.2608 97.5492 61.2758C97.7601 61.2894 97.9716 61.2598 98.1708 61.189C98.3762 61.1176 98.5697 61.0157 98.7448 60.8866C98.9468 60.7435 99.1174 60.5605 99.246 60.349C99.3687 60.1543 99.463 59.9431 99.526 59.7218C99.5825 59.5067 99.6153 59.286 99.624 59.0638C99.6356 58.8614 99.6356 58.6586 99.624 58.4562L101.534 58.3946C101.63 58.7768 101.66 59.1726 101.623 59.565C101.587 59.9503 101.492 60.3279 101.343 60.685C101.191 61.0456 100.99 61.383 100.744 61.6874C100.493 62.0042 100.201 62.2866 99.876 62.5274C99.5063 62.8005 99.0988 63.0184 98.6664 63.1742C98.2363 63.3305 97.7795 63.4 97.3224 63.3786C96.8469 63.3517 96.3828 63.2228 95.9616 63.0006C95.4724 62.7311 95.0519 62.3527 94.7324 61.8946C94.5219 61.6208 94.3539 61.3169 94.234 60.993C94.1317 60.7108 94.0759 60.4139 94.0688 60.1138C94.0605 59.8179 94.0916 59.5223 94.1612 59.2346C94.2373 58.9237 94.3356 58.6187 94.4552 58.3218C94.5644 58.0614 94.6736 57.8066 94.7912 57.5574C94.9081 57.3177 95.0018 57.0673 95.0712 56.8098C95.1344 56.5679 95.1553 56.3168 95.1328 56.0678C95.0997 55.8009 94.9942 55.5482 94.8276 55.337L96.3984 54.1442ZM93.8784 50.7842L95.3596 52.7918L93.744 53.9846L92.2628 51.977L93.8784 50.7842Z" fill="#EBEBEB"/>
<path d="M105.594 49.093C105.584 48.4943 105.692 47.8997 105.913 47.343C106.186 46.7585 106.648 46.2824 107.223 45.9906C107.422 45.8702 107.668 45.7358 107.96 45.5818C108.255 45.4245 108.536 45.2418 108.8 45.0358C109.076 44.8296 109.314 44.5777 109.505 44.291C109.697 43.9987 109.795 43.6548 109.785 43.3054C109.79 43.0639 109.741 42.8244 109.641 42.6044C109.541 42.3844 109.393 42.1896 109.208 42.0342C109.031 41.885 108.825 41.7736 108.604 41.7066C108.375 41.6345 108.137 41.5976 107.898 41.5974C107.626 41.5942 107.356 41.6446 107.103 41.7458C106.871 41.8427 106.654 41.9698 106.456 42.1238C106.264 42.2756 106.09 42.4494 105.938 42.6418C105.798 42.8159 105.669 42.9982 105.552 43.1878L103.821 41.995C103.987 41.5944 104.219 41.2244 104.507 40.9002C104.79 40.5854 105.119 40.3146 105.482 40.0966C105.851 39.8762 106.25 39.7085 106.666 39.5982C107.094 39.4856 107.534 39.4291 107.976 39.4302C108.482 39.4303 108.985 39.5039 109.469 39.6486C109.951 39.7905 110.401 40.0276 110.79 40.3458C111.193 40.6795 111.518 41.0958 111.745 41.5666C112.01 42.1234 112.143 42.7337 112.134 43.3502C112.14 43.7288 112.09 44.1061 111.986 44.4702C111.89 44.7854 111.745 45.0839 111.558 45.355C111.372 45.6208 111.151 45.8609 110.902 46.069C110.632 46.2946 110.346 46.5005 110.046 46.685C109.782 46.8446 109.516 46.9986 109.25 47.1442C108.994 47.2843 108.752 47.4474 108.525 47.6314C108.312 47.8036 108.131 48.0121 107.99 48.2474C107.845 48.5029 107.772 48.7934 107.78 49.0874L105.594 49.093ZM105.633 53.7242V50.9802H107.839V53.7242H105.633Z" fill="#EBEBEB"/>
<path d="M36.568 64.9998C36.4349 64.4162 36.4178 63.8121 36.5176 63.2218C36.6644 62.5937 37.0173 62.0328 37.52 61.6286C37.6908 61.469 37.9008 61.287 38.1556 61.0686C38.4148 60.851 38.6564 60.6132 38.878 60.3574C39.1026 60.0962 39.2833 59.8002 39.4128 59.481C39.543 59.1564 39.5703 58.7997 39.4912 58.459C39.4435 58.2086 39.3381 57.9727 39.1832 57.7702C39.0395 57.5967 38.8624 57.4539 38.6624 57.3502C38.4577 57.2408 38.2329 57.1741 38.0016 57.1542C37.7639 57.1321 37.5242 57.1453 37.2904 57.1934C37.0233 57.2473 36.7694 57.3529 36.5428 57.5042C36.3344 57.6464 36.1461 57.8159 35.9828 58.0082C35.8275 58.197 35.6942 58.4027 35.5852 58.6214C35.4792 58.8208 35.3857 59.0265 35.3052 59.2374L33.3984 58.4198C33.4781 57.9937 33.6286 57.5839 33.8436 57.2074C34.0537 56.8396 34.3191 56.5062 34.6304 56.219C34.9446 55.9256 35.2991 55.6786 35.6832 55.4854C36.0793 55.2876 36.499 55.1409 36.932 55.0486C37.4261 54.9454 37.9324 54.9134 38.4356 54.9534C38.9365 54.9925 39.4247 55.1305 39.872 55.3594C40.336 55.6018 40.7413 55.943 41.0592 56.359C41.6423 57.1722 41.9307 58.1599 41.8768 59.159C41.8486 59.4867 41.7693 59.8079 41.6416 60.111C41.5149 60.4114 41.3492 60.6939 41.1488 60.951C40.9306 61.2272 40.694 61.4882 40.4404 61.7322C40.2136 61.9422 39.9868 62.1466 39.7572 62.3426C39.5356 62.5332 39.3313 62.7431 39.1468 62.9698C38.975 63.1837 38.8405 63.4251 38.7492 63.6838C38.6618 63.9663 38.6522 64.2671 38.7212 64.5546L36.568 64.9998ZM37.5676 69.5218L37.0076 66.8394L39.1664 66.3802L39.7264 69.0654L37.5676 69.5218Z" fill="#EBEBEB"/>
<path d="M103.9 86.7194L107.64 86.641L109.483 86.6102C110.096 86.5962 110.704 86.6102 111.314 86.5934L111.191 86.7194L111.174 83.5862L111.314 83.7262L107.598 83.7094C106.364 83.7094 105.129 83.6758 103.891 83.6618L103.97 83.5862C103.97 84.0986 103.944 84.6138 103.93 85.1374L103.9 86.7194ZM103.9 86.7194L103.86 85.1682C103.86 84.6474 103.83 84.1182 103.824 83.5862V83.5106H103.9C105.137 83.4966 106.372 83.4658 107.607 83.463L111.314 83.4462H111.454V83.5862V86.7194V86.8454H111.328C110.704 86.8454 110.076 86.8454 109.455 86.8286L107.59 86.7978L103.9 86.7194Z" fill="#EBEBEB"/>
<path d="M108.035 90.6702L111.776 90.5918L113.618 90.561C114.232 90.547 114.839 90.561 115.45 90.5442L115.326 90.6702L115.312 87.537L115.45 87.677L111.742 87.6602C110.508 87.6602 109.273 87.6266 108.035 87.6126L108.114 87.537C108.114 88.0494 108.088 88.5646 108.077 89.0882L108.035 90.6702ZM108.035 90.6702L107.996 89.119C107.996 88.5982 107.965 88.069 107.96 87.537V87.4614H108.035C109.273 87.4474 110.508 87.4166 111.742 87.4138L115.45 87.397H115.592V87.537L115.576 90.6702V90.7962H115.438C114.814 90.7962 114.19 90.7962 113.565 90.7794L111.7 90.7486L108.035 90.6702Z" fill="#EBEBEB"/>
<path d="M99.7584 90.6702L103.499 90.5918L105.342 90.561C105.952 90.547 106.562 90.561 107.173 90.5442L107.05 90.6702L107.038 87.537L107.178 87.677L103.471 87.6602C102.236 87.6602 100.999 87.6266 99.764 87.6126L99.8396 87.537C99.8396 88.0494 99.8172 88.5646 99.8032 89.0882L99.7584 90.6702ZM99.7584 90.6702L99.7192 89.119C99.7052 88.5982 99.6884 88.069 99.6828 87.537V87.4614H99.7584C100.993 87.4474 102.231 87.4166 103.466 87.4138L107.173 87.397H107.313V87.537L107.318 90.6702V90.7962H107.195C106.571 90.7962 105.944 90.7962 105.322 90.7794L103.457 90.7486L99.7584 90.6702Z" fill="#EBEBEB"/>
<path d="M4.2028 90.6702L7.94081 90.5918L9.78321 90.561C10.3964 90.547 11.0068 90.561 11.6172 90.5442L11.4912 90.6702L11.4772 87.537L11.6172 87.677L7.9184 87.6602C6.6808 87.6602 5.446 87.6266 4.2112 87.6126L4.2868 87.537C4.2868 88.0494 4.26161 88.5646 4.25041 89.0882L4.2028 90.6702ZM4.2028 90.6702L4.16081 89.119C4.16081 88.5982 4.13 88.069 4.1244 87.537V87.4614H4.2028C5.4376 87.4474 6.67241 87.4166 7.91001 87.4138L11.6172 87.397H11.7572V87.537L11.7404 90.6702V90.7962H11.6172C10.9928 90.7962 10.3656 90.7962 9.74121 90.7794L7.8764 90.7486L4.2028 90.6702Z" fill="#EBEBEB"/>
<path d="M4.2028 3.5258L7.94081 3.4474L9.78321 3.4138C10.3964 3.4138 11.0068 3.4138 11.6172 3.4138L11.4912 3.5398L11.4772 0.406602L11.6172 0.543801L7.9184 0.510202C6.6808 0.510202 5.446 0.479402 4.2112 0.465402L4.2868 0.389801C4.2868 0.902201 4.26161 1.4174 4.25041 1.9382L4.2028 3.5258ZM4.2028 3.5258L4.16081 1.9746C4.16081 1.451 4.13 0.921802 4.1244 0.392602V0.317002H4.2028C5.4376 0.317002 6.67241 0.272202 7.91001 0.272202L11.6172 0.255402H11.7572V0.398201L11.7404 3.5314V3.6546H11.6172C10.9928 3.6546 10.3656 3.6546 9.74121 3.6406L7.8764 3.5902L4.2028 3.5258Z" fill="#EBEBEB"/>
<path d="M0.0783997 7.47661L3.8164 7.39821L5.6588 7.36461C6.272 7.36461 6.8796 7.36461 7.4928 7.36461L7.3668 7.49061V4.35741L7.5068 4.49461L3.7744 4.46381C2.5368 4.46381 1.302 4.43021 0.0783997 4.43021L0.154 4.35461C0.154 4.86701 0.128799 5.38221 0.117599 5.90301L0.0783997 7.47661ZM0.0783997 7.47661L0.0363992 5.92541C0.0363992 5.40181 0.0056 4.87261 0 4.34341V4.26781H0.0783997C1.3132 4.26781 2.548 4.22301 3.7856 4.22301L7.4928 4.20621H7.6328V4.34901L7.616 7.48221V7.60541H7.4928C6.8656 7.60541 6.2412 7.60541 5.6168 7.60541L3.752 7.57181L0.0783997 7.47661Z" fill="#EBEBEB"/>
<path d="M108.035 3.5286L111.776 3.4502L113.618 3.4194C114.232 3.4194 114.839 3.4194 115.45 3.4026L115.326 3.5286L115.312 0.395402L115.45 0.535402L111.742 0.510202C110.508 0.510202 109.273 0.479402 108.035 0.465402L108.114 0.389801C108.114 0.902201 108.088 1.4174 108.077 1.9382L108.035 3.5286ZM108.035 3.5286L107.996 1.9774C107.996 1.4538 107.965 0.927402 107.96 0.395402V0.319801H108.035C109.273 0.305801 110.508 0.277802 111.742 0.275002L115.438 0.255402H115.581V0.395402L115.567 3.5286V3.6546H115.438C114.814 3.6546 114.19 3.6546 113.565 3.6546L111.7 3.6238L108.035 3.5286Z" fill="#EBEBEB"/>
<path d="M67.8972 44.1426L64.1592 44.221L62.3168 44.2518C61.7036 44.2658 61.0932 44.2518 60.4828 44.2686L60.6088 44.1426L60.6228 47.2758L60.4828 47.1358L64.19 47.1554C65.4276 47.1554 66.6624 47.1862 67.8972 47.2002L67.8216 47.2758C67.8216 46.7634 67.8468 46.2482 67.858 45.7274L67.8972 44.1426ZM67.8972 44.1426L67.9392 45.6938C67.9392 46.2174 67.97 46.7438 67.9756 47.2758V47.3514H67.8972C66.6624 47.3514 65.4276 47.3934 64.19 47.3962L60.4828 47.413H60.3428V47.2702L60.3596 44.137V44.011H60.4828C61.1072 44.011 61.7344 44.011 62.3588 44.025L64.2236 44.0558L67.8972 44.1426Z" fill="#EBEBEB"/>
<path d="M63.7616 40.1918L60.0236 40.2702L58.1812 40.301C57.568 40.301 56.9576 40.301 56.3472 40.3178L56.4732 40.1918L56.4872 43.325L56.3472 43.185L60.0544 43.2046C61.2892 43.2046 62.5268 43.2354 63.7616 43.2494L63.686 43.325C63.686 42.8126 63.7084 42.2974 63.7224 41.7766L63.7616 40.1918ZM63.7616 40.1918L63.8008 41.743C63.8148 42.2666 63.8344 42.793 63.8372 43.325V43.4006H63.7588C62.524 43.4146 61.2864 43.4426 60.0516 43.4454L56.3444 43.4622H56.2044V43.3222L56.2212 40.189V40.063H56.3584C56.9828 40.063 57.61 40.063 58.2344 40.077L60.0992 40.1078L63.7616 40.1918Z" fill="#EBEBEB"/>
<path d="M57.7585 119.286C85.6539 119.286 108.268 117.085 108.268 114.369C108.268 111.654 85.6539 109.453 57.7585 109.453C29.863 109.453 7.24927 111.654 7.24927 114.369C7.24927 117.085 29.863 119.286 57.7585 119.286Z" fill="#EBEBEB"/>
<path d="M107.318 74.0074C106.254 72.9658 104.88 71.7058 103.253 72.1566C101.724 72.5794 101.139 74.2482 100.864 75.6398C100.512 77.4346 100.237 79.2434 99.9517 81.0494C99.6661 82.8554 99.3917 84.6894 99.1313 86.5234C98.9819 87.5538 98.8363 88.5851 98.6945 89.6174C98.6217 90.1326 98.5498 90.6478 98.4789 91.163C98.4089 91.6698 98.3249 92.1766 98.2969 92.6862C98.2969 92.8486 98.5433 92.871 98.5769 92.717C98.7757 91.8574 98.8569 90.9614 98.9829 90.0906C99.1089 89.2198 99.2377 88.3322 99.3637 87.4558C99.6185 85.7114 99.8845 83.9698 100.145 82.2254C100.405 80.481 100.68 78.7422 100.96 77.0006C101.195 75.5222 101.307 73.6882 102.614 72.7138C102.97 72.471 103.381 72.3226 103.81 72.2824C104.238 72.2423 104.67 72.3117 105.064 72.4842C105.924 72.8146 106.613 73.4306 107.288 74.041C107.318 74.0606 107.346 74.0298 107.318 74.0074Z" fill="#263238"/>
<path d="M105.871 72.9434C105.871 72.9434 103.695 72.1622 102.623 73.747C101.55 75.3318 102.833 79.3694 112.731 81.6458C112.441 78.5521 111.637 75.5284 110.351 72.6998C108.228 68.0714 104.446 69.8242 105.871 72.9434Z" fill="#FFC727"/>
<path d="M112.162 80.985C112.013 80.708 111.847 80.4406 111.664 80.1842C111.499 79.9294 111.331 79.6746 111.163 79.4226C111.037 79.2322 110.905 79.0418 110.776 78.8626C110.776 78.8178 110.776 78.7702 110.793 78.7226L110.827 78.465C110.852 78.2802 110.88 78.0926 110.905 77.905C110.93 77.7174 110.964 77.5382 111 77.345C111.023 77.1469 111.066 76.9517 111.129 76.7626C111.129 76.7318 111.09 76.7178 111.087 76.7626C111.066 76.8749 111.036 76.9853 110.998 77.093L110.93 77.3422C110.883 77.5298 110.838 77.7174 110.796 77.9022C110.754 78.087 110.723 78.2522 110.692 78.4258C110.678 78.5126 110.667 78.5966 110.656 78.6806C110.48 78.4286 110.298 78.1794 110.113 77.9358C109.586 77.2442 109.032 76.5778 108.455 75.9254C108.455 75.9254 108.455 75.9254 108.455 75.9086C108.508 74.8698 108.483 73.8394 108.713 72.8286C108.713 72.8006 108.679 72.7838 108.671 72.8118C108.41 73.7762 108.285 74.7724 108.301 75.7714C108.097 75.5418 107.887 75.3122 107.677 75.0854C107.192 74.5674 106.702 74.055 106.201 73.5566C106.182 73.537 106.148 73.5566 106.168 73.5874C107.008 74.4862 107.794 75.4214 108.567 76.3734C107.963 76.3636 107.358 76.386 106.756 76.4406C106.086 76.4882 105.42 76.575 104.754 76.6674C104.723 76.6674 104.731 76.715 104.754 76.7122C105.416 76.6146 106.084 76.5548 106.753 76.533C107.4 76.505 108.041 76.533 108.688 76.533C109.106 77.0482 109.517 77.569 109.922 78.0954H109.838C109.687 78.0954 109.536 78.0954 109.385 78.0954C109.082 78.0954 108.783 78.1234 108.483 78.1486C107.868 78.1997 107.257 78.2932 106.655 78.4286C106.649 78.4286 106.643 78.4309 106.639 78.4351C106.635 78.4393 106.632 78.445 106.632 78.451C106.632 78.4569 106.635 78.4626 106.639 78.4668C106.643 78.471 106.649 78.4734 106.655 78.4734C107.262 78.4034 107.873 78.3474 108.483 78.325C108.763 78.325 109.068 78.325 109.36 78.325H109.838C109.922 78.3364 110.007 78.3287 110.088 78.3026C110.353 78.6479 110.618 78.9942 110.883 79.3414C111.093 79.6214 111.3 79.9014 111.504 80.1814C111.709 80.4614 111.902 80.7834 112.132 81.0522C112.143 81.0326 112.174 81.0074 112.162 80.985Z" fill="#263238"/>
<path d="M106.817 75.1918C106.466 75.147 106.112 75.1302 105.759 75.1414C105.406 75.1414 105.05 75.1414 104.698 75.1638C104.667 75.1638 104.67 75.2086 104.698 75.2086C105.056 75.1806 105.414 75.175 105.773 75.1806C106.131 75.1862 106.467 75.2198 106.812 75.2086C106.828 75.2086 106.828 75.1946 106.817 75.1918Z" fill="#263238"/>
<path d="M109.925 75.9898C109.964 75.651 110.006 75.3122 110.079 74.979C110.079 74.9731 110.077 74.9674 110.073 74.9632C110.069 74.959 110.063 74.9566 110.057 74.9566C110.051 74.9566 110.045 74.959 110.041 74.9632C110.037 74.9674 110.034 74.9731 110.034 74.979C109.984 75.3122 109.92 75.6426 109.872 75.9758C109.847 76.141 109.824 76.309 109.802 76.4742C109.774 76.6303 109.761 76.7888 109.763 76.9474C109.765 76.9537 109.769 76.9591 109.774 76.963C109.779 76.9669 109.786 76.969 109.792 76.969C109.799 76.969 109.805 76.9669 109.811 76.963C109.816 76.9591 109.82 76.9537 109.822 76.9474C109.851 76.7913 109.868 76.633 109.872 76.4742C109.886 76.3118 109.906 76.1494 109.925 75.9898Z" fill="#263238"/>
<path d="M109.278 72.2434C109.192 72.5738 109.105 72.907 109.046 73.2402C109.015 73.411 108.987 73.5818 108.965 73.7526C108.934 73.9178 108.923 74.086 108.931 74.2538C108.931 74.2575 108.933 74.2611 108.935 74.2637C108.938 74.2663 108.942 74.2678 108.945 74.2678C108.949 74.2678 108.953 74.2663 108.955 74.2637C108.958 74.2611 108.959 74.2575 108.959 74.2538C108.998 74.0977 109.024 73.9384 109.035 73.7778C109.057 73.6126 109.082 73.4502 109.11 73.285C109.172 72.9406 109.234 72.599 109.32 72.2602C109.323 72.2322 109.278 72.2154 109.278 72.2434Z" fill="#263238"/>
<path d="M96.3985 92.3194C96.3425 91.6978 96.2809 91.0734 96.2165 90.4518C96.0839 89.2198 95.9355 87.9887 95.7713 86.7586C95.6061 85.535 95.4493 84.3058 95.2505 83.085C95.1789 82.5141 95.0524 81.9515 94.8725 81.405C94.8085 81.1719 94.6919 80.9565 94.5317 80.7755C94.3716 80.5944 94.172 80.4525 93.9485 80.3606C92.7837 79.9602 91.9885 81.167 91.5293 82.021C91.5153 82.0462 91.5517 82.0658 91.5685 82.0434C91.8485 81.6374 92.6269 80.5034 93.5117 80.5566C94.1053 80.5902 94.5813 81.013 94.8669 82.4942C95.5781 86.1874 96.2193 93.6942 96.2949 94.173C96.3341 94.4334 96.5161 94.4222 96.5189 94.1422C96.5077 93.543 96.4377 92.9298 96.3985 92.3194Z" fill="#263238"/>
<path d="M91.8288 81.5758C91.8288 81.5758 92.8481 77.9806 90.5969 79.7782C86.8505 82.7714 86.7188 89.2702 86.7188 89.2702C86.7188 89.2702 93.3773 85.4034 94.2033 82.8526C95.4381 79.0614 91.8288 81.5758 91.8288 81.5758Z" fill="#FFC727"/>
<path d="M93.0889 83.3398C92.5681 83.4462 92.0361 83.5162 91.5097 83.5918L90.7593 83.6982C90.5913 83.7206 90.4205 83.7374 90.2497 83.757C90.7453 83.0738 91.2465 82.3934 91.7225 81.6962C91.7269 81.6903 91.7288 81.6828 91.7278 81.6754C91.7267 81.6681 91.7228 81.6614 91.7169 81.657C91.7109 81.6525 91.7035 81.6506 91.6961 81.6517C91.6888 81.6527 91.6821 81.6567 91.6777 81.6626C91.2806 82.0698 90.9067 82.4988 90.5577 82.9478L90.2609 82.1078C90.1489 81.7858 90.0257 81.4666 89.9445 81.1334C89.9445 81.1054 89.8941 81.1334 89.9025 81.1474C89.9921 81.475 90.0565 81.8138 90.1461 82.1442C90.2357 82.4746 90.3281 82.777 90.4401 83.0878C90.1965 83.4042 89.9613 83.729 89.7345 84.0566C89.6197 83.7318 89.4769 83.4182 89.3789 83.0878C89.3789 83.0598 89.3257 83.0738 89.3341 83.0878C89.4545 83.4546 89.5189 83.8326 89.6309 84.2078C89.4769 84.4318 89.3257 84.6558 89.1801 84.8798C88.9001 85.297 88.6565 85.7198 88.4101 86.1454C88.3907 86.1537 88.3746 86.1679 88.364 86.1861C88.3534 86.2042 88.349 86.2253 88.3513 86.2462C87.9313 86.9742 87.5309 87.7106 87.1361 88.4554C87.1331 88.4606 87.1323 88.4668 87.1339 88.4725C87.1355 88.4783 87.1393 88.4832 87.1445 88.4862C87.1497 88.4892 87.1558 88.49 87.1616 88.4884C87.1674 88.4868 87.1723 88.483 87.1753 88.4778C87.5701 87.7414 88.0153 87.0246 88.4661 86.3218C88.5368 86.2985 88.6102 86.2843 88.6845 86.2798L88.9141 86.2294C89.0849 86.193 89.2557 86.1482 89.4265 86.1062C89.7653 86.0222 90.0985 85.941 90.4429 85.8822C90.4709 85.8822 90.4569 85.8346 90.4429 85.8402C90.0397 85.9158 89.6365 85.9634 89.2277 86.0082C89.0345 86.0306 88.8441 86.0558 88.6537 86.0866H88.6257C88.8627 85.7245 89.1054 85.3642 89.3537 85.0058C89.5945 84.6558 89.8437 84.3086 90.0929 83.9614C90.3253 83.9306 90.5521 83.869 90.7817 83.827L91.5545 83.6758C92.0697 83.5722 92.5849 83.4574 93.1029 83.3734C93.1309 83.3902 93.1169 83.3342 93.0889 83.3398Z" fill="#263238"/>
<path d="M89.0877 83.6954C89.0569 83.6002 89.0289 83.505 88.9981 83.4154C88.9356 83.2168 88.8842 83.0149 88.844 82.8106C88.844 82.7826 88.7964 82.7966 88.802 82.8106C88.8468 83.015 88.8944 83.2166 88.9392 83.4182C88.98 83.6216 89.0381 83.8211 89.1129 84.0146C89.1175 84.0227 89.1248 84.0291 89.1335 84.0326C89.1422 84.0361 89.1518 84.0366 89.1608 84.0341C89.1698 84.0315 89.1777 84.026 89.1833 84.0184C89.1888 84.0108 89.1916 84.0016 89.1913 83.9922C89.1605 83.897 89.1185 83.7962 89.0877 83.6954Z" fill="#263238"/>
<path d="M93.7692 82.5082C93.4668 82.553 93.1616 82.5754 92.8536 82.6034C92.5456 82.6314 92.246 82.6706 91.9408 82.7182C91.924 82.7182 91.924 82.7462 91.9408 82.7434C92.246 82.7238 92.5513 82.6986 92.8565 82.6594C93.1617 82.6202 93.464 82.5754 93.772 82.553C93.8 82.5502 93.7972 82.5054 93.7692 82.5082Z" fill="#263238"/>
<path d="M101.284 87.7694C101.164 85.1234 101.004 82.4802 100.724 79.8454C100.593 78.5322 100.444 77.2218 100.26 75.9254C100.096 74.6407 99.8429 73.3692 99.5008 72.1202C99.2663 71.1491 98.8356 70.2363 98.2353 69.4378C97.9387 69.0494 97.5482 68.7428 97.1005 68.5469C96.6528 68.3509 96.1626 68.2721 95.6761 68.3178C94.5197 68.4606 93.5845 69.1914 92.7781 69.9838C91.8737 70.8742 91.0449 71.8458 90.2077 72.7838C89.9949 73.0246 89.7849 73.2682 89.5749 73.5118C89.5581 73.5342 89.5889 73.565 89.6085 73.5426C90.4289 72.6018 91.2885 71.6862 92.1705 70.8126C92.9937 70.0034 93.8505 69.1326 94.9705 68.7854C95.5007 68.6173 96.0679 68.6037 96.6056 68.7462C97.034 68.8814 97.4199 69.1255 97.7256 69.4546C98.3696 70.121 98.728 71.0254 98.9856 71.9018C99.6968 74.335 99.9517 76.8858 100.215 79.3974C100.478 81.909 100.666 84.5074 100.794 87.0722C100.923 89.637 101.024 92.227 101.273 94.7974C101.304 95.1138 101.343 95.4302 101.385 95.7466C101.41 95.9566 101.741 95.9594 101.724 95.7466C101.525 93.0866 101.402 90.4294 101.284 87.7694Z" fill="#263238"/>
<path d="M92.6381 70.2638C92.6381 70.2638 94.1501 67.4638 92.3581 66.5678C90.5661 65.6718 84.5965 72.3414 82.8521 82.0966C82.8521 82.0966 92.5036 77.8266 95.7824 73.5706C99.0612 69.3146 95.3485 68.3794 92.6381 70.2638Z" fill="#FFC727"/>
<path d="M94.0577 72.5374C92.9741 72.5374 91.8905 72.4562 90.8069 72.4618L91.4173 71.7646C91.7187 71.455 91.9993 71.1257 92.2573 70.779C92.2713 70.7566 92.2405 70.7258 92.2181 70.7426C91.9233 70.9949 91.649 71.2701 91.3977 71.5658C91.1177 71.8458 90.8545 72.1426 90.5856 72.4338C90.1713 72.8846 89.7652 73.3382 89.3592 73.7974C89.3592 73.7526 89.3592 73.7078 89.3592 73.6658C89.3592 73.4754 89.3592 73.285 89.3592 73.1058C89.3592 72.739 89.3592 72.3694 89.3592 72.0026C89.3592 71.2578 89.3593 70.5074 89.4153 69.7626C89.4153 69.7346 89.3733 69.7346 89.3705 69.7626C89.3201 70.513 89.2417 71.2578 89.2053 72.0026C89.1885 72.3722 89.1801 72.739 89.1745 73.1086C89.1745 73.2962 89.1745 73.4866 89.1745 73.6686C89.1745 73.7722 89.1745 73.8814 89.1745 73.9878C89.1129 74.0606 89.0457 74.1306 88.984 74.2006C88.1188 75.1918 87.3041 76.2138 86.4921 77.2554C86.4921 77.1994 86.4921 77.1378 86.4781 77.0818C86.4781 76.967 86.4529 76.8522 86.4417 76.7374C86.4137 76.4882 86.38 76.2418 86.3408 75.9926C86.3016 75.7434 86.2709 75.5278 86.2317 75.2954C86.1925 75.063 86.1225 74.7718 86.1029 74.5086C86.1041 74.5052 86.1045 74.5016 86.1041 74.498C86.1036 74.4944 86.1023 74.491 86.1002 74.488C86.0982 74.485 86.0954 74.4826 86.0922 74.4809C86.089 74.4793 86.0855 74.4784 86.0819 74.4784C86.0782 74.4784 86.0747 74.4793 86.0715 74.4809C86.0683 74.4826 86.0655 74.485 86.0635 74.488C86.0614 74.491 86.0601 74.4944 86.0596 74.498C86.0592 74.5016 86.0596 74.5052 86.0608 74.5086C86.1047 74.7719 86.1346 75.0373 86.1505 75.3038L86.2177 76.0206C86.2373 76.2586 86.2597 76.4966 86.2849 76.7374L86.3185 77.0818C86.3185 77.1378 86.3324 77.1966 86.3408 77.2526C86.3435 77.3014 86.359 77.3487 86.3857 77.3898L85.974 77.9274C85.414 78.6526 84.8877 79.3862 84.3501 80.117C84.3333 80.1394 84.3669 80.1702 84.3837 80.1478C84.8933 79.4842 85.4169 78.8318 85.9461 78.1878C86.3437 78.2046 86.7497 78.1738 87.1473 78.1682C87.5449 78.1626 87.9873 78.1682 88.4017 78.1682C88.4076 78.1682 88.4133 78.1658 88.4175 78.1616C88.4217 78.1574 88.424 78.1517 88.424 78.1458C88.424 78.1398 88.4217 78.1341 88.4175 78.1299C88.4133 78.1257 88.4076 78.1234 88.4017 78.1234C87.9817 78.1234 87.5617 78.1374 87.1445 78.1402C86.7273 78.143 86.3745 78.1234 85.9937 78.1402C86.4585 77.5802 86.9317 77.0202 87.3937 76.4462L87.9424 75.8302C88.103 75.8512 88.2652 75.8568 88.4269 75.847H88.9869C89.3425 75.847 89.6981 75.847 90.0565 75.833C90.7929 75.833 91.5293 75.7966 92.2657 75.7938C92.269 75.795 92.2727 75.7955 92.2763 75.795C92.2798 75.7945 92.2833 75.7932 92.2862 75.7912C92.2892 75.7891 92.2916 75.7864 92.2933 75.7832C92.295 75.78 92.2958 75.7764 92.2958 75.7728C92.2958 75.7692 92.295 75.7656 92.2933 75.7624C92.2916 75.7592 92.2892 75.7565 92.2862 75.7544C92.2833 75.7523 92.2798 75.751 92.2763 75.7506C92.2727 75.7501 92.269 75.7505 92.2657 75.7518C91.5265 75.7518 90.7901 75.7098 90.0537 75.6902C89.6953 75.6902 89.3397 75.6706 88.9813 75.665H88.4213C88.3149 75.665 88.2028 75.665 88.0908 75.665L89.3089 74.223C89.3183 74.2166 89.3261 74.208 89.3313 74.1978C89.7261 73.7302 90.1209 73.2654 90.5213 72.7978C90.5773 72.7362 90.6333 72.6746 90.6865 72.6102C91.8065 72.6438 92.9265 72.571 94.0465 72.5934C94.0885 72.5822 94.0885 72.5374 94.0577 72.5374Z" fill="#263238"/>
<path d="M93.5033 74.4554H93.2401C93.2349 74.4554 93.2299 74.4574 93.2262 74.4611C93.2225 74.4648 93.2205 74.4698 93.2205 74.475C93.2205 74.4802 93.2225 74.4852 93.2262 74.4888C93.2299 74.4925 93.2349 74.4946 93.2401 74.4946H93.5005C93.5041 74.4929 93.5072 74.4903 93.5095 74.487C93.5118 74.4837 93.5132 74.4798 93.5135 74.4758C93.5138 74.4718 93.513 74.4678 93.5112 74.4642C93.5094 74.4606 93.5066 74.4576 93.5033 74.4554Z" fill="#263238"/>
<path d="M92.9181 74.4582C92.5709 74.4582 92.2237 74.4582 91.8765 74.4358L91.3585 74.4302C91.1976 74.4106 91.0349 74.4106 90.8741 74.4302C90.8696 74.4302 90.8653 74.432 90.8622 74.4351C90.859 74.4383 90.8573 74.4425 90.8573 74.447C90.8573 74.4514 90.859 74.4557 90.8622 74.4589C90.8653 74.462 90.8696 74.4638 90.8741 74.4638C91.0343 74.496 91.1981 74.5073 91.3613 74.4974H91.8821H92.9237C92.9489 74.503 92.9489 74.4582 92.9181 74.4582Z" fill="#263238"/>
<path d="M89.8857 77.7174C89.1795 77.5986 88.4653 77.534 87.7493 77.5242V77.5382C88.4605 77.6054 89.1689 77.6446 89.8745 77.7594C89.9025 77.765 89.9137 77.7202 89.8857 77.7174Z" fill="#263238"/>
<path d="M86.982 74.6094C86.982 74.5478 86.9681 74.4862 86.9597 74.4246C86.9429 74.2846 86.9205 74.1446 86.8981 74.0074C86.8561 73.7414 86.8112 73.4782 86.7608 73.2122C86.7608 73.1898 86.7133 73.1954 86.7161 73.2122C86.7497 73.4922 86.7804 73.7582 86.8056 74.0326L86.8392 74.4358C86.8355 74.5648 86.8535 74.6935 86.8924 74.8166C86.898 74.825 86.9059 74.8316 86.9151 74.8357C86.9243 74.8398 86.9345 74.8412 86.9445 74.8398C86.9545 74.8383 86.9638 74.834 86.9715 74.8274C86.9791 74.8209 86.9847 74.8122 86.9877 74.8026C86.9974 74.7384 86.9954 74.6729 86.982 74.6094Z" fill="#263238"/>
<path d="M101.189 66.6714C100.842 66.0274 100.402 65.179 99.5401 65.2322C98.8289 65.277 98.5068 66.0022 98.3556 66.6042C97.8852 68.4606 97.8516 70.4206 97.762 72.3246C97.566 76.3482 97.3924 80.3746 97.3672 84.4038C97.3672 85.5238 97.3672 86.6438 97.3672 87.7638C97.3672 88.9034 97.3672 90.0486 97.4456 91.1854C97.4456 91.2077 97.4545 91.229 97.4703 91.2448C97.486 91.2605 97.5074 91.2694 97.5297 91.2694C97.5519 91.2694 97.5733 91.2605 97.589 91.2448C97.6048 91.229 97.6136 91.2077 97.6136 91.1854C97.6136 90.211 97.5857 89.2254 97.5829 88.2622C97.5801 87.299 97.5829 86.361 97.5997 85.409C97.6314 83.4844 97.6827 81.5599 97.7536 79.6354C97.8264 77.723 97.9105 75.8106 97.9917 73.8982C98.0309 72.9434 98.0729 71.9858 98.1149 71.031C98.1569 70.0762 98.196 69.1802 98.3024 68.259C98.3612 67.741 98.4369 67.2258 98.5461 66.719C98.5992 66.3409 98.753 65.9841 98.9913 65.6858C99.1557 65.5233 99.3727 65.425 99.6033 65.4086C99.8338 65.3922 100.063 65.4587 100.248 65.5962C100.643 65.8806 100.952 66.268 101.142 66.7162C101.148 66.7225 101.156 66.7262 101.164 66.7264C101.173 66.7267 101.182 66.7235 101.188 66.7176C101.194 66.7116 101.198 66.7034 101.198 66.6948C101.198 66.6861 101.195 66.6777 101.189 66.6714Z" fill="#263238"/>
<path d="M100.954 66.3634C100.954 66.3634 100.246 63.8602 101.814 65.1118C104.423 67.195 104.516 71.7282 104.516 71.7282C104.516 71.7282 99.876 69.0346 99.2992 67.2482C98.4396 64.6106 100.954 66.3634 100.954 66.3634Z" fill="#FFC727"/>
<path d="M103.538 69.8718C103.496 69.8018 103.452 69.7346 103.407 69.6646C103.412 69.5938 103.412 69.5226 103.407 69.4518C103.407 69.3454 103.407 69.2362 103.407 69.1298C103.407 68.917 103.407 68.7042 103.429 68.4942C103.429 68.4882 103.427 68.4826 103.423 68.4784C103.418 68.4742 103.413 68.4718 103.407 68.4718C103.401 68.4718 103.395 68.4742 103.391 68.4784C103.387 68.4826 103.384 68.4882 103.384 68.4942C103.384 68.7014 103.365 68.9114 103.359 69.1186C103.359 69.2222 103.359 69.3258 103.359 69.4294C103.359 69.4686 103.359 69.5162 103.359 69.5638C103.177 69.2838 102.99 69.0038 102.799 68.7238C102.743 68.6426 102.684 68.5642 102.628 68.4858C102.599 68.2143 102.594 67.9406 102.614 67.6682C102.614 67.3882 102.614 67.0858 102.631 66.7946C102.631 66.7666 102.586 66.7666 102.586 66.7946C102.586 67.097 102.564 67.3994 102.547 67.7018C102.529 67.9169 102.523 68.1328 102.53 68.3486C102.082 67.741 101.606 67.153 101.13 66.5678C101.114 66.5482 101.08 66.5678 101.097 66.5958C101.394 66.9738 101.679 67.3602 101.959 67.7522C101.413 67.6234 100.859 67.5506 100.304 67.4722C100.276 67.4722 100.265 67.5114 100.304 67.517C100.892 67.6066 101.469 67.7522 102.049 67.881C102.27 68.1946 102.491 68.5082 102.707 68.8246L102.97 69.211H102.948L102.766 69.1858L102.379 69.1522C102.113 69.1298 101.844 69.1158 101.576 69.1018C101.548 69.1018 101.55 69.1466 101.576 69.1466C101.839 69.1466 102.102 69.1718 102.362 69.1998L102.78 69.2502L102.959 69.2726H103.012C103.16 69.491 103.312 69.7094 103.457 69.9278C103.72 70.317 103.956 70.7314 104.233 71.1038C104.236 71.1069 104.241 71.1088 104.246 71.1092C104.25 71.1096 104.255 71.1085 104.259 71.106C104.263 71.1035 104.266 71.0997 104.268 71.0953C104.27 71.0909 104.27 71.086 104.269 71.0814C104.05 70.6639 103.806 70.2599 103.538 69.8718Z" fill="#263238"/>
<path d="M102.385 67.0438C102.385 66.9458 102.385 66.8478 102.385 66.7498C102.379 66.545 102.388 66.3402 102.41 66.1366C102.411 66.1332 102.412 66.1296 102.411 66.126C102.411 66.1224 102.41 66.119 102.407 66.116C102.405 66.113 102.403 66.1106 102.399 66.1089C102.396 66.1073 102.393 66.1064 102.389 66.1064C102.385 66.1064 102.382 66.1073 102.379 66.1089C102.375 66.1106 102.373 66.113 102.371 66.116C102.369 66.119 102.367 66.1224 102.367 66.126C102.366 66.1296 102.367 66.1332 102.368 66.1366C102.368 66.341 102.346 66.5426 102.334 66.7442C102.334 66.8478 102.334 66.9486 102.334 67.0494V67.1894C102.327 67.2377 102.327 67.2867 102.334 67.335C102.334 67.3402 102.337 67.3452 102.34 67.3488C102.344 67.3525 102.349 67.3546 102.354 67.3546C102.359 67.3546 102.364 67.3525 102.368 67.3488C102.372 67.3452 102.374 67.3402 102.374 67.335C102.381 67.2905 102.381 67.2451 102.374 67.2006L102.385 67.0438Z" fill="#263238"/>
<path d="M101.811 68.0798C101.637 68.049 101.461 68.0406 101.287 68.0266C101.114 68.0126 100.906 67.993 100.727 67.9678C100.721 67.9678 100.716 67.9702 100.711 67.9744C100.707 67.9786 100.705 67.9843 100.705 67.9902C100.705 67.9961 100.707 68.0018 100.711 68.006C100.716 68.0102 100.721 68.0126 100.727 68.0126C101.094 68.035 101.458 68.1022 101.825 68.1134C101.828 68.1162 101.83 68.0826 101.811 68.0798Z" fill="#263238"/>
<path d="M103.267 68.0938C103.281 68.1134 103.267 68.1694 103.267 68.1918V68.4466C103.267 68.5054 103.267 68.5642 103.267 68.623C103.257 68.6729 103.257 68.7243 103.267 68.7742C103.267 68.7742 103.281 68.7742 103.284 68.7742C103.289 68.7503 103.289 68.7253 103.284 68.7014C103.282 68.6744 103.282 68.6472 103.284 68.6202V68.4466C103.284 68.3878 103.284 68.329 103.284 68.2702V68.1918C103.284 68.1666 103.284 68.1134 103.284 68.0938C103.284 68.0742 103.239 68.0518 103.267 68.0938Z" fill="#263238"/>
<path d="M101.296 80.0302C100.321 79.2994 99.4449 78.2466 98.1317 78.1934C97.0481 78.1514 96.2893 78.9662 95.8553 79.8734C95.6382 80.3574 95.4612 80.8584 95.3261 81.3714C95.1301 82.0546 94.9434 82.7425 94.7661 83.435C94.4282 84.7958 94.1389 86.1678 93.8981 87.551C93.7665 88.321 93.6433 89.0938 93.5453 89.8694C93.4221 90.6556 93.3464 91.4485 93.3185 92.2438C93.318 92.2744 93.3289 92.304 93.349 92.327C93.3692 92.35 93.3972 92.3646 93.4276 92.3681C93.4579 92.3716 93.4885 92.3637 93.5134 92.3459C93.5382 92.3281 93.5556 92.3017 93.562 92.2718C93.6936 91.6222 93.7496 90.953 93.842 90.2978C93.9344 89.6426 94.038 88.979 94.1472 88.3238C94.3712 87.0171 94.6307 85.7105 94.9256 84.4038C95.2056 83.1746 95.4857 81.9286 95.8749 80.733C96.1549 79.8762 96.614 78.8766 97.5408 78.5686C98.9408 78.101 100.226 79.291 101.256 80.0666C101.287 80.0806 101.318 80.047 101.296 80.0302Z" fill="#263238"/>
<path d="M100.288 79.3302C100.288 79.3302 99.3861 76.7626 100.688 76.2502C102.648 75.497 107.738 81.2426 106.739 90.0458C106.739 90.0458 102.799 87.8758 99.8872 85.4314C96.9752 82.987 96.2472 79.7978 97.5156 78.9746C98.784 78.1514 100.288 79.3302 100.288 79.3302Z" fill="#FFC727"/>
<path d="M106.151 88.167C106.015 87.8598 105.857 87.5631 105.678 87.2794C105.51 86.977 105.342 86.6774 105.168 86.3806C104.829 85.801 104.493 85.2214 104.146 84.6446L103.975 84.3646C103.975 84.331 103.989 84.2946 103.995 84.261L104.054 84.0062C104.098 83.8158 104.132 83.6226 104.166 83.4294C104.238 83.0542 104.303 82.6734 104.404 82.3094C104.404 82.2842 104.367 82.2758 104.362 82.3094C104.28 82.6846 104.16 83.057 104.051 83.4294C103.995 83.6114 103.936 83.7906 103.888 83.9754L103.838 84.163C103.421 83.477 102.998 82.7938 102.533 82.133C102.563 82.0426 102.579 81.9482 102.581 81.853C102.595 81.7242 102.609 81.5954 102.626 81.4666C102.659 81.1866 102.693 80.887 102.735 80.5986C102.819 80.0386 102.903 79.4786 103.043 78.9186C103.043 78.8906 103.006 78.8822 103.001 78.9186C102.858 79.4786 102.707 80.0386 102.6 80.5986C102.55 80.8786 102.5 81.1586 102.463 81.4386C102.446 81.5786 102.43 81.7186 102.416 81.8586C102.416 81.8978 102.416 81.9426 102.399 81.9846C102.259 81.7858 102.119 81.5842 101.97 81.391C101.52 80.7974 101.052 80.2206 100.57 79.6438C100.554 79.6214 100.514 79.6438 100.534 79.669C101.34 80.7003 102.081 81.7814 102.752 82.9058L103.135 83.5302L103.006 83.5134C102.841 83.491 102.676 83.4826 102.511 83.4658L101.514 83.379C100.85 83.3258 100.184 83.2866 99.5233 83.2166C99.4953 83.2166 99.4869 83.2558 99.5233 83.2586C100.195 83.337 100.862 83.4434 101.531 83.5386C101.861 83.5862 102.189 83.631 102.519 83.673C102.769 83.7227 103.023 83.748 103.278 83.7486C103.538 84.1742 103.802 84.5886 104.062 85.0198C104.003 85.0198 103.942 85.0198 103.886 85.0198H102.936C102.508 85.0198 102.08 85.0198 101.654 85.0198C101.623 85.0198 101.629 85.0618 101.654 85.0618C102.088 85.0618 102.519 85.0898 102.953 85.1122L103.569 85.1486L103.877 85.171C103.969 85.1924 104.065 85.1924 104.157 85.171L104.824 86.2518C105.028 86.585 105.235 86.9154 105.445 87.2458C105.643 87.596 105.867 87.9311 106.114 88.2482C106.126 88.209 106.162 88.195 106.151 88.167Z" fill="#263238"/>
<path d="M104.272 81.0522C104.233 81.3359 104.174 81.6166 104.096 81.8922C104.023 82.1722 103.942 82.4522 103.849 82.7322C103.848 82.7358 103.847 82.7396 103.847 82.7435C103.847 82.7474 103.848 82.7512 103.85 82.7547C103.851 82.7583 103.854 82.7614 103.857 82.764C103.86 82.7665 103.863 82.7684 103.867 82.7696C103.87 82.7708 103.874 82.7712 103.878 82.7707C103.882 82.7703 103.886 82.7691 103.889 82.7672C103.892 82.7652 103.895 82.7626 103.898 82.7595C103.9 82.7564 103.902 82.7528 103.902 82.749C103.989 82.469 104.068 82.189 104.135 81.909C104.202 81.629 104.247 81.349 104.317 81.055C104.317 81.0491 104.315 81.0432 104.311 81.0387C104.307 81.0343 104.302 81.0316 104.296 81.0312C104.29 81.0308 104.284 81.0328 104.28 81.0368C104.275 81.0407 104.272 81.0463 104.272 81.0522Z" fill="#263238"/>
<path d="M101.377 82.7714C101.316 82.7206 101.24 82.6919 101.161 82.6902L100.789 82.6398C100.559 82.609 100.327 82.5838 100.097 82.5558C99.6157 82.4998 99.1369 82.4522 98.6553 82.3934C98.6273 82.3934 98.6189 82.4326 98.6553 82.4354C99.1089 82.4914 99.5597 82.5614 100.013 82.6202L100.677 82.707L100.999 82.7406C101.123 82.7417 101.246 82.7635 101.363 82.805C101.367 82.805 101.371 82.8039 101.374 82.8018C101.377 82.7996 101.38 82.7965 101.381 82.7929C101.383 82.7893 101.383 82.7853 101.382 82.7815C101.382 82.7776 101.38 82.7741 101.377 82.7714Z" fill="#263238"/>
<path d="M104.266 86.6438C104.04 86.6242 103.81 86.6158 103.583 86.6102H103.239H103.074C103.002 86.6171 102.93 86.6171 102.858 86.6102C102.827 86.6102 102.824 86.6578 102.858 86.6522C102.925 86.6452 102.993 86.6452 103.06 86.6522H103.239L103.58 86.6746C103.807 86.6886 104.037 86.7026 104.264 86.7026C104.292 86.6914 104.294 86.6438 104.266 86.6438Z" fill="#263238"/>
<path d="M105.655 85.6582L105.731 85.2718C105.776 85.017 105.823 84.7622 105.871 84.5102C105.871 84.5042 105.868 84.4985 105.864 84.4943C105.86 84.4901 105.854 84.4878 105.848 84.4878C105.843 84.4878 105.837 84.4901 105.833 84.4943C105.828 84.4985 105.826 84.5042 105.826 84.5102L105.658 85.2522C105.63 85.3754 105.602 85.4986 105.577 85.6218C105.577 85.6806 105.554 85.7366 105.54 85.7954C105.523 85.8543 105.516 85.916 105.521 85.9774C105.521 85.983 105.524 85.9884 105.527 85.9927C105.531 85.9971 105.536 86.0002 105.541 86.0017C105.547 86.0032 105.552 86.0031 105.558 86.0012C105.563 85.9994 105.568 85.996 105.571 85.9914C105.62 85.8866 105.649 85.7736 105.655 85.6582Z" fill="#263238"/>
<path d="M92.3105 91.2582L92.5849 94.3802L93.5173 104.917H101.769L102.934 94.3802L103.278 91.2582H92.3105Z" fill="#37474F"/>
<path d="M92.3105 91.2582L92.5849 94.3802H102.934L103.278 91.2582H92.3105Z" fill="#263238"/>
<path d="M91.4929 92.941H104.096V90.4098H91.4929V92.941Z" fill="#37474F"/>
<path d="M47.6785 80.9066C47.6785 76.4266 48.4102 72.4011 49.8737 68.8302C51.3371 65.2593 54.3555 62.1485 58.9289 59.4978C60.3027 58.6746 61.9958 57.7413 64.0081 56.6978C66.0787 55.6104 68.0525 54.3476 69.9077 52.9234C71.8042 51.4892 73.4504 49.7513 74.7797 47.7798C76.1198 45.7702 76.8143 43.3993 76.7705 40.9842C76.8105 39.2253 76.4365 37.4815 75.6785 35.8938C74.9793 34.4764 73.999 33.216 72.7973 32.1894C71.563 31.1608 70.1348 30.3905 68.5973 29.9242C67.0211 29.4267 65.3781 29.1727 63.7253 29.171C61.8521 29.1454 59.9924 29.4918 58.2541 30.1902C56.655 30.8491 55.1549 31.7264 53.7965 32.797C52.4726 33.8451 51.2746 35.0431 50.2265 36.367C49.2616 37.5704 48.3687 38.8298 47.5525 40.1386H45.4861L35.6105 31.9066C36.7527 29.1385 38.3534 26.5827 40.3453 24.3466C42.2929 22.1664 44.5584 20.2926 47.0653 18.7886C49.6154 17.2725 52.367 16.1243 55.2385 15.3782C58.1943 14.5975 61.2393 14.205 64.2965 14.2106C67.7824 14.2126 71.2495 14.7209 74.5893 15.7198C77.9197 16.7 81.0217 18.3333 83.7145 20.5246C86.4961 22.8271 88.7441 25.7066 90.3029 28.9638C91.9941 32.3947 92.8397 36.4893 92.8397 41.2474C92.882 43.8684 92.5357 46.4811 91.8121 49.0006C91.1551 51.1799 90.1582 53.2419 88.8581 55.1102C87.5706 56.9469 86.0485 58.6074 84.3305 60.0494C82.465 61.6035 80.4926 63.0247 78.4281 64.3026C76.5969 65.4039 74.7675 66.4567 72.9401 67.461C71.1714 68.4259 69.4947 69.5506 67.9309 70.821C66.4583 72.0145 65.2039 73.4546 64.2237 75.077C63.2642 76.6786 62.7845 78.6227 62.7845 80.9094L47.6785 80.9066ZM47.9585 112.88V93.9434H63.1905V112.88H47.9585Z" fill="#FFC727"/>
<g opacity="0.2">
<path d="M47.6785 80.9066C47.6785 76.4266 48.4102 72.4011 49.8737 68.8302C51.3371 65.2593 54.3555 62.1485 58.9289 59.4978C60.3027 58.6746 61.9958 57.7413 64.0081 56.6978C66.0787 55.6104 68.0525 54.3476 69.9077 52.9234C71.8042 51.4892 73.4504 49.7513 74.7797 47.7798C76.1198 45.7702 76.8143 43.3993 76.7705 40.9842C76.8105 39.2253 76.4365 37.4815 75.6785 35.8938C74.9793 34.4764 73.999 33.216 72.7973 32.1894C71.563 31.1608 70.1348 30.3905 68.5973 29.9242C67.0211 29.4267 65.3781 29.1727 63.7253 29.171C61.8521 29.1454 59.9924 29.4918 58.2541 30.1902C56.655 30.8491 55.1549 31.7264 53.7965 32.797C52.4726 33.8451 51.2746 35.0431 50.2265 36.367C49.2616 37.5704 48.3687 38.8298 47.5525 40.1386H45.4861L35.6105 31.9066C36.7527 29.1385 38.3534 26.5827 40.3453 24.3466C42.2929 22.1664 44.5584 20.2926 47.0653 18.7886C49.6154 17.2725 52.367 16.1243 55.2385 15.3782C58.1943 14.5975 61.2393 14.205 64.2965 14.2106C67.7824 14.2126 71.2495 14.7209 74.5893 15.7198C77.9197 16.7 81.0217 18.3333 83.7145 20.5246C86.4961 22.8271 88.7441 25.7066 90.3029 28.9638C91.9941 32.3947 92.8397 36.4893 92.8397 41.2474C92.882 43.8684 92.5357 46.4811 91.8121 49.0006C91.1551 51.1799 90.1582 53.2419 88.8581 55.1102C87.5706 56.9469 86.0485 58.6074 84.3305 60.0494C82.465 61.6035 80.4926 63.0247 78.4281 64.3026C76.5969 65.4039 74.7675 66.4567 72.9401 67.461C71.1714 68.4259 69.4947 69.5506 67.9309 70.821C66.4583 72.0145 65.2039 73.4546 64.2237 75.077C63.2642 76.6786 62.7845 78.6227 62.7845 80.9094L47.6785 80.9066ZM47.9585 112.88V93.9434H63.1905V112.88H47.9585Z" fill="black"/>
</g>
<path d="M45.6233 80.9066C45.6233 76.4266 46.355 72.4011 47.8185 68.8302C49.2819 65.2593 52.3013 62.1485 56.8765 59.4978C58.2485 58.6746 59.9406 57.7413 61.9529 56.6978C64.0248 55.611 65.9996 54.3483 67.8553 52.9234C69.7512 51.4886 71.3973 49.7507 72.7273 47.7798C74.0652 45.7693 74.7587 43.3988 74.7153 40.9842C74.7514 39.2295 74.3755 37.4908 73.6177 35.9078C72.9185 34.4903 71.9382 33.23 70.7365 32.2034C69.5022 31.1748 68.074 30.4045 66.5365 29.9382C64.9603 29.4407 63.3173 29.1867 61.6645 29.185C59.7912 29.154 57.9305 29.4956 56.1905 30.1902C54.5906 30.8493 53.0895 31.7265 51.7301 32.797C50.4071 33.8451 49.21 35.0431 48.1629 36.367C47.1972 37.5704 46.3033 38.8298 45.4861 40.1386L33.5469 31.9066C34.6883 29.138 36.2891 26.5821 38.2817 24.3466C40.2285 22.1656 42.4942 20.2917 45.0017 18.7886C47.5511 17.2729 50.3017 16.1248 53.1721 15.3782C56.1306 14.5965 59.1784 14.204 62.2385 14.2106C65.7244 14.2124 69.1916 14.7207 72.5313 15.7198C75.862 16.6993 78.9641 18.3327 81.6565 20.5246C84.4387 22.8265 86.6869 25.7061 88.2449 28.9638C89.9361 32.3947 90.7826 36.4893 90.7845 41.2474C90.8259 43.8685 90.4787 46.4813 89.7541 49.0006C89.0955 51.1808 88.0956 53.2429 86.7917 55.1102C85.5042 56.9469 83.9821 58.6074 82.2641 60.0494C80.3996 61.6048 78.4272 63.0261 76.3617 64.3026C74.5342 65.4039 72.7049 66.4567 70.8737 67.461C69.105 68.4259 67.4283 69.5506 65.8645 70.821C64.3927 72.0146 63.1393 73.4547 62.1601 75.077C61.2006 76.6786 60.7199 78.6227 60.7181 80.9094L45.6233 80.9066ZM45.9033 112.88V93.9434H61.1185V112.88H45.9033Z" fill="#FFC727"/>
<path d="M39.3455 114.395C38.7491 114.585 21.7447 114.367 21.1035 113.947C20.8571 113.79 20.7451 111.312 20.6947 108.31V108.218C20.6947 107.599 20.6751 106.961 20.6723 106.317C20.6723 106.227 20.6723 106.137 20.6723 106.051C20.6499 101.722 20.7171 97.2278 20.7171 97.2278L32.0935 97.3426L31.7491 106.07L31.7351 106.417L31.6651 108.226V108.411C31.6651 108.411 38.1303 111.418 38.7883 111.95C39.4463 112.482 39.9419 114.204 39.3455 114.395Z" fill="#AD6359"/>
<path d="M39.3455 114.395C38.7491 114.585 21.7447 114.367 21.1035 113.947C20.8571 113.79 20.7451 111.312 20.6947 108.31V108.218C20.6947 107.599 20.6751 106.961 20.6723 106.317C20.6723 106.227 20.6723 106.137 20.6723 106.051L31.7519 106.081L31.7379 106.429L31.6679 108.237V108.422C31.6679 108.422 38.1303 111.418 38.7883 111.95C39.4463 112.482 39.9419 114.204 39.3455 114.395Z" fill="#EBEBEB"/>
<path d="M39.3455 114.395C38.9787 114.512 32.3903 114.473 27.2327 114.327C24.0127 114.241 21.3527 114.106 21.1035 113.947C20.8543 113.787 20.7479 111.382 20.6975 108.436C20.6975 108.394 20.6975 108.352 20.6975 108.31C20.6975 108.268 20.6975 108.246 20.6975 108.215L31.6707 108.237V108.422C31.6707 108.422 38.1443 111.418 38.7995 111.953C39.4547 112.488 39.9419 114.204 39.3455 114.395Z" fill="#FFC727"/>
<path d="M39.1635 113.731C36.2963 113.625 24.7295 113.451 21.8875 113.571C21.8651 113.571 21.8651 113.588 21.8875 113.591C24.7267 113.759 36.2935 113.829 39.1607 113.779C39.2223 113.779 39.2223 113.734 39.1635 113.731Z" fill="#263238"/>
<path d="M32.8859 108.282C31.7659 108.058 30.3799 108.212 29.5063 109.005C29.4727 109.035 29.5063 109.083 29.5539 109.072C30.6367 108.739 31.7518 108.522 32.8803 108.425C32.897 108.422 32.9123 108.414 32.9235 108.402C32.9348 108.389 32.9413 108.373 32.942 108.356C32.9426 108.339 32.9374 108.322 32.9272 108.309C32.917 108.296 32.9024 108.286 32.8859 108.282Z" fill="#263238"/>
<path d="M33.6951 108.783C32.5751 108.559 31.1891 108.713 30.3155 109.506C30.2819 109.537 30.3155 109.584 30.3631 109.573C31.4422 109.241 32.5535 109.024 33.6783 108.926C33.6956 108.925 33.7121 108.919 33.7248 108.907C33.7375 108.895 33.7456 108.879 33.7476 108.862C33.7497 108.845 33.7455 108.827 33.7359 108.813C33.7262 108.799 33.7118 108.788 33.6951 108.783Z" fill="#263238"/>
<path d="M34.5015 109.285C33.3815 109.061 31.9955 109.215 31.1219 110.007C31.0883 110.038 31.1219 110.085 31.1695 110.074C32.2524 109.742 33.3675 109.527 34.4959 109.43C34.5152 109.431 34.534 109.424 34.5482 109.411C34.5624 109.398 34.5708 109.38 34.5715 109.36C34.5723 109.341 34.5653 109.322 34.5522 109.308C34.5391 109.294 34.5208 109.285 34.5015 109.285Z" fill="#263238"/>
<path d="M34.3867 105.841C33.9499 105.225 33.1211 105.491 32.6451 105.88C31.8403 106.563 31.2299 107.447 30.8755 108.442C30.8737 108.446 30.8729 108.451 30.8733 108.455C30.8737 108.46 30.8752 108.464 30.8776 108.468C30.8801 108.472 30.8836 108.475 30.8876 108.477C30.8916 108.48 30.8961 108.481 30.9007 108.481C30.9007 108.568 30.9791 108.66 31.0771 108.624C32.0123 108.291 33.0539 108.064 33.8603 107.442C34.3307 107.087 34.7983 106.426 34.3867 105.841ZM32.3903 107.829C31.9339 108.005 31.4719 108.156 31.0239 108.347C31.3711 107.848 31.6931 107.339 32.0907 106.874C32.2792 106.649 32.4812 106.436 32.6955 106.235C33.0371 105.936 34.3755 105.303 34.1571 106.538C34.0395 107.218 32.9363 107.621 32.3903 107.829Z" fill="#263238"/>
<path d="M28.0111 108.109C28.9351 108.517 30.0047 108.512 30.9931 108.621C31.0939 108.621 31.1471 108.523 31.1303 108.439C31.1347 108.438 31.1387 108.435 31.142 108.432C31.1453 108.429 31.1478 108.425 31.1494 108.421C31.151 108.416 31.1517 108.412 31.1513 108.407C31.1509 108.403 31.1495 108.398 31.1471 108.394C30.5713 107.509 29.774 106.79 28.8343 106.308C28.2743 106.028 27.4119 105.972 27.1319 106.672C26.8519 107.372 27.4707 107.871 28.0111 108.109ZM27.5127 107.297C27.0199 106.146 28.4675 106.457 28.8651 106.669C29.122 106.812 29.3681 106.973 29.6015 107.151C30.0811 107.522 30.541 107.919 30.9791 108.338C30.4975 108.254 30.0131 108.215 29.5287 108.148C28.9519 108.072 27.7983 107.932 27.5183 107.297H27.5127Z" fill="#263238"/>
<path d="M27.2383 114.327C24.0183 114.241 21.3583 114.106 21.1091 113.947C20.8599 113.787 20.7535 111.382 20.7031 108.436C22.0191 109.615 25.3007 112.541 27.2383 114.327Z" fill="#263238"/>
<path d="M17.2255 48.2446C17.2255 48.2446 19.7791 76.9782 20.1935 79.1706C20.2915 79.6718 20.3503 82.3878 20.3895 85.8766C20.4763 93.4954 20.4259 107.232 20.4259 107.232H32.4127C32.4127 107.232 32.0571 83.4322 31.5251 79.0502C30.9931 74.6682 27.6051 48.2502 27.6051 48.2502L17.2255 48.2446Z" fill="#37474F"/>
<path d="M31.8695 105.143C29.9991 105.104 30.5367 105.09 28.6663 105.071C27.7507 105.071 21.7363 105.012 20.8795 105.152C20.8743 105.152 20.8694 105.154 20.8657 105.158C20.862 105.161 20.8599 105.166 20.8599 105.171C20.8599 105.177 20.862 105.182 20.8657 105.185C20.8694 105.189 20.8743 105.191 20.8795 105.191C21.7363 105.331 27.7507 105.281 28.6663 105.269C30.5367 105.253 29.9991 105.239 31.8695 105.199C31.877 105.199 31.8841 105.196 31.8893 105.191C31.8946 105.186 31.8975 105.179 31.8975 105.171C31.8975 105.164 31.8946 105.157 31.8893 105.152C31.8841 105.146 31.877 105.143 31.8695 105.143Z" fill="#263238"/>
<path d="M22.7023 91.5382C22.6874 89.7985 22.6743 88.0597 22.6631 86.3218C22.6631 84.6418 22.6631 82.9618 22.5735 81.2818C22.4111 77.8742 21.7335 74.5254 21.2295 71.157C20.7255 67.7886 20.3279 64.4062 19.9555 61.021C19.5383 57.2242 19.1715 53.419 18.7823 49.6194C18.7823 49.5942 18.7375 49.5942 18.7403 49.6194C19.3003 56.4066 19.9359 63.191 20.8739 69.9362C21.1091 71.6162 21.3649 73.2906 21.6411 74.9594C21.9211 76.6394 22.2011 78.3418 22.3327 80.0526C22.4643 81.7634 22.4839 83.4126 22.5007 85.0926C22.5213 86.8323 22.539 88.5702 22.5539 90.3062C22.5903 94.1646 22.6267 100.106 22.6659 103.965C22.6688 103.978 22.6761 103.989 22.6865 103.998C22.697 104.006 22.71 104.011 22.7233 104.011C22.7367 104.011 22.7497 104.006 22.7601 103.998C22.7706 103.989 22.7778 103.978 22.7807 103.965C22.7583 100.504 22.7275 94.9794 22.7023 91.5382Z" fill="#263238"/>
<path d="M14.6971 48.2446C14.6971 48.2446 19.7791 76.9782 20.1935 79.1706C20.2915 79.6718 20.3503 82.3878 20.3895 85.8766L26.1183 48.2446H14.6971Z" fill="#263238"/>
<path d="M25.4267 115.408C24.8191 115.557 7.87073 114.131 7.26033 113.669C7.02513 113.496 7.08953 111.015 7.26033 108.019C7.26033 107.988 7.26033 107.955 7.26033 107.924C7.29393 107.308 7.33033 106.672 7.37513 106.028L7.39193 105.748C7.67193 101.428 8.06113 96.9506 8.06113 96.9506L19.3983 97.8858L18.4379 106.566L18.4015 106.91L18.2055 108.711L18.1859 108.895C18.1859 108.895 24.4271 112.342 25.0459 112.922C25.6647 113.501 26.0343 115.26 25.4267 115.408Z" fill="#AD6359"/>
<path d="M25.4267 115.408C24.8191 115.557 7.87073 114.131 7.26033 113.669C7.02513 113.496 7.08953 111.015 7.26033 108.019C7.26033 107.988 7.26033 107.955 7.26033 107.924C7.29393 107.308 7.33033 106.672 7.37513 106.028L7.39193 105.748L18.4379 106.563L18.4015 106.907L18.2055 108.708L18.1859 108.893C18.1859 108.893 24.4271 112.339 25.0459 112.919C25.6647 113.499 26.0343 115.26 25.4267 115.408Z" fill="#EBEBEB"/>
<path d="M25.4267 115.408C24.8191 115.557 7.87073 114.131 7.26033 113.669C7.02513 113.496 7.08953 111.015 7.26033 108.019C7.26033 107.988 7.26033 107.955 7.26033 107.924L18.2055 108.722L18.1859 108.907C18.1859 108.907 24.4271 112.353 25.0459 112.933C25.6647 113.513 26.0343 115.26 25.4267 115.408Z" fill="#FFC727"/>
<path d="M25.2783 114.733C22.4279 114.423 10.9003 113.443 8.05833 113.35C8.03593 113.35 8.03313 113.367 8.05833 113.37C10.8751 113.739 22.4111 114.627 25.2755 114.77C25.3455 114.784 25.3511 114.75 25.2783 114.733Z" fill="#263238"/>
<path d="M19.4151 108.853C18.2951 108.551 16.9203 108.607 15.9935 109.335C15.9571 109.363 15.9935 109.416 16.0355 109.408C17.1376 109.151 18.264 109.013 19.3955 108.996C19.4131 108.996 19.43 108.99 19.4431 108.978C19.4563 108.967 19.4649 108.951 19.4673 108.933C19.4696 108.916 19.4657 108.898 19.4561 108.884C19.4465 108.869 19.432 108.858 19.4151 108.853Z" fill="#263238"/>
<path d="M20.1879 109.411C19.0679 109.108 17.6903 109.164 16.7635 109.892C16.7299 109.92 16.7635 109.973 16.8055 109.965C17.9076 109.708 19.034 109.57 20.1655 109.553C20.1833 109.554 20.2007 109.548 20.2144 109.537C20.2282 109.525 20.2373 109.51 20.24 109.492C20.2428 109.474 20.239 109.456 20.2294 109.441C20.2198 109.426 20.2051 109.415 20.1879 109.411Z" fill="#263238"/>
<path d="M20.9579 109.968C19.8379 109.665 18.4603 109.721 17.5335 110.449C17.4999 110.477 17.5335 110.531 17.5783 110.522C18.6803 110.265 19.8068 110.127 20.9383 110.111C20.9559 110.111 20.9728 110.104 20.9859 110.093C20.9991 110.081 21.0077 110.065 21.0101 110.048C21.0124 110.03 21.0085 110.013 20.9989 109.998C20.9893 109.983 20.9748 109.973 20.9579 109.968Z" fill="#263238"/>
<path d="M21.0783 106.527C20.6891 105.88 19.8435 106.084 19.3395 106.44C18.4832 107.063 17.807 107.901 17.3795 108.87C17.3795 108.893 17.3795 108.907 17.4019 108.912C17.3993 108.934 17.4019 108.956 17.4095 108.977C17.4171 108.998 17.4294 109.016 17.4455 109.031C17.4616 109.046 17.481 109.057 17.5021 109.063C17.5233 109.069 17.5455 109.07 17.5671 109.066C18.5219 108.8 19.5803 108.635 20.4259 108.083C20.9411 107.75 21.4535 107.137 21.0783 106.527ZM18.9475 108.366C18.4799 108.509 18.0095 108.627 17.5475 108.786C17.9126 108.3 18.3023 107.833 18.7151 107.386C18.918 107.174 19.135 106.976 19.3647 106.793C19.7259 106.513 21.1035 105.978 20.8011 107.196C20.6415 107.873 19.5103 108.198 18.9531 108.366H18.9475Z" fill="#263238"/>
<path d="M14.5655 108.335C15.4587 108.809 16.5255 108.879 17.5027 109.055C17.6035 109.075 17.6651 108.971 17.6539 108.887C17.6583 108.886 17.6622 108.883 17.6655 108.88C17.6688 108.877 17.6714 108.873 17.673 108.869C17.6746 108.864 17.6752 108.86 17.6749 108.855C17.6745 108.851 17.673 108.846 17.6707 108.842C17.1609 107.919 16.4162 107.146 15.5119 106.602C14.9799 106.291 14.1119 106.165 13.7899 106.843C13.4679 107.521 14.0447 108.058 14.5655 108.335ZM14.1259 107.495C13.7143 106.311 15.1367 106.723 15.5259 106.963C15.7711 107.126 16.0049 107.304 16.2259 107.498C16.6782 107.903 17.1091 108.331 17.5167 108.781C17.0407 108.663 16.5619 108.587 16.0831 108.501C15.5063 108.363 14.3583 108.145 14.1259 107.49V107.495Z" fill="#263238"/>
<path d="M18.6899 107.879L6.71432 107.372C6.71432 107.372 9.98472 81.0914 10.0435 79.4702C10.2003 75.2702 12.9863 48.225 12.9863 48.225H27.6135C27.6135 48.225 26.6895 54.4718 25.1131 58.431C24.052 58.8024 23.0275 59.271 22.0527 59.831C22.0527 59.831 20.6807 77.7202 20.6303 79.9518C20.5183 84.3702 18.6899 107.879 18.6899 107.879Z" fill="#37474F"/>
<path d="M18.3707 105.684C16.5059 105.566 17.0435 105.575 15.1731 105.477C14.2603 105.429 8.25153 105.124 7.39193 105.227C7.37233 105.227 7.37233 105.261 7.39193 105.267C8.23193 105.443 14.2547 105.647 15.1675 105.675C17.0379 105.737 16.5031 105.701 18.3735 105.74C18.381 105.739 18.3879 105.736 18.3929 105.731C18.3979 105.725 18.4005 105.718 18.4001 105.71C18.3998 105.703 18.3965 105.696 18.3909 105.691C18.3854 105.686 18.3782 105.683 18.3707 105.684Z" fill="#263238"/>
<path d="M14.0587 49.8378C13.5155 56.6502 12.9583 63.4654 12.3339 70.2778C11.7095 77.0902 10.9787 83.9306 10.0939 90.7318C9.59834 94.5258 9.03834 99.8766 8.44754 103.662C8.44754 103.687 8.48114 103.699 8.48674 103.662C9.69354 96.9422 10.5811 88.587 11.3343 81.797C12.0875 75.007 12.7063 68.1974 13.2579 61.3878C13.5687 57.535 13.8487 53.6794 14.1455 49.8266C14.1483 49.7902 14.0783 49.7902 14.0587 49.8378Z" fill="#263238"/>
<path d="M25.6339 58.1678C24.3934 58.6221 23.1951 59.1843 22.0527 59.8478C22.0431 59.8523 22.0356 59.8604 22.0319 59.8703C22.0282 59.8803 22.0287 59.8914 22.0331 59.901C22.0376 59.9107 22.0457 59.9182 22.0557 59.9218C22.0657 59.9255 22.0767 59.9251 22.0863 59.9206C23.2931 59.4026 24.5223 58.907 25.6983 58.3218C25.7188 58.3133 25.735 58.297 25.7434 58.2765C25.7518 58.256 25.7517 58.233 25.7431 58.2126C25.7346 58.1922 25.7183 58.176 25.6978 58.1676C25.6773 58.1592 25.6544 58.1593 25.6339 58.1678Z" fill="#263238"/>
<path d="M26.0175 49.8882C26.0175 49.8462 25.9419 49.8378 25.9419 49.8882C25.9419 51.319 25.8607 52.579 25.7403 53.9202C25.6843 54.5418 25.1803 57.9746 24.1051 57.7254C23.9259 57.6834 23.8251 57.5042 23.8055 57.2326C23.8076 56.877 23.8556 56.5231 23.9483 56.1798C24.0659 55.4602 24.1639 54.7406 24.2283 54.0126C24.3534 52.6604 24.3384 51.2989 24.1835 49.9498C24.1814 49.9422 24.1768 49.9355 24.1705 49.9307C24.1641 49.926 24.1564 49.9234 24.1485 49.9234C24.1406 49.9234 24.1329 49.926 24.1266 49.9307C24.1203 49.9355 24.1157 49.9422 24.1135 49.9498C24.1454 51.8221 24.0359 53.694 23.7859 55.5498C23.6515 56.443 23.2007 57.7898 24.1359 57.9242C25.0711 58.0586 25.7039 55.813 25.8159 55.197C26.1131 53.4436 26.1809 51.6591 26.0175 49.8882Z" fill="#263238"/>
<path d="M24.1331 57.8122C24.0362 58.0433 23.9557 58.281 23.8923 58.5234C23.8216 58.7102 23.7874 58.9089 23.7915 59.1086C23.7915 59.1478 23.8447 59.1506 23.8643 59.1254C23.9757 58.9523 24.0606 58.7636 24.1163 58.5654C24.1975 58.3442 24.2843 58.1258 24.3599 57.9018C24.3718 57.8717 24.3713 57.8382 24.3584 57.8085C24.3455 57.7788 24.3214 57.7555 24.2913 57.7436C24.2613 57.7317 24.2277 57.7323 24.198 57.7451C24.1684 57.758 24.145 57.7821 24.1331 57.8122Z" fill="#263238"/>
<path d="M19.2555 51.011C19.2589 50.8613 19.2439 50.7118 19.2107 50.5658C19.2086 50.5617 19.2054 50.5582 19.2015 50.5558C19.1975 50.5534 19.193 50.5522 19.1883 50.5522C19.1837 50.5522 19.1792 50.5534 19.1752 50.5558C19.1713 50.5582 19.1681 50.5617 19.1659 50.5658C19.1363 50.6926 19.1195 50.8221 19.1155 50.9522C19.1155 51.1006 19.0819 51.2322 19.0651 51.3946C19.034 51.6975 18.9816 51.9979 18.9083 52.2934C18.7721 52.8513 18.4876 53.3621 18.0851 53.7718C17.6837 54.1667 17.2078 54.478 16.6851 54.6874C16.1066 54.8923 15.5167 55.0634 14.9183 55.1998C14.9124 55.1998 14.9067 55.2022 14.9025 55.2064C14.8983 55.2106 14.8959 55.2163 14.8959 55.2222C14.8959 55.2281 14.8983 55.2338 14.9025 55.238C14.9067 55.2422 14.9124 55.2446 14.9183 55.2446C15.5808 55.2433 16.2369 55.114 16.8503 54.8638C17.3942 54.6598 17.8892 54.344 18.3035 53.937C18.7172 53.5165 19.0077 52.9906 19.1435 52.4166C19.2121 52.1206 19.2515 51.8187 19.2611 51.515C19.2691 51.347 19.2672 51.1788 19.2555 51.011Z" fill="#263238"/>
<path d="M33.5719 23.6326C34.4735 24.7218 35.4535 27.6646 35.4171 28.4682C35.3807 29.2718 30.4275 31.0974 29.7275 30.6606C29.0275 30.2238 26.2723 26.3318 26.2471 24.8898C26.2219 23.4478 32.6367 22.507 33.5719 23.6326Z" fill="#AD6359"/>
<path d="M26.1183 21.6334C25.6647 21.1602 24.1975 19.7462 23.5451 20.3846C23.1363 20.7822 24.1219 21.8714 24.5363 22.3026C25.3903 23.1874 26.0511 24.7526 26.3591 25.517C26.6671 26.2814 28.1091 24.7722 28.1091 24.7722C28.1091 24.7722 27.3027 22.8626 26.1183 21.6334Z" fill="#AD6359"/>
<path d="M27.3223 26.371C27.3223 26.371 27.8291 27.7318 28.6551 27.701C29.4811 27.6702 29.2711 26.4998 29.2599 26.4158C29.2851 26.4886 29.7835 27.7262 30.6123 27.6114C31.4411 27.4966 31.0883 26.3458 31.0631 26.273C31.1079 26.3318 31.7463 27.113 32.3539 26.8806C33.4011 26.483 31.8303 24.4474 31.9815 23.5542C31.9815 23.5542 33.5271 23.641 33.5719 23.6326C33.5719 23.6326 32.1159 21.6726 30.8979 21.527C30.7207 21.5024 30.5404 21.5397 30.3874 21.6325C30.2344 21.7253 30.118 21.868 30.0579 22.0366C30.0579 22.0366 29.6575 21.3506 29.0023 21.4206C28.6663 21.457 28.4255 22.0282 28.4255 22.0282C28.3273 21.8774 28.1892 21.7568 28.0266 21.6797C27.864 21.6026 27.6832 21.572 27.5043 21.5914C27.0423 21.667 26.8127 22.2438 26.7875 22.4678C26.5915 24.1814 27.3223 26.371 27.3223 26.371Z" fill="#AD6359"/>
<path d="M26.8407 22.311C26.8407 22.311 26.8211 22.311 26.8183 22.311C26.5659 23.7026 26.7426 25.1382 27.3251 26.427C27.3447 26.4662 27.4175 26.4522 27.4035 26.4046C27.0193 25.0744 26.8298 23.6956 26.8407 22.311Z" fill="#263238"/>
<path d="M28.4227 22.0086C28.4227 21.9918 28.3975 21.9918 28.3947 22.0086C28.1337 23.5453 28.4317 25.1247 29.2347 26.4606C29.2655 26.5082 29.3383 26.5194 29.3075 26.4606C28.7951 25.531 28.3947 23.305 28.4227 22.0086Z" fill="#263238"/>
<path d="M31.1583 26.3458C30.3911 25.0298 30.1195 23.6018 30.0551 22.0926C30.0551 22.073 30.0271 22.0758 30.0215 22.0926C29.8535 22.8402 29.9963 23.795 30.1699 24.5314C30.3186 25.2164 30.6439 25.8506 31.1135 26.371C31.1275 26.3934 31.1583 26.3738 31.1583 26.3458Z" fill="#263238"/>
<path d="M27.3223 26.371C27.4442 26.6225 27.5885 26.8624 27.7535 27.0878C27.9051 27.3136 28.1138 27.4952 28.3583 27.6142C28.4746 27.6588 28.6033 27.6588 28.7195 27.6142C28.8384 27.5717 28.9445 27.4994 29.0275 27.4042C29.1009 27.3022 29.1523 27.1861 29.1783 27.0632C29.2044 26.9402 29.2045 26.8132 29.1787 26.6902L29.0751 26.0854L29.3831 26.6174C29.5178 26.8553 29.6898 27.0699 29.8927 27.253C29.9813 27.343 30.0881 27.413 30.2059 27.4583C30.3237 27.5037 30.4499 27.5235 30.5759 27.5162C30.6934 27.5091 30.8048 27.4618 30.8914 27.3823C30.9781 27.3027 31.0348 27.1958 31.0519 27.0794C31.0844 26.8177 31.0507 26.552 30.9539 26.3066L30.7047 25.6234L31.1611 26.1834C31.2881 26.3398 31.4339 26.4799 31.5951 26.6006C31.7448 26.7191 31.9258 26.7911 32.1159 26.8078C32.2017 26.8117 32.2868 26.7918 32.3619 26.7503C32.4371 26.7088 32.4992 26.6473 32.5415 26.5726C32.6075 26.3935 32.6221 26.1995 32.5835 26.0126C32.5033 25.5994 32.3909 25.1931 32.2475 24.7974C32.1803 24.5958 32.1131 24.3914 32.0571 24.1842C31.9885 23.9808 31.9636 23.7651 31.9843 23.5514C31.9881 23.763 32.0318 23.972 32.1131 24.1674C32.1859 24.3662 32.2671 24.5622 32.3483 24.761C32.522 25.1571 32.658 25.5686 32.7543 25.9902C32.8119 26.2167 32.8022 26.4551 32.7263 26.6762C32.6716 26.7922 32.5841 26.8895 32.4746 26.9562C32.3651 27.0229 32.2384 27.056 32.1103 27.0514C31.8737 27.0381 31.6465 26.9542 31.4579 26.8106C31.2757 26.6801 31.111 26.5267 30.9679 26.3542L31.1751 26.231C31.2959 26.5181 31.3393 26.8319 31.3011 27.141C31.2755 27.3131 31.1903 27.4706 31.0603 27.5862C30.9307 27.694 30.7717 27.7604 30.6039 27.7766C30.4438 27.7865 30.2835 27.7618 30.1337 27.7043C29.984 27.6469 29.8483 27.5579 29.7359 27.4434C29.5107 27.2415 29.3214 27.003 29.1759 26.7378L29.3803 26.665C29.4065 26.8185 29.3991 26.9759 29.3585 27.1263C29.3178 27.2766 29.2451 27.4164 29.1451 27.5358C29.0372 27.6483 28.9023 27.7313 28.7531 27.7766C28.6013 27.8235 28.4373 27.8115 28.2939 27.743C28.0364 27.6022 27.8239 27.3916 27.6807 27.1354C27.5327 26.895 27.4125 26.6386 27.3223 26.371Z" fill="#263238"/>
<path d="M29.1423 30.081C29.1423 30.081 23.8027 27.351 25.8943 25.7886C26.5131 25.3238 29.6183 24.1562 29.8647 24.775C30.1839 25.573 28.9771 26.3038 28.1483 26.6398C28.1483 26.6398 30.0943 27.3146 30.0299 28.807C30.0137 29.0805 29.9223 29.3443 29.7656 29.5691C29.609 29.7939 29.3933 29.9711 29.1423 30.081Z" fill="#AD6359"/>
<path d="M25.7291 25.9286C25.9495 25.7167 26.2006 25.5392 26.4739 25.4022C26.7455 25.2575 27.0261 25.1303 27.3139 25.0214C27.8857 24.7968 28.4759 24.6226 29.0779 24.5006C29.238 24.467 29.4022 24.4576 29.5651 24.4726C29.6637 24.4787 29.7595 24.5074 29.8451 24.5566C29.8896 24.5824 29.9294 24.6155 29.9627 24.6546C29.9957 24.6935 30.0213 24.7381 30.0383 24.7862C30.1027 24.9587 30.1027 25.1486 30.0383 25.321C29.9793 25.4783 29.892 25.6235 29.7807 25.7494C29.5698 25.9881 29.3186 26.1881 29.0387 26.3402C28.7695 26.4943 28.4886 26.6273 28.1987 26.7378V26.539C28.4181 26.6247 28.629 26.7306 28.8287 26.8554C29.0296 26.9765 29.2173 27.1182 29.3887 27.2782C29.5577 27.4427 29.7011 27.6314 29.8143 27.8382C29.9289 28.0396 30.004 28.261 30.0355 28.4906C29.9762 28.2723 29.8817 28.0652 29.7555 27.8774C29.6267 27.6955 29.4742 27.5317 29.3019 27.3902C29.129 27.2457 28.9413 27.12 28.7419 27.015C28.5482 26.9083 28.3447 26.8201 28.1343 26.7518L27.8739 26.6706L28.1259 26.553C28.399 26.4347 28.6637 26.2982 28.9183 26.1442C29.1699 25.999 29.3967 25.8147 29.5903 25.5982C29.683 25.5085 29.7513 25.3966 29.7885 25.2731C29.8258 25.1496 29.8308 25.0186 29.8031 24.8926C29.7415 24.6966 29.4083 24.705 29.1255 24.747C28.8427 24.789 28.5431 24.8646 28.2491 24.9374C27.9551 25.0102 27.6667 25.0914 27.3783 25.1838C26.7933 25.3451 26.2369 25.5964 25.7291 25.9286Z" fill="#263238"/>
<path d="M22.9963 33.945C27.7171 39.7718 34.5799 43.5462 36.2739 42.317C37.9679 41.0878 32.2587 34.6534 32.1607 34.5582C31.8275 34.239 29.3019 32.9258 24.7155 30.9938C20.2159 29.0982 20.8879 31.3438 22.9963 33.945Z" fill="#AD6359"/>
<path d="M30.0383 33.2702L26.4823 37.9462C26.4823 37.9462 23.4975 34.8662 21.9183 32.8278C20.3391 30.7894 20.4959 29.2046 24.0295 30.5206C26.0981 31.2864 28.1066 32.2055 30.0383 33.2702Z" fill="#FFC727"/>
<path d="M26.1435 36.8738C26.5775 36.2354 27.0311 35.6082 27.4959 34.995C27.7283 34.6926 27.9523 34.3846 28.1903 34.085C28.4283 33.7854 28.6999 33.4858 28.9435 33.1778C28.9603 33.1554 28.9939 33.1778 28.9771 33.2002C28.7531 33.5082 28.5515 33.8302 28.3275 34.1382C28.1035 34.4462 27.8571 34.7654 27.6191 35.079C27.1506 35.695 26.6681 36.2998 26.1715 36.8934C26.1575 36.9102 26.1183 36.8934 26.1435 36.8738Z" fill="#263238"/>
<path d="M28.1847 35.7006L26.4823 37.9406C26.4823 37.9406 23.4975 34.8606 21.9183 32.8222L21.7671 32.6234L21.7027 32.531L21.6047 32.3882C21.5207 32.265 21.4451 32.1446 21.3779 32.027C21.3527 31.985 21.3303 31.943 21.3079 31.901C21.1911 31.6885 21.0973 31.4642 21.0279 31.2318C21.0073 31.1601 20.9914 31.0872 20.9803 31.0134C20.9803 30.977 20.9803 30.9434 20.9803 30.9098C22.5315 31.985 26.1715 34.3398 28.1847 35.7006Z" fill="#263238"/>
<path d="M28.3275 51.1146C28.3275 51.1146 12.1239 51.3946 12.0287 51.2938C11.7767 51.0138 15.0499 34.3286 18.4351 30.8902C19.6307 29.675 22.0975 30.1706 22.5091 30.3694C23.4583 30.8286 24.3515 31.8198 25.0991 33.6566C26.5943 37.3302 28.5319 50.8514 28.3275 51.1146Z" fill="#FFC727"/>
<path opacity="0.1" d="M23.3183 30.9182H18.4099L18.4351 30.8902C18.5493 30.7747 18.6761 30.6723 18.8131 30.585H22.8871C23.0396 30.6842 23.1839 30.7957 23.3183 30.9182ZM23.8587 31.4782H17.9479C17.8695 31.5818 17.7939 31.6938 17.7183 31.8114H24.1163C24.0351 31.6938 23.9511 31.5902 23.8783 31.4782H23.8587ZM24.4691 32.3714H17.3795C17.3179 32.4806 17.2563 32.5926 17.1975 32.7074H24.6595C24.6007 32.5926 24.5391 32.4778 24.4747 32.3714H24.4691ZM24.9255 33.2674H16.9147L16.7551 33.6006H25.0739C25.0291 33.4858 24.9815 33.3738 24.9311 33.2702L24.9255 33.2674ZM25.2811 34.1606H16.5087L16.3659 34.4938H25.3959C25.3595 34.3902 25.3231 34.267 25.2783 34.1606H25.2811ZM25.5611 35.0538H16.1391C16.0971 35.1658 16.0523 35.275 16.0075 35.3898H25.6591L25.5611 35.0538ZM25.8019 35.947H15.8003C15.7611 36.059 15.7191 36.1682 15.6799 36.283H25.8915C25.8561 36.1692 25.8281 36.0572 25.8075 35.947H25.8019ZM26.0203 36.843H15.4783C15.4391 36.9522 15.4027 37.0642 15.3663 37.1762H26.0959L26.0203 36.843ZM26.2219 37.7362H15.1983C15.1619 37.8454 15.1283 37.9574 15.0919 38.0694H26.3143C26.2751 37.9574 26.2527 37.8454 26.2275 37.7502L26.2219 37.7362ZM26.4123 38.6294H14.9183C14.8819 38.7386 14.8483 38.8506 14.8147 38.9654H26.5019C26.4655 38.8534 26.4431 38.7414 26.4179 38.6294H26.4123ZM26.5943 39.5226H14.6383C14.6047 39.6346 14.5711 39.7466 14.5403 39.8586H26.6783L26.5943 39.5226ZM26.7679 40.4186H14.3751C14.3415 40.5306 14.3107 40.6398 14.2799 40.7518H26.8351C26.8155 40.6398 26.7959 40.5278 26.7735 40.4186H26.7679ZM26.9331 41.3118H14.1259C14.0951 41.4238 14.0643 41.5358 14.0363 41.645H27.0003C26.9807 41.533 26.9583 41.4238 26.9387 41.3118H26.9331ZM27.0927 42.205H13.8879C13.8571 42.317 13.8291 42.429 13.8011 42.541H27.1571C27.1403 42.429 27.1207 42.317 27.0983 42.205H27.0927ZM27.2523 43.101H13.6555C13.6303 43.213 13.6023 43.3222 13.5743 43.4342H27.3111C27.2943 43.325 27.2747 43.213 27.2579 43.101H27.2523ZM27.3979 43.9942H13.4343C13.4091 44.1062 13.3811 44.2182 13.3559 44.3274H27.4595C27.4427 44.2182 27.4231 44.1062 27.4035 43.9942H27.3979ZM27.5435 44.8874H13.2215C13.1963 45.0022 13.1711 45.1142 13.1431 45.2234H27.6023C27.5855 45.1114 27.5687 45.0022 27.5491 44.8874H27.5435ZM27.6863 45.7806H13.0171C12.9919 45.8926 12.9667 46.0074 12.9415 46.1166H27.7395C27.7227 46.0074 27.7059 45.8954 27.6919 45.7806H27.6863ZM27.8179 46.6766H12.8183C12.7959 46.7886 12.7707 46.9006 12.7483 47.0098H27.8683L27.8179 46.6766ZM27.9467 47.5698H12.6279C12.6055 47.6846 12.5831 47.7938 12.5607 47.903H27.9999C27.9831 47.7938 27.9691 47.6818 27.9523 47.5698H27.9467ZM28.0699 48.463H12.4515C12.4254 48.5788 12.403 48.6908 12.3843 48.799H28.1203C28.1063 48.6898 28.0783 48.5778 28.0783 48.463H28.0699ZM28.1819 49.3562H12.2807C12.2583 49.4738 12.2387 49.5858 12.2191 49.6922H28.2295C28.2183 49.5858 28.2043 49.4738 28.1875 49.3562H28.1819ZM28.2855 50.2522H12.1183C12.0987 50.3726 12.0847 50.4846 12.0679 50.5854H28.3079C28.3135 50.4874 28.3023 50.3754 28.2911 50.2522H28.2855ZM12.0119 51.1454C11.9995 51.1941 11.9995 51.2451 12.0119 51.2938C12.0875 51.3694 22.1367 51.2154 26.4179 51.1454H12.0119Z" fill="#030402"/>
<path d="M19.3591 32.9118C18.2671 34.4098 12.6671 40.6006 12.4599 41.1746C12.2527 41.7486 13.5491 43.017 13.5267 43.255C13.4427 44.2238 11.3511 50.6694 10.5139 50.0142C9.41073 49.1518 4.74033 42.975 5.40113 40.301C6.06193 37.627 16.9679 31.2066 18.6983 30.6494C20.4287 30.0922 20.4371 31.4334 19.3591 32.9118Z" fill="#AD6359"/>
<path d="M14.9603 38.5482L11.7795 34.0822C11.7795 34.0822 15.3383 31.747 17.7183 30.7502C20.0983 29.7534 21.2715 30.3078 19.0959 33.385C17.8242 35.189 16.4431 36.9133 14.9603 38.5482Z" fill="#FFC727"/>
<path d="M12.7203 33.791C13.2243 34.3753 13.7143 34.9726 14.1903 35.583C14.4255 35.8826 14.6635 36.1794 14.8903 36.4846C15.1171 36.7898 15.3411 37.1314 15.5791 37.445C15.5959 37.4674 15.5623 37.4954 15.5455 37.473C15.3047 37.193 15.0471 36.913 14.8063 36.605C14.5655 36.297 14.3191 35.989 14.0783 35.681C13.6023 35.0706 13.1403 34.4462 12.6951 33.8134C12.6783 33.7966 12.7063 33.7742 12.7203 33.791Z" fill="#263238"/>
<path d="M14.9547 38.5706C15.4419 37.9238 16.0159 37.347 16.5423 36.7338C17.0687 36.1206 17.5923 35.4878 18.0935 34.8494C18.0935 34.8494 18.1299 34.8494 18.1187 34.8662C17.8863 35.1994 17.6595 35.5354 17.4159 35.8602C17.2955 36.0198 17.1695 36.1766 17.0407 36.3334L17.2283 36.1794C17.4203 36.0351 17.6193 35.9005 17.8247 35.7762C17.8247 35.7762 17.8471 35.7762 17.8247 35.793C17.6465 35.9579 17.4596 36.113 17.2647 36.2578C17.1247 36.3642 16.9847 36.4622 16.8363 36.5602L16.6123 36.8402C16.1236 37.4711 15.5791 38.0568 14.9855 38.5902C14.9687 38.6154 14.9379 38.5902 14.9547 38.5706Z" fill="#263238"/>
<path d="M13.2523 52.4614C13.9999 51.9546 12.9723 51.361 12.9723 51.361C12.9723 51.361 14.6523 51.8594 15.2123 51.039C15.7723 50.2186 14.4955 49.5746 14.4059 49.5242C14.4955 49.5522 16.0523 49.9666 16.5395 49.0846C17.0267 48.2026 15.6603 47.7098 15.5707 47.6846C15.6631 47.6846 16.8755 47.6314 17.0939 46.8754C17.4663 45.579 13.9831 45.4278 13.2327 44.6354C13.2327 44.6354 13.5687 42.9218 13.5967 42.8742C13.3714 43.2588 13.0218 43.555 12.6055 43.7142C11.8523 43.927 11.1747 44.0502 10.8695 44.4114C10.7271 44.5695 10.6394 44.7691 10.6192 44.9809C10.599 45.1927 10.6475 45.4053 10.7575 45.5874C10.7575 45.5874 9.80553 45.4782 9.39953 46.1614C9.19233 46.5114 9.57033 47.1582 9.57033 47.1582C9.3549 47.1428 9.13938 47.1869 8.9473 47.2857C8.75522 47.3844 8.59396 47.534 8.48113 47.7182C8.22073 48.2222 8.64073 48.7906 8.64073 48.7906C8.64073 48.7906 7.87913 49.0706 7.78113 49.6754C7.59353 50.8878 11.6507 53.5422 13.2523 52.4614Z" fill="#AD6359"/>
<path d="M8.70793 48.8942C8.70793 48.8942 8.67713 48.8942 8.68833 48.9138C9.84896 50.1641 11.3628 51.0313 13.0283 51.4002C13.0815 51.4002 13.1207 51.3274 13.0647 51.305C11.5033 50.7167 10.0357 49.9046 8.70793 48.8942Z" fill="#263238"/>
<path d="M9.55913 47.147C9.55729 47.1455 9.55518 47.1444 9.55292 47.1438C9.55066 47.1431 9.54829 47.1429 9.54595 47.1432C9.54361 47.1434 9.54134 47.1442 9.53928 47.1453C9.53722 47.1464 9.5354 47.148 9.53393 47.1498C9.53246 47.1516 9.53136 47.1537 9.53071 47.156C9.53005 47.1583 9.52985 47.1606 9.53011 47.163C9.53037 47.1653 9.53109 47.1676 9.53222 47.1696C9.53336 47.1717 9.53489 47.1735 9.53673 47.175C10.8306 48.5393 12.5694 49.3963 14.4395 49.5914C14.5039 49.5914 14.5683 49.5354 14.4927 49.5242C13.2383 49.3338 10.7911 48.1102 9.55913 47.147Z" fill="#263238"/>
<path d="M15.7219 47.6426C13.8963 47.4354 12.3199 46.6626 10.8163 45.6378C10.7967 45.6378 10.7799 45.6518 10.7911 45.6686C11.3903 46.3714 12.4179 46.9258 13.2551 47.2898C14.0239 47.6418 14.8717 47.7857 15.7135 47.707C15.7583 47.7042 15.7583 47.6482 15.7219 47.6426Z" fill="#263238"/>
<path d="M8.60433 48.7906C8.45225 48.6375 8.34557 48.4452 8.29614 48.2352C8.24672 48.0251 8.25647 47.8055 8.32433 47.6006C8.41204 47.4077 8.56604 47.2527 8.75833 47.1638C8.98754 47.0845 9.23264 47.0624 9.47233 47.0994C9.33868 46.911 9.26527 46.6866 9.26177 46.4557C9.25827 46.2247 9.32485 45.9981 9.45273 45.8058C9.59613 45.6413 9.7959 45.5364 10.0127 45.5118C10.2602 45.4878 10.5098 45.4972 10.7547 45.5398C10.6527 45.4197 10.5801 45.2774 10.5426 45.1243C10.5052 44.9712 10.504 44.8115 10.5391 44.6578C10.5855 44.4909 10.6705 44.3373 10.7872 44.2094C10.904 44.0814 11.0492 43.9828 11.2111 43.9214C11.5921 43.7835 11.9876 43.6895 12.3899 43.6414C12.5964 43.6104 12.7985 43.555 12.9919 43.4762C13.2003 43.3808 13.3751 43.2247 13.4931 43.0282C13.5155 42.9946 13.5155 43.0282 13.4931 43.059C13.4147 43.1924 13.3144 43.3117 13.1963 43.4118C13.0738 43.5186 12.9372 43.6081 12.7903 43.6778C12.4259 43.8153 12.0514 43.9248 11.6703 44.0054C11.3363 44.0944 11.0409 44.2912 10.8303 44.5654C10.7341 44.7105 10.68 44.8794 10.674 45.0535C10.6681 45.2275 10.7106 45.3997 10.7967 45.551C10.7967 45.551 10.7967 45.5874 10.7715 45.5846C10.548 45.5836 10.3251 45.61 10.1079 45.663C9.92778 45.7061 9.7654 45.8039 9.64313 45.943C9.52985 46.1204 9.46506 46.3245 9.45524 46.5347C9.44541 46.745 9.49089 46.9542 9.58713 47.1414C9.34566 47.1576 9.10928 47.2183 8.88993 47.3206C8.74753 47.4082 8.63294 47.5344 8.55953 47.6846C8.47566 47.8576 8.44146 48.0505 8.46074 48.2419C8.48002 48.4332 8.55203 48.6154 8.66873 48.7682C8.66981 48.7728 8.66981 48.7776 8.66873 48.7822C8.66873 48.7822 8.42513 48.883 8.41393 48.883C8.47544 48.8483 8.53903 48.8175 8.60433 48.7906Z" fill="#263238"/>
<path d="M22.5035 32.853C21.6131 33.1806 19.8715 31.9682 19.1127 30.9098C19.0623 30.837 19.0119 27.687 18.9391 27.0654C18.9223 26.9366 22.9627 27.547 22.9627 27.547C22.8336 28.3523 22.8035 29.1704 22.8731 29.983C22.8843 30.0726 23.3631 32.5394 22.5035 32.853Z" fill="#AD6359"/>
<path d="M22.9627 27.547C22.9627 27.547 22.9179 27.8074 22.8815 28.1938C21.7615 29.5686 19.9639 29.7142 19.0511 29.6834C19.0203 28.7062 18.9839 27.4434 18.9391 27.0654C18.9223 26.9394 22.9627 27.547 22.9627 27.547Z" fill="#263238"/>
<path d="M18.9559 20.3538C18.9559 20.3538 17.6679 20.8522 17.4047 22.1402C17.1415 23.4282 17.4047 24.7946 17.5111 24.8646C17.6175 24.9346 18.9559 20.3538 18.9559 20.3538Z" fill="#263238"/>
<path d="M24.1583 22.017C24.4887 23.4366 23.4863 27.4098 22.4335 28.2386C20.9103 29.4426 18.5471 29.409 17.5559 27.6086C16.5983 25.8642 17.9983 20.7122 19.1603 19.9702C20.8683 18.881 23.6627 19.917 24.1583 22.017Z" fill="#AD6359"/>
<path d="M20.1627 24.2486C20.1627 24.2486 20.1823 24.2654 20.1795 24.2766C20.1235 24.5566 20.1039 24.873 20.3391 25.0074C20.3391 25.0074 20.3391 25.0242 20.3391 25.0214C20.0367 24.9262 20.0647 24.4978 20.1627 24.2486Z" fill="#263238"/>
<path d="M20.4567 24.0022C20.9075 24.0442 20.7871 24.9402 20.3727 24.901C19.9583 24.8618 20.0815 23.9658 20.4567 24.0022Z" fill="#263238"/>
<path d="M18.6003 23.9714C18.6003 23.9714 18.5779 23.9714 18.5751 23.9938C18.5499 24.2738 18.4743 24.5846 18.2111 24.6462V24.663C18.5247 24.6574 18.6199 24.2374 18.6003 23.9714Z" fill="#263238"/>
<path d="M18.3903 23.6494C17.9479 23.5598 17.7995 24.4502 18.2111 24.5342C18.6227 24.6182 18.7599 23.725 18.3903 23.6494Z" fill="#263238"/>
<path d="M20.1011 26.5642C20.0283 26.623 19.9527 26.707 19.8519 26.707C19.7483 26.6962 19.6482 26.6638 19.5579 26.6118C19.5923 26.6703 19.642 26.7182 19.7018 26.7503C19.7616 26.7824 19.829 26.7975 19.8967 26.7938C19.9558 26.7865 20.0109 26.7605 20.0542 26.7198C20.0975 26.679 20.1267 26.6255 20.1375 26.567C20.1375 26.567 20.1123 26.5502 20.1011 26.5642Z" fill="#263238"/>
<path d="M18.8047 25.2874C18.8047 25.2874 18.6871 25.6906 18.6591 25.8866C19.0398 25.9423 19.4104 26.0526 19.7595 26.2142C19.8407 26.2534 19.8519 26.1834 19.7595 26.1106C19.499 25.899 19.1811 25.7703 18.8467 25.741C18.8467 25.685 19.0399 25.1222 19.0091 25.1138C18.8579 25.1051 18.7062 25.1174 18.5583 25.1502C18.7767 24.3102 19.1183 23.4926 19.3367 22.6302C19.3367 22.5994 19.3003 22.5826 19.2863 22.6078C18.8823 23.463 18.5635 24.3558 18.3343 25.2734C18.2979 25.3966 18.7207 25.3098 18.8047 25.2874Z" fill="#263238"/>
<path d="M20.7983 23.697C20.6919 23.6298 20.6079 23.5486 20.5183 23.473C20.4287 23.3974 20.3111 23.3274 20.2691 23.193C20.2602 23.1525 20.2653 23.1102 20.2836 23.0731C20.3019 23.0359 20.3324 23.0061 20.3699 22.9886C20.4487 22.9628 20.533 22.9588 20.6138 22.9771C20.6947 22.9953 20.7691 23.0351 20.8291 23.0922C20.9706 23.1872 21.0706 23.3323 21.1091 23.4982C21.1165 23.5372 21.1121 23.5775 21.0963 23.6139C21.0806 23.6504 21.0544 23.6813 21.0209 23.7026C20.9875 23.724 20.9484 23.7349 20.9088 23.7339C20.8691 23.7329 20.8306 23.72 20.7983 23.697Z" fill="#263238"/>
<path d="M18.1943 22.6638C18.3175 22.6442 18.4295 22.6106 18.5499 22.5798C18.6796 22.5687 18.8019 22.5145 18.8971 22.4258C18.9221 22.3927 18.9356 22.3524 18.9356 22.311C18.9356 22.2696 18.9221 22.2292 18.8971 22.1962C18.8358 22.1403 18.7606 22.1018 18.6794 22.0846C18.5982 22.0674 18.5139 22.0721 18.4351 22.0982C18.2669 22.1263 18.1151 22.2162 18.0095 22.3502C17.9882 22.3818 17.9763 22.4187 17.9751 22.4568C17.974 22.4949 17.9836 22.5325 18.003 22.5653C18.0223 22.5981 18.0505 22.6248 18.0844 22.6422C18.1183 22.6597 18.1564 22.6671 18.1943 22.6638Z" fill="#263238"/>
<path d="M23.4975 25.4106C22.6743 25.3294 23.1223 21.6978 23.1223 21.6978C22.6142 21.8709 22.0826 21.9653 21.5459 21.9778C21.0037 21.9587 20.4655 21.8779 19.9415 21.737C19.8295 21.695 21.3163 21.275 21.3163 21.275C21.3163 21.275 17.6595 21.5942 17.5363 20.9054C17.4915 20.6674 18.1719 18.5002 21.2071 18.6374C23.4471 18.7382 24.4915 21.079 24.4915 21.079C24.4915 21.079 25.5807 22.2914 25.3931 22.8402C25.0739 23.8034 24.3711 25.4974 23.4975 25.4106Z" fill="#263238"/>
<path d="M22.9991 25.4302C22.9991 25.4302 24.0211 24.2094 24.5839 24.5902C25.1467 24.971 24.3039 26.7882 23.5815 26.987C23.4915 27.0183 23.3962 27.0311 23.3011 27.0246C23.206 27.0182 23.1132 26.9927 23.0283 26.9495C22.9433 26.9064 22.868 26.8466 22.8067 26.7736C22.7454 26.7007 22.6994 26.6161 22.6715 26.525L22.9991 25.4302Z" fill="#AD6359"/>
<path d="M36.6379 42.107C38.9115 40.3514 36.7387 31.439 35.4171 28.1574C35.0279 27.1914 28.8539 28.9974 29.1423 30.081C30.7915 36.2102 34.1487 44.0306 36.6379 42.107Z" fill="#AD6359"/>
<path d="M30.1643 33.4438L30.8447 35.1238C31.0771 35.6838 31.3039 36.2438 31.5559 36.8038C31.8079 37.3638 32.0515 37.9042 32.3091 38.4502C32.5667 38.9962 32.8523 39.531 33.1323 40.0686C32.7781 39.5753 32.4554 39.06 32.1663 38.5258C31.8863 37.991 31.6063 37.4422 31.3627 36.8878C31.1191 36.3334 30.8951 35.7678 30.6935 35.191C30.4919 34.6142 30.3183 34.0346 30.1643 33.4438Z" fill="#263238"/>
<path d="M29.7585 15.7282C29.7855 16.0431 29.7186 16.359 29.5661 16.6358C29.4137 16.9127 29.1827 17.1382 28.9022 17.2838C28.6217 17.4295 28.3043 17.4887 27.9901 17.454C27.676 17.4193 27.3791 17.2923 27.1371 17.089C26.8951 16.8857 26.7188 16.6153 26.6305 16.3118C26.5421 16.0084 26.5457 15.6855 26.6407 15.3841C26.7358 15.0827 26.918 14.8162 27.1644 14.6183C27.4109 14.4204 27.7104 14.2999 28.0253 14.2722C28.2347 14.2538 28.4458 14.2768 28.6463 14.34C28.8468 14.4033 29.0329 14.5054 29.1939 14.6407C29.3549 14.7759 29.4876 14.9416 29.5845 15.1282C29.6814 15.3148 29.7405 15.5187 29.7585 15.7282Z" fill="white"/>
<path d="M29.7585 15.7282C29.7931 16.1569 29.6621 16.5826 29.3922 16.9176C29.1224 17.2525 28.7344 17.4712 28.3081 17.5286C28.076 17.5752 27.8366 17.5722 27.6057 17.5198C27.3748 17.4674 27.1576 17.3668 26.9683 17.2246C26.7791 17.0823 26.622 16.9017 26.5074 16.6945C26.3928 16.4874 26.3233 16.2583 26.3035 16.0224C26.2836 15.7864 26.3138 15.549 26.3922 15.3256C26.4705 15.1021 26.5952 14.8978 26.758 14.7259C26.9209 14.5541 27.1182 14.4186 27.3371 14.3283C27.5559 14.2381 27.7914 14.1951 28.0281 14.2022C28.4568 14.1876 28.8749 14.3375 29.1967 14.6212C29.5184 14.9049 29.7194 15.301 29.7585 15.7282ZM29.7585 15.7282C29.7406 15.5222 29.6812 15.322 29.5838 15.1396C29.4864 14.9572 29.3532 14.7964 29.192 14.6669C29.0308 14.5374 28.8451 14.4419 28.6461 14.3861C28.447 14.3303 28.2387 14.3154 28.0337 14.3422C27.6417 14.3926 27.2844 14.5925 27.0365 14.9001C26.7885 15.2078 26.669 15.5993 26.703 15.993C26.7369 16.3867 26.9218 16.7521 27.2188 17.0126C27.5158 17.2732 27.9021 17.409 28.2969 17.3914C28.5036 17.3827 28.7065 17.3323 28.8932 17.243C29.0799 17.1538 29.2465 17.0276 29.3831 16.8722C29.5197 16.7168 29.6234 16.5352 29.6879 16.3386C29.7524 16.142 29.7764 15.9344 29.7585 15.7282Z" fill="#263238"/>
<path d="M26.2809 18.6766C26.2957 18.8521 26.2583 19.028 26.1732 19.1821C26.0881 19.3363 25.9592 19.4617 25.8028 19.5426C25.6464 19.6235 25.4696 19.6562 25.2946 19.6366C25.1196 19.6171 24.9544 19.546 24.8198 19.4325C24.6851 19.3191 24.5872 19.1682 24.5383 18.9991C24.4894 18.8299 24.4917 18.6501 24.545 18.4823C24.5983 18.3145 24.7002 18.1662 24.8377 18.0563C24.9752 17.9463 25.1423 17.8797 25.3177 17.8646C25.4343 17.8543 25.5519 17.8671 25.6635 17.9024C25.7752 17.9376 25.8788 17.9946 25.9683 18.0701C26.0579 18.1456 26.1316 18.238 26.1852 18.3421C26.2389 18.4462 26.2714 18.5599 26.2809 18.6766Z" fill="white"/>
<path d="M26.2809 18.6766C26.2966 18.8688 26.2541 19.0612 26.159 19.2289C26.0639 19.3966 25.9204 19.5318 25.7474 19.6168C25.5744 19.7019 25.3798 19.7329 25.1889 19.7059C24.998 19.6788 24.8197 19.5949 24.6771 19.4651C24.5346 19.3353 24.4344 19.1656 24.3896 18.9781C24.3448 18.7906 24.3574 18.5939 24.4259 18.4137C24.4944 18.2335 24.6156 18.0781 24.7736 17.9677C24.9317 17.8572 25.1193 17.797 25.3121 17.7946C25.5547 17.7936 25.7888 17.8837 25.9682 18.047C26.1476 18.2103 26.2591 18.435 26.2809 18.6766ZM26.2809 18.6766C26.2717 18.563 26.2389 18.4526 26.1846 18.3524C26.1303 18.2521 26.0558 18.1643 25.9657 18.0945C25.8756 18.0247 25.7719 17.9744 25.6613 17.9469C25.5507 17.9194 25.4356 17.9152 25.3233 17.9346C25.1656 17.9613 25.0191 18.0333 24.9017 18.1419C24.7843 18.2505 24.7011 18.3909 24.6622 18.546C24.6233 18.7011 24.6304 18.8642 24.6826 19.0153C24.7349 19.1664 24.83 19.2991 24.9564 19.397C25.0828 19.4949 25.235 19.554 25.3944 19.5668C25.5538 19.5797 25.7135 19.5458 25.854 19.4694C25.9944 19.393 26.1096 19.2774 26.1854 19.1366C26.2612 18.9958 26.2944 18.836 26.2809 18.6766Z" fill="#263238"/>
<path d="M41.7033 8.29142C41.8519 9.52063 41.5067 10.7586 40.7434 11.7335C39.9801 12.7084 38.8611 13.3405 37.6321 13.491C36.8232 13.5917 36.0022 13.4768 35.2521 13.1578C34.8862 13.6367 34.4148 14.0248 33.8746 14.292C33.3343 14.5591 32.7398 14.6981 32.1371 14.6981C31.5344 14.6981 30.9398 14.5591 30.3996 14.292C29.8593 14.0248 29.388 13.6367 29.0221 13.1578C28.8499 13.2087 28.6739 13.2452 28.4957 13.267C27.886 13.3415 27.2678 13.2375 26.716 12.9676C26.1642 12.6978 25.7026 12.2737 25.3869 11.7468C25.0713 11.2199 24.9153 10.6127 24.9378 9.99893C24.9603 9.38513 25.1603 8.79102 25.5137 8.28862C24.8256 7.4132 24.4729 6.32076 24.5193 5.20827C24.5656 4.09578 25.0078 3.03643 25.7663 2.22124C26.5247 1.40604 27.5494 0.888625 28.6557 0.762289C29.762 0.635952 30.877 0.909006 31.7997 1.53222C32.2325 0.994084 32.7997 0.579832 33.4441 0.331386C34.0884 0.0829403 34.7869 0.00911795 35.469 0.11739C36.151 0.225663 36.7923 0.512187 37.328 0.947965C37.8637 1.38374 38.2748 1.95331 38.5197 2.59902C38.6833 2.54399 38.8522 2.50645 39.0237 2.48702C39.5414 2.42496 40.0658 2.52219 40.5268 2.76574C40.9879 3.00929 41.3638 3.38759 41.6044 3.85022C41.845 4.31284 41.9388 4.83781 41.8735 5.35514C41.8081 5.87247 41.5866 6.35758 41.2385 6.74582C41.4833 7.2296 41.6406 7.75285 41.7033 8.29142Z" fill="white"/>
<path d="M41.7033 8.29142C41.8489 9.5202 41.5082 10.7572 40.7541 11.7382C40.5013 12.0578 40.2097 12.3446 39.8861 12.5922C39.2307 13.0882 38.4573 13.4049 37.6423 13.511C36.8272 13.617 35.9986 13.5088 35.2381 13.197H35.2829C34.9149 13.6851 34.4392 14.0816 33.8928 14.3555C33.3464 14.6294 32.7441 14.7734 32.1329 14.7762C31.5188 14.7784 30.9124 14.6395 30.3605 14.3702C29.8088 14.0963 29.3256 13.702 28.9465 13.2166L29.0473 13.2502C28.3958 13.4469 27.6994 13.4372 27.0537 13.2222C26.405 13.0081 25.8399 12.5958 25.4381 12.0434C25.2414 11.7657 25.0858 11.4611 24.9761 11.139C24.8712 10.815 24.8155 10.4771 24.8109 10.1366C24.8048 9.45029 25.0122 8.77904 25.4045 8.21582V8.37262C24.6883 7.47598 24.323 6.3493 24.3769 5.20302C24.4073 4.34916 24.6669 3.51921 25.1286 2.80027C25.5902 2.08133 26.2369 1.49991 27.0007 1.11701C27.7645 0.734105 28.6172 0.563845 29.4695 0.624093C30.3218 0.684341 31.1421 0.972875 31.8445 1.45942L31.7213 1.47622C32.1659 0.928863 32.7476 0.508945 33.407 0.25912C34.0665 0.00929517 34.7804 -0.0615372 35.4761 0.0538189C36.1676 0.168553 36.8165 0.463806 37.3573 0.909734C37.8982 1.35566 38.3117 1.93646 38.5561 2.59342L38.5197 2.57382C39.0668 2.39588 39.6575 2.40375 40.1997 2.59622C40.5983 2.73879 40.9556 2.97751 41.2399 3.29122C41.5242 3.60493 41.7267 3.98394 41.8294 4.39464C41.9322 4.80535 41.932 5.23506 41.8289 5.64568C41.7258 6.0563 41.523 6.43514 41.2385 6.74862C41.4835 7.23132 41.6409 7.75369 41.7033 8.29142ZM41.7033 8.29142C41.6372 7.75303 41.476 7.23065 41.2273 6.74862C41.6078 6.3309 41.8383 5.79832 41.8824 5.23499C41.9266 4.67165 41.7817 4.10968 41.4709 3.63782C41.1635 3.16725 40.7085 2.81211 40.1774 2.62814C39.6463 2.44418 39.0691 2.44181 38.5365 2.62142H38.5085V2.59342C38.26 1.95772 37.8498 1.39792 37.3185 0.969419C36.7869 0.541665 36.151 0.263311 35.4761 0.163019C34.8043 0.06269 34.118 0.139916 33.4853 0.38702C32.8565 0.636675 32.3049 1.04819 31.8865 1.57982L31.8333 1.64702L31.7605 1.59662C30.8592 0.995935 29.7736 0.735584 28.6979 0.862158C27.6222 0.988731 26.6266 1.49397 25.8894 2.28745C25.1521 3.08094 24.7213 4.11088 24.674 5.19296C24.6267 6.27505 24.9661 7.33865 25.6313 8.19342L25.6929 8.27182L25.6341 8.35302C25.2683 8.86941 25.0725 9.48699 25.0741 10.1198C25.0785 10.4343 25.1285 10.7465 25.2225 11.0466C25.3207 11.3462 25.4632 11.6293 25.6453 11.8866C26.0158 12.4048 26.5379 12.7954 27.1397 13.0045C27.7414 13.2136 28.3932 13.231 29.0053 13.0542L29.0697 13.0374L29.1061 13.0878C29.4624 13.557 29.9199 13.9398 30.4445 14.2078C31.2433 14.6125 32.158 14.7265 33.0316 14.5303C33.9053 14.3341 34.6834 13.8399 35.2325 13.1326L35.2521 13.1074H35.2801C36.0262 13.4302 36.8444 13.5499 37.6517 13.4546C38.4638 13.3548 39.2358 13.045 39.8917 12.5558C40.2148 12.313 40.5064 12.0308 40.7597 11.7158C41.0084 11.3936 41.2162 11.0419 41.3785 10.6686C41.6893 9.91731 41.8012 9.09857 41.7033 8.29142Z" fill="#263238"/>
<path d="M33.7205 8.43703C33.7146 8.09625 33.7755 7.75762 33.8997 7.44023C34.0557 7.10714 34.3189 6.83601 34.6473 6.67023C34.7621 6.60023 34.8993 6.52463 35.0673 6.43783C35.2373 6.34827 35.3994 6.24429 35.5517 6.12703C35.7083 6.00796 35.8444 5.86421 35.9549 5.70143C36.0654 5.5358 36.123 5.34052 36.1201 5.14143C36.123 4.99609 36.0913 4.85214 36.0277 4.72143C35.9702 4.60439 35.8892 4.50048 35.7897 4.41623C35.6886 4.33193 35.5714 4.26906 35.4453 4.23143C35.3159 4.1894 35.1809 4.16768 35.0449 4.16703C34.8893 4.16413 34.7348 4.1937 34.5913 4.25383C34.46 4.30789 34.3366 4.37947 34.2245 4.46663C34.1198 4.55419 34.0258 4.65381 33.9445 4.76343C33.8642 4.86218 33.7903 4.96599 33.7233 5.07423L32.7377 4.39383C32.8332 4.16646 32.9657 3.95643 33.1297 3.77223C33.2874 3.59059 33.4726 3.43471 33.6785 3.31023C33.8885 3.18641 34.1147 3.09219 34.3505 3.03023C34.5944 2.9659 34.8458 2.93389 35.0981 2.93503C35.3825 2.9365 35.6653 2.97797 35.9381 3.05823C36.2128 3.14018 36.4687 3.27527 36.6913 3.45583C36.9206 3.64515 37.1059 3.8821 37.2345 4.15023C37.3795 4.46802 37.4503 4.81462 37.4417 5.16383C37.4451 5.37959 37.4168 5.59469 37.3577 5.80223C37.304 5.98219 37.2218 6.15236 37.1141 6.30623C37.0081 6.45797 36.8829 6.59538 36.7417 6.71503C36.5882 6.8436 36.4253 6.96059 36.2545 7.06503L35.8009 7.32543C35.6556 7.40627 35.5178 7.49997 35.3893 7.60543C35.2652 7.70218 35.1599 7.82079 35.0785 7.95543C34.9942 8.10159 34.9525 8.26841 34.9581 8.43703H33.7205ZM33.7429 11.0746V9.51223H34.9973V11.0746H33.7429Z" fill="#FFC727"/>
<path d="M30.9177 5.51381C30.9952 5.84539 31.0047 6.18924 30.9457 6.52461C30.8658 6.88116 30.6686 7.2006 30.3857 7.43181C30.2877 7.52141 30.1673 7.62501 30.0217 7.74541C29.8736 7.8682 29.7359 8.00306 29.6101 8.14861C29.4818 8.29695 29.3787 8.46531 29.3049 8.64701C29.2309 8.83203 29.2153 9.03524 29.2601 9.22941C29.2855 9.37131 29.3451 9.50489 29.4337 9.61861C29.514 9.72232 29.6151 9.80815 29.7305 9.87061C29.8467 9.93287 29.9743 9.97097 30.1057 9.98261C30.2414 9.99494 30.3782 9.98739 30.5117 9.96021C30.6641 9.93099 30.8089 9.87097 30.9373 9.78381C31.0544 9.70457 31.1608 9.61045 31.2537 9.50381C31.3433 9.39686 31.4195 9.27931 31.4805 9.15381C31.5377 9.04022 31.5882 8.92335 31.6317 8.80381L32.7349 9.26861C32.6898 9.51103 32.6036 9.74397 32.4801 9.95741C32.3603 10.1659 32.2092 10.3548 32.0321 10.5174C31.8523 10.6824 31.6507 10.8219 31.4329 10.9318C31.2077 11.045 30.9686 11.1278 30.7217 11.1782C30.4403 11.238 30.1515 11.256 29.8649 11.2314C29.5794 11.21 29.3013 11.131 29.0473 10.999C28.7852 10.8623 28.5552 10.6714 28.3725 10.439C28.0419 9.97588 27.8789 9.41395 27.9105 8.8458C27.926 8.65963 27.9714 8.47716 28.0449 8.3054C28.1168 8.13507 28.211 7.97502 28.3249 7.82941C28.4483 7.67144 28.5831 7.52265 28.7281 7.38421C28.8569 7.26661 28.9885 7.14901 29.1173 7.03701C29.2418 6.92592 29.3552 6.80309 29.4561 6.67021C29.5545 6.54895 29.6312 6.4116 29.6829 6.26421C29.734 6.1037 29.7398 5.93221 29.6997 5.76861L30.9177 5.51381ZM30.3577 2.93781L30.6797 4.46661L29.4505 4.72421L29.1285 3.19541L30.3577 2.93781Z" fill="#FFC727"/>
</svg>
