<svg width="500" height="500" viewBox="0 0 500 500" fill="none" xmlns="http://www.w3.org/2000/svg">
<path d="M402.071 353.471H437.229V342.281H402.071V353.471Z" fill="#EBEBEB"/>
<path d="M269.229 262.347H304.387V251.157H269.229V262.347Z" fill="#EBEBEB"/>
<path d="M421.683 367.581C427.522 367.482 442.494 367.233 448.13 367.168L456.841 367.125L456.385 367.581L456.341 356.391L456.84 356.89C451.002 356.872 436.113 356.818 430.472 356.737L421.683 356.628L421.92 356.391L421.683 367.581ZM421.683 367.581L421.446 356.391L421.441 356.157L421.684 356.154C426.07 356.096 434.878 355.995 439.263 355.96L456.842 355.892L457.344 355.89L457.342 356.391L457.298 367.581L457.296 368.039L456.842 368.037L447.974 367.994C442.372 367.933 427.467 367.68 421.683 367.581Z" fill="#EBEBEB"/>
<path d="M254.499 417.945C260.338 417.846 275.31 417.597 280.946 417.532L289.657 417.489L289.201 417.945L289.157 406.755L289.656 407.254C283.818 407.236 268.928 407.182 263.288 407.101L254.499 406.992L254.736 406.755L254.499 417.945ZM254.499 417.945L254.262 406.755L254.257 406.521L254.499 406.518C258.885 406.46 267.694 406.359 272.078 406.324L289.657 406.256L290.158 406.254L290.156 406.755L290.112 417.945L290.11 418.403L289.656 418.401L280.788 418.358C275.187 418.297 260.283 418.044 254.499 417.945Z" fill="#EBEBEB"/>
<path d="M274.111 432.055C279.95 431.956 294.922 431.707 300.558 431.642L309.269 431.599L308.813 432.055L308.769 420.865L309.268 421.364C303.43 421.346 288.54 421.292 282.9 421.211L274.111 421.102L274.348 420.865L274.111 432.055ZM274.111 432.055L273.874 420.865L273.869 420.631L274.111 420.628C278.497 420.57 287.305 420.469 291.69 420.434L309.269 420.366L309.77 420.364L309.768 420.865L309.724 432.055L309.722 432.513L309.268 432.511L300.4 432.468C294.799 432.407 279.895 432.154 274.111 432.055Z" fill="#EBEBEB"/>
<path d="M293.645 417.946H328.803V406.756H293.645V417.946Z" fill="#EBEBEB"/>
<path d="M43.1604 367.581H78.3174V356.391H43.1604V367.581Z" fill="#EBEBEB"/>
<path d="M62.7712 60.9768L97.9292 60.9768V49.7868H62.7712V60.9768Z" fill="#EBEBEB"/>
<path d="M43.159 75.087C48.998 74.988 63.97 74.739 69.606 74.674L78.317 74.631L77.861 75.087L77.817 63.897L78.316 64.396C72.478 64.378 57.588 64.324 51.948 64.243L43.159 64.134L43.396 63.897L43.159 75.087ZM43.159 75.087L42.922 63.897L42.917 63.663L43.159 63.66C47.545 63.602 56.354 63.501 60.738 63.466L78.317 63.398L78.819 63.396L78.817 63.897L78.773 75.087L78.771 75.545L78.317 75.543L69.449 75.5C63.848 75.438 48.943 75.186 43.159 75.087Z" fill="#EBEBEB"/>
<path d="M402.071 60.977C407.91 60.879 422.882 60.629 428.518 60.564L437.229 60.521L436.773 60.977L436.729 49.787L437.228 50.286L419.649 50.218C415.272 50.183 406.447 50.082 402.07 50.024L402.307 49.787L402.071 60.977ZM402.071 60.977L401.834 49.787L401.829 49.553L402.072 49.55C406.458 49.492 415.267 49.391 419.651 49.356L437.23 49.288L437.731 49.286L437.729 49.787L437.685 60.977L437.683 61.435L437.229 61.433L428.361 61.39C422.76 61.328 407.855 61.076 402.071 60.977Z" fill="#EBEBEB"/>
<path d="M299.646 291.504V462.212H402.84V291.504H299.646ZM393.471 399.211H309.016V354.772H393.471V399.211ZM393.471 344.191H309.016V299.752H393.471V344.191Z" fill="#DBDBDB"/>
<path d="M449.505 291.504H402.844V462.207H449.505V291.504Z" fill="#EBEBEB"/>
<path d="M329.086 299.748H309.017V344.185H329.086V299.748Z" fill="#EBEBEB"/>
<path d="M393.472 409.127H309.544V451.495H393.472V409.127Z" stroke="#EBEBEB" stroke-width="0.5" stroke-miterlimit="10"/>
<path d="M359.844 421.046H343.173V427.139H359.844V421.046Z" fill="#EBEBEB"/>
<path d="M329.086 354.776H309.017V399.213H329.086V354.776Z" fill="#EBEBEB"/>
<path d="M381.919 399.21V358.242H367.799V399.21H381.919Z" fill="#A6A6A6"/>
<path d="M381.92 392.632V383.793H367.8V392.632H381.92Z" fill="#DBDBDB"/>
<path d="M381.919 376.68V371.436H367.799V376.68H381.919Z" fill="#DBDBDB"/>
<path d="M410.497 257.173H374.815V291.461H410.497V257.173Z" fill="#EBEBEB"/>
<path d="M424.057 257.173H410.497V291.461H424.057V257.173Z" fill="#C7C7C7"/>
<path d="M374.815 274.317H410.497L382.63 275.199L374.815 274.317Z" fill="#C7C7C7"/>
<path d="M410.497 287.319H374.815L402.682 288.201L410.497 287.319Z" fill="#C7C7C7"/>
<path d="M374.815 264.733H397.417L377.325 265.453L374.815 264.733Z" fill="#C7C7C7"/>
<path d="M410.497 282.271H387.895L407.987 282.991L410.497 282.271Z" fill="#C7C7C7"/>
<path d="M383.374 260.916H408.867L404.618 261.349L383.374 260.916Z" fill="#C7C7C7"/>
<path d="M378.283 277.993H403.776L399.527 278.425L378.283 277.993Z" fill="#C7C7C7"/>
<path d="M393.96 267.998H410.497L413.451 269.15L393.96 267.998Z" fill="#EBEBEB"/>
<path d="M370.259 267.998H386.796L389.75 269.15L370.259 267.998Z" fill="#EBEBEB"/>
<path d="M391.479 283.408H374.942L371.987 284.56L391.479 283.408Z" fill="#EBEBEB"/>
<path d="M410.497 279.495H423.776L426.731 280.647L410.497 279.495Z" fill="#C7C7C7"/>
<path d="M415.132 274.317H425.43L424.057 273.375L415.132 274.317Z" fill="#C7C7C7"/>
<path d="M369.324 309.903H333.642V344.191H369.324V309.903Z" fill="#EBEBEB"/>
<path d="M382.884 309.903H369.324V344.191H382.884V309.903Z" fill="#C7C7C7"/>
<path d="M333.642 327.047H369.324L341.458 327.929L333.642 327.047Z" fill="#C7C7C7"/>
<path d="M369.324 340.049H333.642L361.509 340.931L369.324 340.049Z" fill="#C7C7C7"/>
<path d="M333.642 317.463H356.244L336.153 318.183L333.642 317.463Z" fill="#C7C7C7"/>
<path d="M369.324 335.001H346.723L366.814 335.721L369.324 335.001Z" fill="#C7C7C7"/>
<path d="M342.202 313.647H367.694L363.445 314.079L342.202 313.647Z" fill="#C7C7C7"/>
<path d="M337.111 330.723H362.603L358.354 331.155L337.111 330.723Z" fill="#C7C7C7"/>
<path d="M352.788 320.728H369.324L372.279 321.88L352.788 320.728Z" fill="#EBEBEB"/>
<path d="M329.086 320.728H345.623L348.578 321.88L329.086 320.728Z" fill="#EBEBEB"/>
<path d="M350.306 336.138H333.769L330.815 337.29L350.306 336.138Z" fill="#EBEBEB"/>
<path d="M369.324 332.225H382.603L385.558 333.377L369.324 332.225Z" fill="#C7C7C7"/>
<path d="M373.959 327.047H384.257L382.885 326.105L373.959 327.047Z" fill="#C7C7C7"/>
<path d="M393.473 355.505H381.92V399.211H393.473V355.505Z" fill="#EBEBEB"/>
<path d="M387.696 364.126C386.368 364.126 385.291 363.049 385.291 361.721C385.291 360.393 386.368 359.316 387.696 359.316C389.024 359.316 390.101 360.393 390.101 361.721C390.101 363.049 389.024 364.126 387.696 364.126Z" fill="white"/>
<path d="M387.696 363.096C386.936 363.096 386.321 362.48 386.321 361.721C386.321 360.961 386.937 360.346 387.696 360.346C388.455 360.346 389.071 360.962 389.071 361.721C389.071 362.481 388.455 363.096 387.696 363.096Z" fill="#A6A6A6"/>
<path d="M393.472 392.328V381.693H381.919V392.328H393.472Z" fill="white"/>
<path d="M367.8 390.189H324.094V399.274H367.8V390.189Z" fill="#C7C7C7"/>
<path d="M359.178 394.732C359.178 393.404 360.255 392.327 361.583 392.327C362.911 392.327 363.988 393.404 363.988 394.732C363.988 396.06 362.911 397.137 361.583 397.137C360.255 397.137 359.178 396.06 359.178 394.732Z" fill="white"/>
<path d="M360.208 394.732C360.208 393.972 360.824 393.357 361.583 393.357C362.342 393.357 362.958 393.973 362.958 394.732C362.958 395.491 362.342 396.107 361.583 396.107C360.824 396.107 360.208 395.492 360.208 394.732Z" fill="#A6A6A6"/>
<path d="M330.978 399.275H341.612V390.19H330.978V399.275Z" fill="white"/>
<path d="M43.343 462.211C175.74 461.599 324.26 461.594 456.656 462.211C324.259 462.828 175.74 462.823 43.343 462.211Z" fill="#263238"/>
<path d="M172.405 208.154C172.405 208.143 172.405 208.143 172.394 208.143C172.135 207.849 171.852 207.567 171.559 207.308C171.559 207.297 171.559 207.297 171.548 207.297C171.288 207.003 171.006 206.721 170.713 206.462C170.713 206.451 170.713 206.451 170.702 206.451C170.442 206.158 170.16 205.875 169.867 205.616C169.867 205.605 169.867 205.605 169.856 205.605C169.596 205.312 169.314 205.029 169.021 204.77C169.021 204.759 169.021 204.759 169.01 204.759C168.75 204.465 168.468 204.183 168.175 203.924C168.175 203.913 168.175 203.913 168.164 203.913C167.904 203.619 167.622 203.337 167.329 203.078C167.329 203.067 167.329 203.067 167.318 203.067C167.059 202.773 166.776 202.491 166.483 202.232C166.483 202.221 166.483 202.221 166.472 202.221C166.213 201.928 165.93 201.645 165.637 201.386C165.637 201.375 165.637 201.375 165.626 201.375C165.366 201.082 165.084 200.799 164.791 200.54C164.791 200.529 164.791 200.529 164.78 200.529C163.922 199.592 162.929 198.791 161.812 198.148V114.541C161.812 114.101 161.598 113.875 161.598 113.435C161.598 112.769 161.598 112.543 161.372 112.103C161.372 111.877 161.158 111.437 161.158 111.211C160.932 110.545 160.932 110.319 160.707 109.879C160.481 109.653 160.267 109.213 160.267 108.987C159.816 108.321 159.601 108.095 159.375 107.881C159.149 107.655 158.935 107.215 158.709 106.989L157.817 106.097C157.817 105.962 157.648 105.826 157.456 105.736C157.343 105.623 157.196 105.476 157.016 105.296L156.971 105.251C156.971 105.116 156.802 104.98 156.61 104.89C156.497 104.777 156.35 104.63 156.17 104.45L156.125 104.405C156.125 104.27 155.956 104.134 155.764 104.044C155.651 103.931 155.504 103.784 155.324 103.604L155.279 103.559C155.279 103.424 155.11 103.288 154.918 103.198C154.805 103.085 154.659 102.938 154.478 102.758L154.433 102.713C154.433 102.577 154.264 102.442 154.072 102.352C153.959 102.239 153.812 102.092 153.632 101.912L153.587 101.867C153.587 101.732 153.418 101.596 153.226 101.506C153.113 101.393 152.966 101.247 152.786 101.066L152.741 101.021C152.741 100.886 152.572 100.75 152.38 100.66C152.267 100.547 152.121 100.401 151.94 100.22L151.895 100.175C151.895 100.04 151.726 99.904 151.534 99.814C151.421 99.701 151.274 99.554 151.094 99.374L151.049 99.329C151.049 99.194 150.88 99.058 150.688 98.968C150.575 98.855 150.428 98.708 150.248 98.528L150.203 98.483C150.203 98.348 150.034 98.212 149.842 98.122L149.357 97.637C149.357 97.423 148.917 97.197 148.691 97.197C148.691 96.971 148.476 96.971 148.476 96.971C148.025 96.756 147.799 96.531 147.359 96.305C147.133 96.079 146.693 95.865 146.253 95.414C146.027 95.414 145.587 95.199 145.361 95.199C144.921 94.973 144.244 94.973 144.029 94.748C143.589 94.748 143.363 94.748 142.912 94.533H141.58C141.366 94.533 141.366 94.533 141.14 94.533C140.914 94.533 140.7 94.533 140.7 94.533H139.143C138.917 94.748 138.477 94.748 138.251 94.748C137.585 94.974 137.145 94.974 136.919 95.199C136.479 95.199 136.253 95.414 136.027 95.865C135.361 95.865 135.147 96.079 134.695 96.305C134.481 96.531 134.029 96.756 133.803 96.971C133.589 97.197 133.363 97.422 132.697 97.637C132.483 98.088 132.257 98.303 132.031 98.529C131.805 98.755 131.805 98.969 131.591 98.969L49.3978 201.145C45.4138 206.167 45.7858 213.176 50.5038 217.487C50.7638 217.792 51.0458 218.074 51.3498 218.333C51.6098 218.638 51.8918 218.92 52.1968 219.179C52.4568 219.484 52.7388 219.766 53.0428 220.026C53.3028 220.331 53.5848 220.613 53.8898 220.872C54.1498 221.177 54.4318 221.459 54.7368 221.718C54.9968 222.023 55.2788 222.305 55.5838 222.564C55.8438 222.869 56.1258 223.151 56.4298 223.41C56.6898 223.715 56.9718 223.997 57.2758 224.256C57.5358 224.561 57.8178 224.843 58.1228 225.102C58.6308 225.678 59.2178 226.219 59.8608 226.705C62.0838 228.703 64.7478 229.368 67.4108 229.368H128.92V237.787C128.92 241.466 130.432 244.694 132.893 246.906L132.927 246.94C133.187 247.222 133.457 247.493 133.74 247.753C133.751 247.764 133.763 247.764 133.763 247.776C134.023 248.069 134.305 248.34 134.587 248.6L134.621 248.634C134.881 248.916 135.151 249.187 135.434 249.447C135.445 249.458 135.457 249.458 135.457 249.47C135.717 249.763 135.999 250.034 136.281 250.294L136.315 250.328C136.575 250.61 136.845 250.881 137.128 251.141C137.139 251.152 137.151 251.152 137.151 251.164C137.411 251.457 137.693 251.728 137.975 251.988L138.009 252.022C138.268 252.304 138.539 252.575 138.822 252.835C138.833 252.846 138.845 252.846 138.845 252.858C139.105 253.152 139.387 253.422 139.669 253.682L139.703 253.716C139.962 253.998 140.233 254.269 140.516 254.529C140.527 254.54 140.539 254.54 140.539 254.552C142.751 256.978 145.956 258.48 149.602 258.48C156.487 258.48 161.814 253.142 161.814 246.257V229.373H164.037C170.921 229.373 176.474 224.046 176.474 217.161C176.468 213.627 174.899 210.399 172.405 208.154ZM128.92 160.583V196.484H99.9939L128.92 160.583Z" fill="#FFC727"/>
<path opacity="0.1" d="M172.405 208.154C172.405 208.143 172.405 208.143 172.394 208.143C172.135 207.849 171.852 207.567 171.559 207.308C171.559 207.297 171.559 207.297 171.548 207.297C171.288 207.003 171.006 206.721 170.713 206.462C170.713 206.451 170.713 206.451 170.702 206.451C170.442 206.158 170.16 205.875 169.867 205.616C169.867 205.605 169.867 205.605 169.856 205.605C169.596 205.312 169.314 205.029 169.021 204.77C169.021 204.759 169.021 204.759 169.01 204.759C168.75 204.465 168.468 204.183 168.175 203.924C168.175 203.913 168.175 203.913 168.164 203.913C167.904 203.619 167.622 203.337 167.329 203.078C167.329 203.067 167.329 203.067 167.318 203.067C167.059 202.773 166.776 202.491 166.483 202.232C166.483 202.221 166.483 202.221 166.472 202.221C166.213 201.928 165.93 201.645 165.637 201.386C165.637 201.375 165.637 201.375 165.626 201.375C165.366 201.082 165.084 200.799 164.791 200.54C164.791 200.529 164.791 200.529 164.78 200.529C163.922 199.592 162.929 198.791 161.812 198.148V114.541C161.812 114.101 161.598 113.875 161.598 113.435C161.598 112.769 161.598 112.543 161.372 112.103C161.372 111.877 161.158 111.437 161.158 111.211C160.932 110.545 160.932 110.319 160.707 109.879C160.481 109.653 160.267 109.213 160.267 108.987C159.816 108.321 159.601 108.095 159.375 107.881C159.149 107.655 158.935 107.215 158.709 106.989L157.817 106.097C157.817 105.962 157.648 105.826 157.456 105.736C157.343 105.623 157.196 105.476 157.016 105.296L156.971 105.251C156.971 105.116 156.802 104.98 156.61 104.89C156.497 104.777 156.35 104.63 156.17 104.45L156.125 104.405C156.125 104.27 155.956 104.134 155.764 104.044C155.651 103.931 155.504 103.784 155.324 103.604L155.279 103.559C155.279 103.424 155.11 103.288 154.918 103.198C154.805 103.085 154.659 102.938 154.478 102.758L154.433 102.713C154.433 102.577 154.264 102.442 154.072 102.352C153.959 102.239 153.812 102.092 153.632 101.912L153.587 101.867C153.587 101.732 153.418 101.596 153.226 101.506C153.113 101.393 152.966 101.247 152.786 101.066L152.741 101.021C152.741 100.886 152.572 100.75 152.38 100.66C152.267 100.547 152.121 100.401 151.94 100.22L151.895 100.175C151.895 100.04 151.726 99.904 151.534 99.814C151.421 99.701 151.274 99.554 151.094 99.374L151.049 99.329C151.049 99.194 150.88 99.058 150.688 98.968C150.575 98.855 150.428 98.708 150.248 98.528L150.203 98.483C150.203 98.348 150.034 98.212 149.842 98.122L149.357 97.637C149.357 97.423 148.917 97.197 148.691 97.197C148.691 96.971 148.476 96.971 148.476 96.971C148.025 96.756 147.799 96.531 147.359 96.305C147.133 96.079 146.693 95.865 146.253 95.414C146.027 95.414 145.587 95.199 145.361 95.199C144.921 94.973 144.244 94.973 144.029 94.748C143.589 94.748 143.363 94.748 142.912 94.533H141.58C141.366 94.533 141.366 94.533 141.14 94.533C140.914 94.533 140.7 94.533 140.7 94.533H139.143C138.917 94.748 138.477 94.748 138.251 94.748C137.585 94.974 137.145 94.974 136.919 95.199C136.479 95.199 136.253 95.414 136.027 95.865C135.361 95.865 135.147 96.079 134.695 96.305C134.481 96.531 134.029 96.756 133.803 96.971C133.589 97.197 133.363 97.422 132.697 97.637C132.483 98.088 132.257 98.303 132.031 98.529C131.805 98.755 131.805 98.969 131.591 98.969L49.3978 201.145C45.4138 206.167 45.7858 213.176 50.5038 217.487C50.7638 217.792 51.0458 218.074 51.3498 218.333C51.6098 218.638 51.8918 218.92 52.1968 219.179C52.4568 219.484 52.7388 219.766 53.0428 220.026C53.3028 220.331 53.5848 220.613 53.8898 220.872C54.1498 221.177 54.4318 221.459 54.7368 221.718C54.9968 222.023 55.2788 222.305 55.5838 222.564C55.8438 222.869 56.1258 223.151 56.4298 223.41C56.6898 223.715 56.9718 223.997 57.2758 224.256C57.5358 224.561 57.8178 224.843 58.1228 225.102C58.6308 225.678 59.2178 226.219 59.8608 226.705C62.0838 228.703 64.7478 229.368 67.4108 229.368H128.92V237.787C128.92 241.466 130.432 244.694 132.893 246.906L132.927 246.94C133.187 247.222 133.457 247.493 133.74 247.753C133.751 247.764 133.763 247.764 133.763 247.776C134.023 248.069 134.305 248.34 134.587 248.6L134.621 248.634C134.881 248.916 135.151 249.187 135.434 249.447C135.445 249.458 135.457 249.458 135.457 249.47C135.717 249.763 135.999 250.034 136.281 250.294L136.315 250.328C136.575 250.61 136.845 250.881 137.128 251.141C137.139 251.152 137.151 251.152 137.151 251.164C137.411 251.457 137.693 251.728 137.975 251.988L138.009 252.022C138.268 252.304 138.539 252.575 138.822 252.835C138.833 252.846 138.845 252.846 138.845 252.858C139.105 253.152 139.387 253.422 139.669 253.682L139.703 253.716C139.962 253.998 140.233 254.269 140.516 254.529C140.527 254.54 140.539 254.54 140.539 254.552C142.751 256.978 145.956 258.48 149.602 258.48C156.487 258.48 161.814 253.142 161.814 246.257V229.373H164.037C170.921 229.373 176.474 224.046 176.474 217.161C176.468 213.627 174.899 210.399 172.405 208.154ZM128.92 160.583V196.484H99.9939L128.92 160.583Z" fill="black"/>
<path d="M168.008 208.695C168.008 215.581 162.455 220.911 155.568 220.911H153.348V237.794C153.348 244.68 148.017 250.01 141.133 250.01C134.246 250.01 128.915 244.679 128.915 237.794V220.911H59.39H59.168H58.946C56.281 220.911 53.615 220.245 51.393 218.246C45.84 214.026 45.174 206.475 49.395 201.142L131.58 98.964C131.802 98.964 131.802 98.742 132.025 98.521C132.247 98.299 132.47 98.076 132.692 97.632C133.356 97.41 133.579 97.189 133.801 96.966C134.023 96.744 134.468 96.521 134.69 96.299C135.135 96.077 135.357 95.854 136.021 95.854C136.243 95.411 136.466 95.188 136.91 95.188C137.133 94.966 137.577 94.966 138.244 94.743C138.466 94.743 138.908 94.743 139.131 94.521C139.576 94.521 140.243 94.521 140.687 94.521C140.687 94.521 140.909 94.521 141.132 94.521C141.355 94.521 141.355 94.521 141.574 94.521C142.019 94.521 142.686 94.521 142.908 94.521C143.353 94.743 143.575 94.743 144.02 94.743C144.24 94.966 144.907 94.966 145.351 95.188C145.573 95.188 146.018 95.41 146.24 95.41C146.685 95.853 147.127 96.076 147.349 96.298C147.794 96.52 148.016 96.743 148.461 96.965C148.461 96.965 148.683 96.965 148.683 97.188C148.905 97.188 149.35 97.409 149.35 97.631C149.795 98.076 150.014 98.298 150.237 98.52C150.459 98.741 150.682 99.186 150.904 99.408C151.126 99.631 151.349 99.853 151.793 100.518C151.793 100.74 152.015 101.185 152.238 101.407C152.46 101.85 152.46 102.073 152.683 102.74C152.683 102.961 152.903 103.406 152.903 103.628C153.125 104.073 153.125 104.294 153.125 104.961C153.125 105.406 153.348 105.628 153.348 106.071C153.348 106.293 153.348 106.516 153.348 106.738V196.477H155.568C162.456 196.478 168.008 202.031 168.008 208.695ZM128.915 141.612L84.712 196.478H128.915V141.612Z" fill="#FFC727"/>
<path d="M297.945 127.638C295.417 123.79 292.505 120.223 289.255 117.063C289.131 116.928 289.007 116.803 288.871 116.691C288.837 116.657 288.803 116.612 288.758 116.578C288.656 116.465 288.555 116.352 288.442 116.251C288.16 115.946 287.855 115.664 287.562 115.371C287.539 115.349 287.506 115.315 287.483 115.303C287.381 115.201 287.28 115.1 287.178 114.998C287.144 114.964 287.11 114.919 287.065 114.885C286.963 114.772 286.862 114.659 286.749 114.558C286.467 114.253 286.162 113.971 285.869 113.678C285.846 113.655 285.813 113.622 285.79 113.61C285.688 113.508 285.587 113.407 285.485 113.305C285.451 113.271 285.417 113.226 285.372 113.192C285.27 113.079 285.169 112.966 285.056 112.865C284.774 112.56 284.469 112.278 284.176 111.985C284.153 111.962 284.12 111.928 284.097 111.917C283.995 111.815 283.894 111.714 283.792 111.612C283.758 111.578 283.724 111.533 283.679 111.499C283.577 111.386 283.476 111.273 283.363 111.172C283.081 110.867 282.776 110.585 282.483 110.292C282.46 110.269 282.427 110.236 282.404 110.224C282.302 110.111 282.212 110.01 282.099 109.919C282.065 109.885 282.031 109.84 281.986 109.806C273.07 100.608 261.434 94.525 248.387 94.525C230.837 94.525 216.402 104.965 207.069 119.174C197.295 133.395 192.194 151.836 191.968 172.264C192.194 192.477 197.295 211.133 207.069 225.354C209.586 229.112 212.464 232.645 215.669 235.782C215.816 235.929 215.963 236.064 216.109 236.211C216.132 236.222 216.154 236.245 216.165 236.267C216.425 236.538 216.696 236.798 216.955 237.057C217.09 237.204 217.226 237.339 217.361 237.475C217.508 237.622 217.654 237.757 217.801 237.904C217.824 237.915 217.846 237.938 217.858 237.961C218.118 238.232 218.389 238.491 218.648 238.751C218.783 238.898 218.919 239.033 219.054 239.169C219.201 239.316 219.347 239.451 219.494 239.598C219.517 239.609 219.539 239.632 219.55 239.654C219.81 239.925 220.081 240.185 220.34 240.444C220.475 240.591 220.611 240.726 220.746 240.862C220.893 241.009 221.04 241.144 221.186 241.291C221.209 241.302 221.231 241.325 221.242 241.347C221.501 241.618 221.772 241.877 222.032 242.137C222.167 242.284 222.303 242.419 222.438 242.554C222.585 242.701 222.731 242.836 222.878 242.983C222.9 242.994 222.923 243.017 222.934 243.039C223.194 243.31 223.464 243.57 223.724 243.829C232.505 252.598 243.824 258.478 256.849 258.478C273.947 258.478 288.608 247.813 297.942 233.818C307.49 219.598 312.829 200.942 312.829 180.728C312.832 160.301 307.493 141.859 297.945 127.638ZM269.042 211.585C262.598 221.133 255.273 225.354 248.388 225.354C244.596 225.354 240.601 224.079 236.673 221.325C236.357 220.919 236.052 220.49 235.747 220.05C229.528 210.716 225.082 196.507 225.082 180.729C225.082 164.737 229.529 150.742 235.747 141.194C242.417 131.86 249.968 127.425 256.852 127.639C260.509 127.526 264.29 128.723 268.003 131.284C268.353 131.758 268.703 132.232 269.041 132.729C275.26 142.277 279.706 156.272 279.706 172.264C279.707 188.042 275.26 202.251 269.042 211.585Z" fill="#FFC727"/>
<path opacity="0.1" d="M297.945 127.638C295.417 123.79 292.505 120.223 289.255 117.063C289.131 116.928 289.007 116.803 288.871 116.691C288.837 116.657 288.803 116.612 288.758 116.578C288.656 116.465 288.555 116.352 288.442 116.251C288.16 115.946 287.855 115.664 287.562 115.371C287.539 115.349 287.506 115.315 287.483 115.303C287.381 115.201 287.28 115.1 287.178 114.998C287.144 114.964 287.11 114.919 287.065 114.885C286.963 114.772 286.862 114.659 286.749 114.558C286.467 114.253 286.162 113.971 285.869 113.678C285.846 113.655 285.813 113.622 285.79 113.61C285.688 113.508 285.587 113.407 285.485 113.305C285.451 113.271 285.417 113.226 285.372 113.192C285.27 113.079 285.169 112.966 285.056 112.865C284.774 112.56 284.469 112.278 284.176 111.985C284.153 111.962 284.12 111.928 284.097 111.917C283.995 111.815 283.894 111.714 283.792 111.612C283.758 111.578 283.724 111.533 283.679 111.499C283.577 111.386 283.476 111.273 283.363 111.172C283.081 110.867 282.776 110.585 282.483 110.292C282.46 110.269 282.427 110.236 282.404 110.224C282.302 110.111 282.212 110.01 282.099 109.919C282.065 109.885 282.031 109.84 281.986 109.806C273.07 100.608 261.434 94.525 248.387 94.525C230.837 94.525 216.402 104.965 207.069 119.174C197.295 133.395 192.194 151.836 191.968 172.264C192.194 192.477 197.295 211.133 207.069 225.354C209.586 229.112 212.464 232.645 215.669 235.782C215.816 235.929 215.963 236.064 216.109 236.211C216.132 236.222 216.154 236.245 216.165 236.267C216.425 236.538 216.696 236.798 216.955 237.057C217.09 237.204 217.226 237.339 217.361 237.475C217.508 237.622 217.654 237.757 217.801 237.904C217.824 237.915 217.846 237.938 217.858 237.961C218.118 238.232 218.389 238.491 218.648 238.751C218.783 238.898 218.919 239.033 219.054 239.169C219.201 239.316 219.347 239.451 219.494 239.598C219.517 239.609 219.539 239.632 219.55 239.654C219.81 239.925 220.081 240.185 220.34 240.444C220.475 240.591 220.611 240.726 220.746 240.862C220.893 241.009 221.04 241.144 221.186 241.291C221.209 241.302 221.231 241.325 221.242 241.347C221.501 241.618 221.772 241.877 222.032 242.137C222.167 242.284 222.303 242.419 222.438 242.554C222.585 242.701 222.731 242.836 222.878 242.983C222.9 242.994 222.923 243.017 222.934 243.039C223.194 243.31 223.464 243.57 223.724 243.829C232.505 252.598 243.824 258.478 256.849 258.478C273.947 258.478 288.608 247.813 297.942 233.818C307.49 219.598 312.829 200.942 312.829 180.728C312.832 160.301 307.493 141.859 297.945 127.638ZM269.042 211.585C262.598 221.133 255.273 225.354 248.388 225.354C244.596 225.354 240.601 224.079 236.673 221.325C236.357 220.919 236.052 220.49 235.747 220.05C229.528 210.716 225.082 196.507 225.082 180.729C225.082 164.737 229.529 150.742 235.747 141.194C242.417 131.86 249.968 127.425 256.852 127.639C260.509 127.526 264.29 128.723 268.003 131.284C268.353 131.758 268.703 132.232 269.041 132.729C275.26 142.277 279.706 156.272 279.706 172.264C279.707 188.042 275.26 202.251 269.042 211.585Z" fill="black"/>
<path d="M191.967 172.267C192.19 151.831 197.298 133.395 207.072 119.178C216.399 104.962 230.838 94.521 248.386 94.521C265.491 94.521 280.149 104.961 289.482 119.178C299.032 133.394 304.362 151.83 304.362 172.267C304.362 192.479 299.031 211.138 289.482 225.354C280.149 239.349 265.491 250.01 248.386 250.01C230.838 250.01 216.399 239.349 207.072 225.354C197.298 211.138 192.19 192.479 191.967 172.267ZM279.705 172.267C279.705 156.274 275.264 142.28 269.044 132.727C262.601 123.398 255.274 118.956 248.387 119.178C241.5 118.956 233.949 123.398 227.287 132.727C221.067 142.279 216.623 156.273 216.623 172.267C216.623 188.038 221.067 202.254 227.287 211.583C233.949 221.134 241.5 225.354 248.387 225.354C255.274 225.354 262.602 221.134 269.044 211.583C275.264 202.254 279.705 188.038 279.705 172.267Z" fill="#FFC727"/>
<path d="M449.277 208.154C449.277 208.143 449.277 208.143 449.266 208.143C448.995 207.849 448.713 207.567 448.431 207.308C448.431 207.297 448.431 207.297 448.42 207.297C448.149 207.003 447.867 206.721 447.585 206.462C447.585 206.451 447.585 206.451 447.574 206.451C447.303 206.158 447.021 205.875 446.739 205.616C446.739 205.605 446.739 205.605 446.728 205.605C446.457 205.312 446.175 205.029 445.893 204.77C445.893 204.759 445.893 204.759 445.882 204.759C445.611 204.465 445.329 204.183 445.047 203.924C445.047 203.913 445.047 203.913 445.036 203.913C444.765 203.619 444.483 203.337 444.201 203.078C444.201 203.067 444.201 203.067 444.19 203.067C443.919 202.773 443.637 202.491 443.355 202.232C443.355 202.221 443.355 202.221 443.344 202.221C443.073 201.928 442.791 201.645 442.509 201.386C442.509 201.375 442.509 201.375 442.498 201.375C442.227 201.082 441.945 200.799 441.663 200.54C441.663 200.529 441.663 200.529 441.652 200.529C440.794 199.592 439.79 198.78 438.673 198.148V114.541C438.673 114.101 438.458 113.875 438.458 113.435C438.458 112.769 438.458 112.543 438.232 112.103C438.232 111.877 438.018 111.437 438.018 111.211C437.792 110.545 437.792 110.319 437.567 109.879C437.352 109.653 437.127 109.213 437.127 108.987C436.687 108.321 436.461 108.095 436.235 107.881C436.009 107.655 435.795 107.215 435.569 106.989L434.677 106.097C434.677 105.962 434.508 105.826 434.316 105.736C434.203 105.623 434.056 105.476 433.876 105.296L433.831 105.251C433.831 105.116 433.662 104.98 433.47 104.89C433.357 104.777 433.21 104.63 433.03 104.45L432.985 104.405C432.985 104.27 432.816 104.134 432.624 104.044C432.511 103.931 432.364 103.784 432.184 103.604L432.139 103.559C432.139 103.424 431.97 103.288 431.778 103.198C431.665 103.085 431.519 102.938 431.338 102.758L431.293 102.713C431.293 102.577 431.124 102.442 430.932 102.352C430.819 102.239 430.673 102.092 430.492 101.912L430.447 101.867C430.447 101.732 430.278 101.596 430.086 101.506C429.973 101.393 429.826 101.247 429.646 101.066L429.601 101.021C429.601 100.886 429.432 100.75 429.24 100.66C429.127 100.547 428.98 100.401 428.8 100.22L428.755 100.175C428.755 100.04 428.586 99.904 428.394 99.814C428.281 99.701 428.134 99.554 427.954 99.374L427.909 99.329C427.909 99.194 427.74 99.058 427.548 98.968C427.435 98.855 427.288 98.708 427.108 98.528L427.063 98.483C427.063 98.348 426.894 98.212 426.702 98.122L426.217 97.637C426.217 97.423 425.777 97.197 425.551 97.197C425.551 96.971 425.325 96.971 425.325 96.971C424.885 96.756 424.659 96.531 424.219 96.305C423.993 96.079 423.553 95.865 423.113 95.414C422.887 95.414 422.447 95.199 422.221 95.199C421.781 94.973 421.115 94.973 420.889 94.748C420.438 94.748 420.223 94.748 419.772 94.533H418.44C418.225 94.533 418.225 94.533 418 94.533C417.785 94.533 417.56 94.533 417.56 94.533H416.003C415.777 94.748 415.337 94.748 415.111 94.748C414.445 94.974 414.005 94.974 413.779 95.199C413.339 95.199 413.113 95.414 412.887 95.865C412.232 95.865 412.007 96.079 411.555 96.305C411.341 96.531 410.889 96.756 410.675 96.971C410.449 97.197 410.224 97.422 409.558 97.637C409.332 98.088 409.118 98.303 408.892 98.529C408.666 98.755 408.666 98.969 408.452 98.969L326.267 201.153C322.283 206.175 322.655 213.184 327.373 217.495C327.633 217.8 327.915 218.082 328.219 218.341C328.479 218.646 328.761 218.928 329.066 219.187C329.326 219.492 329.608 219.774 329.912 220.034C330.172 220.339 330.454 220.621 330.758 220.88C331.018 221.185 331.3 221.467 331.605 221.726C331.864 222.031 332.147 222.313 332.451 222.572C332.71 222.877 332.993 223.159 333.297 223.418C333.557 223.723 333.839 224.005 334.143 224.264C334.403 224.569 334.685 224.851 334.989 225.11C335.497 225.686 336.084 226.227 336.727 226.713C338.95 228.711 341.614 229.376 344.277 229.376H405.786V237.795C405.786 241.463 407.298 244.702 409.759 246.914C409.77 246.925 409.782 246.925 409.782 246.937C410.042 247.231 410.324 247.501 410.606 247.761L410.64 247.795C410.899 248.077 411.17 248.348 411.453 248.608C411.464 248.619 411.476 248.619 411.476 248.631C411.736 248.925 412.018 249.195 412.3 249.455L412.334 249.489C412.594 249.771 412.865 250.042 413.147 250.302C413.158 250.313 413.17 250.313 413.17 250.325C413.429 250.618 413.712 250.889 413.994 251.149L414.028 251.183C414.287 251.465 414.558 251.736 414.841 251.996C414.852 252.007 414.863 252.007 414.863 252.019C415.123 252.312 415.405 252.583 415.687 252.843L415.721 252.877C415.981 253.159 416.251 253.43 416.534 253.69C416.545 253.701 416.557 253.701 416.557 253.713C416.817 254.007 417.099 254.277 417.381 254.537L417.415 254.571C419.627 256.998 422.821 258.487 426.466 258.487C433.351 258.487 438.678 253.149 438.678 246.264V229.38H440.901C447.797 229.38 453.35 224.053 453.35 217.168C453.34 213.627 451.771 210.399 449.277 208.154ZM405.78 160.583V196.484H376.854L405.78 160.583Z" fill="#FFC727"/>
<path opacity="0.1" d="M449.277 208.154C449.277 208.143 449.277 208.143 449.266 208.143C448.995 207.849 448.713 207.567 448.431 207.308C448.431 207.297 448.431 207.297 448.42 207.297C448.149 207.003 447.867 206.721 447.585 206.462C447.585 206.451 447.585 206.451 447.574 206.451C447.303 206.158 447.021 205.875 446.739 205.616C446.739 205.605 446.739 205.605 446.728 205.605C446.457 205.312 446.175 205.029 445.893 204.77C445.893 204.759 445.893 204.759 445.882 204.759C445.611 204.465 445.329 204.183 445.047 203.924C445.047 203.913 445.047 203.913 445.036 203.913C444.765 203.619 444.483 203.337 444.201 203.078C444.201 203.067 444.201 203.067 444.19 203.067C443.919 202.773 443.637 202.491 443.355 202.232C443.355 202.221 443.355 202.221 443.344 202.221C443.073 201.928 442.791 201.645 442.509 201.386C442.509 201.375 442.509 201.375 442.498 201.375C442.227 201.082 441.945 200.799 441.663 200.54C441.663 200.529 441.663 200.529 441.652 200.529C440.794 199.592 439.79 198.78 438.673 198.148V114.541C438.673 114.101 438.458 113.875 438.458 113.435C438.458 112.769 438.458 112.543 438.232 112.103C438.232 111.877 438.018 111.437 438.018 111.211C437.792 110.545 437.792 110.319 437.567 109.879C437.352 109.653 437.127 109.213 437.127 108.987C436.687 108.321 436.461 108.095 436.235 107.881C436.009 107.655 435.795 107.215 435.569 106.989L434.677 106.097C434.677 105.962 434.508 105.826 434.316 105.736C434.203 105.623 434.056 105.476 433.876 105.296L433.831 105.251C433.831 105.116 433.662 104.98 433.47 104.89C433.357 104.777 433.21 104.63 433.03 104.45L432.985 104.405C432.985 104.27 432.816 104.134 432.624 104.044C432.511 103.931 432.364 103.784 432.184 103.604L432.139 103.559C432.139 103.424 431.97 103.288 431.778 103.198C431.665 103.085 431.519 102.938 431.338 102.758L431.293 102.713C431.293 102.577 431.124 102.442 430.932 102.352C430.819 102.239 430.673 102.092 430.492 101.912L430.447 101.867C430.447 101.732 430.278 101.596 430.086 101.506C429.973 101.393 429.826 101.247 429.646 101.066L429.601 101.021C429.601 100.886 429.432 100.75 429.24 100.66C429.127 100.547 428.98 100.401 428.8 100.22L428.755 100.175C428.755 100.04 428.586 99.904 428.394 99.814C428.281 99.701 428.134 99.554 427.954 99.374L427.909 99.329C427.909 99.194 427.74 99.058 427.548 98.968C427.435 98.855 427.288 98.708 427.108 98.528L427.063 98.483C427.063 98.348 426.894 98.212 426.702 98.122L426.217 97.637C426.217 97.423 425.777 97.197 425.551 97.197C425.551 96.971 425.325 96.971 425.325 96.971C424.885 96.756 424.659 96.531 424.219 96.305C423.993 96.079 423.553 95.865 423.113 95.414C422.887 95.414 422.447 95.199 422.221 95.199C421.781 94.973 421.115 94.973 420.889 94.748C420.438 94.748 420.223 94.748 419.772 94.533H418.44C418.225 94.533 418.225 94.533 418 94.533C417.785 94.533 417.56 94.533 417.56 94.533H416.003C415.777 94.748 415.337 94.748 415.111 94.748C414.445 94.974 414.005 94.974 413.779 95.199C413.339 95.199 413.113 95.414 412.887 95.865C412.232 95.865 412.007 96.079 411.555 96.305C411.341 96.531 410.889 96.756 410.675 96.971C410.449 97.197 410.224 97.422 409.558 97.637C409.332 98.088 409.118 98.303 408.892 98.529C408.666 98.755 408.666 98.969 408.452 98.969L326.267 201.153C322.283 206.175 322.655 213.184 327.373 217.495C327.633 217.8 327.915 218.082 328.219 218.341C328.479 218.646 328.761 218.928 329.066 219.187C329.326 219.492 329.608 219.774 329.912 220.034C330.172 220.339 330.454 220.621 330.758 220.88C331.018 221.185 331.3 221.467 331.605 221.726C331.864 222.031 332.147 222.313 332.451 222.572C332.71 222.877 332.993 223.159 333.297 223.418C333.557 223.723 333.839 224.005 334.143 224.264C334.403 224.569 334.685 224.851 334.989 225.11C335.497 225.686 336.084 226.227 336.727 226.713C338.95 228.711 341.614 229.376 344.277 229.376H405.786V237.795C405.786 241.463 407.298 244.702 409.759 246.914C409.77 246.925 409.782 246.925 409.782 246.937C410.042 247.231 410.324 247.501 410.606 247.761L410.64 247.795C410.899 248.077 411.17 248.348 411.453 248.608C411.464 248.619 411.476 248.619 411.476 248.631C411.736 248.925 412.018 249.195 412.3 249.455L412.334 249.489C412.594 249.771 412.865 250.042 413.147 250.302C413.158 250.313 413.17 250.313 413.17 250.325C413.429 250.618 413.712 250.889 413.994 251.149L414.028 251.183C414.287 251.465 414.558 251.736 414.841 251.996C414.852 252.007 414.863 252.007 414.863 252.019C415.123 252.312 415.405 252.583 415.687 252.843L415.721 252.877C415.981 253.159 416.251 253.43 416.534 253.69C416.545 253.701 416.557 253.701 416.557 253.713C416.817 254.007 417.099 254.277 417.381 254.537L417.415 254.571C419.627 256.998 422.821 258.487 426.466 258.487C433.351 258.487 438.678 253.149 438.678 246.264V229.38H440.901C447.797 229.38 453.35 224.053 453.35 217.168C453.34 213.627 451.771 210.399 449.277 208.154ZM405.78 160.583V196.484H376.854L405.78 160.583Z" fill="black"/>
<path d="M444.871 208.695C444.871 215.581 439.318 220.911 432.431 220.911H430.208V237.794C430.208 244.68 424.877 250.01 417.996 250.01C411.109 250.01 405.778 244.679 405.778 237.794V220.911H336.251H336.029H335.806C333.138 220.911 330.475 220.245 328.252 218.246C322.699 214.026 322.032 206.475 326.256 201.142L408.44 98.964C408.662 98.964 408.662 98.742 408.885 98.521C409.107 98.299 409.33 98.076 409.552 97.632C410.219 97.41 410.442 97.189 410.664 96.966C410.886 96.744 411.331 96.521 411.553 96.299C411.998 96.077 412.22 95.854 412.882 95.854C413.104 95.411 413.327 95.188 413.771 95.188C413.993 94.966 414.438 94.966 415.105 94.743C415.327 94.743 415.772 94.743 415.994 94.521C416.439 94.521 417.106 94.521 417.55 94.521C417.55 94.521 417.773 94.521 417.995 94.521C418.217 94.521 418.217 94.521 418.434 94.521C418.879 94.521 419.546 94.521 419.768 94.521C420.213 94.743 420.435 94.743 420.88 94.743C421.102 94.966 421.769 94.966 422.214 95.188C422.436 95.188 422.881 95.41 423.103 95.41C423.547 95.853 423.987 96.076 424.209 96.298C424.654 96.52 424.876 96.743 425.321 96.965C425.321 96.965 425.544 96.965 425.544 97.188C425.766 97.188 426.211 97.409 426.211 97.631C426.656 98.076 426.878 98.298 427.1 98.52C427.322 98.741 427.545 99.186 427.767 99.408C427.989 99.631 428.212 99.853 428.656 100.518C428.656 100.74 428.878 101.185 429.101 101.407C429.323 101.85 429.323 102.073 429.546 102.74C429.546 102.961 429.763 103.406 429.763 103.628C429.985 104.073 429.985 104.294 429.985 104.961C429.985 105.406 430.207 105.628 430.207 106.071C430.207 106.293 430.207 106.516 430.207 106.738V196.477H432.43C439.318 196.478 444.871 202.031 444.871 208.695ZM405.777 141.612L361.57 196.478H405.777V141.612Z" fill="#FFC727"/>
<path d="M219.339 61.353C221.361 63.505 222.632 66.374 222.632 69.603C222.632 72.831 221.361 75.733 219.339 77.853C217.415 79.973 214.546 81.342 211.546 81.342C208.416 81.342 205.546 79.972 203.557 77.853C201.536 75.734 200.329 72.832 200.329 69.603C200.329 66.374 201.536 63.505 203.557 61.353C205.546 59.201 208.416 57.864 211.546 57.864C214.546 57.864 217.415 59.201 219.339 61.353ZM218.915 69.603C218.915 67.386 218.035 65.331 216.698 63.897C215.328 62.43 213.503 61.582 211.546 61.582C209.459 61.582 207.633 62.43 206.263 63.897C204.893 65.332 204.046 67.386 204.046 69.603C204.046 71.82 204.894 73.874 206.263 75.277C207.633 76.744 209.459 77.625 211.546 77.625C213.502 77.625 215.328 76.745 216.698 75.277C218.035 73.874 218.915 71.82 218.915 69.603Z" fill="#C7C7C7"/>
<path d="M246.728 61.353C248.75 63.505 250.022 66.374 250.022 69.603C250.022 72.831 248.75 75.733 246.728 77.853C244.804 79.973 241.935 81.342 238.935 81.342C235.805 81.342 232.935 79.972 230.946 77.853C228.925 75.734 227.718 72.832 227.718 69.603C227.718 66.374 228.924 63.505 230.946 61.353C232.935 59.201 235.805 57.864 238.935 57.864C241.935 57.864 244.805 59.201 246.728 61.353ZM246.305 69.603C246.305 67.386 245.425 65.331 244.088 63.897C242.718 62.43 240.893 61.582 238.936 61.582C236.849 61.582 235.023 62.43 233.653 63.897C232.283 65.332 231.436 67.386 231.436 69.603C231.436 71.82 232.284 73.874 233.653 75.277C235.023 76.744 236.849 77.625 238.936 77.625C240.893 77.625 242.718 76.745 244.088 75.277C245.424 73.874 246.305 71.82 246.305 69.603Z" fill="#C7C7C7"/>
<path d="M264.075 72.4731H260.064V79.5491C260.064 80.5271 259.249 81.3421 258.238 81.3421C257.26 81.3421 256.445 80.5271 256.445 79.5491V60.3101C256.445 59.2991 257.26 58.5171 258.238 58.5171H258.271H264.075C267.956 58.5171 271.086 61.6471 271.086 65.5281C271.086 69.3421 267.956 72.4731 264.075 72.4731ZM260.064 68.8531H264.075C265.967 68.8531 267.433 67.3531 267.467 65.5271C267.434 63.6361 265.967 62.1361 264.075 62.1361H260.064V68.8531Z" fill="#C7C7C7"/>
<path d="M274.736 75.668C275.323 74.951 276.399 74.853 277.117 75.44C278.552 76.614 281.029 77.983 283.345 77.951C284.976 77.951 286.443 77.462 287.421 76.744C288.399 76.027 288.823 75.211 288.823 74.396C288.823 73.972 288.725 73.678 288.529 73.352C288.334 73.026 288.04 72.7 287.551 72.373C286.605 71.753 285.007 71.199 283.083 70.84H283.018C281.486 70.547 280.051 70.155 278.812 69.569C277.573 68.982 276.497 68.167 275.78 67.026C275.291 66.243 275.03 65.33 275.03 64.352C275.03 62.396 276.138 60.7 277.638 59.591C279.17 58.482 281.159 57.863 283.279 57.863C286.41 57.863 288.725 59.395 290.388 60.471C291.138 60.992 291.365 62.036 290.844 62.786C290.355 63.569 289.312 63.797 288.529 63.275C286.866 62.167 285.268 61.188 283.279 61.188C281.812 61.188 280.507 61.645 279.628 62.297C278.747 62.949 278.389 63.667 278.389 64.351C278.389 64.742 278.454 65.003 278.617 65.264C278.779 65.525 279.073 65.818 279.497 66.112C280.345 66.699 281.812 67.221 283.573 67.547H283.639C285.302 67.873 286.834 68.297 288.139 68.916C289.476 69.568 290.65 70.416 291.4 71.622C291.889 72.405 292.182 73.383 292.182 74.394C292.182 76.481 291.008 78.274 289.377 79.448C287.779 80.622 285.66 81.306 283.345 81.306C279.823 81.273 276.856 79.513 274.997 78.045C274.28 77.461 274.182 76.385 274.736 75.668Z" fill="#C7C7C7"/>
<path d="M296.844 73.4831V60.3101C296.844 59.3321 297.659 58.5171 298.638 58.5171C299.616 58.5171 300.399 59.3321 300.399 60.3101V73.4841C300.399 74.4951 299.617 75.2781 298.638 75.2781C297.659 75.2771 296.844 74.4941 296.844 73.4831ZM298.638 81.3421C297.659 81.3421 296.844 80.5591 296.844 79.5491V78.8971C296.844 77.9191 297.659 77.1031 298.638 77.1031C299.616 77.1031 300.399 77.9181 300.399 78.8971V79.5491C300.398 80.5591 299.616 81.3421 298.638 81.3421Z" fill="#C7C7C7"/>
<path d="M214.683 121.901V151.931H279.515V121.901H214.683ZM276.209 148.625H217.982V125.2H276.209V148.625Z" fill="#263238"/>
<path d="M276.209 125.2H217.982V148.625H276.209V125.2Z" fill="white"/>
<path d="M225.725 127.634H221.095V146.196H225.725V127.634Z" fill="#455A64"/>
<path d="M285.32 128.882H279.553V144.948H285.32V128.882Z" fill="#263238"/>
<path d="M214.683 151.932V159.478L224.132 151.932H214.683Z" fill="#263238"/>
<path d="M268.007 463.442C265.312 464.285 186.639 462.585 183.766 460.668C183.398 460.432 184.417 452.008 184.053 440.869C183.578 426.299 199.655 385.415 199.655 385.415L248.892 386.369L233.624 436.246C233.624 436.246 262.652 449.995 265.591 452.436C268.507 454.866 270.703 462.611 268.007 463.442Z" fill="#AD6359"/>
<path d="M268.008 463.443C265.317 464.281 186.637 462.582 183.768 460.664C183.42 460.447 183.501 453.079 183.777 443.022C198.043 445.413 249.756 453.239 253.721 450.907C256.486 449.283 254.039 446.742 251.774 445.034C258.275 448.274 264.341 451.391 265.594 452.438C268.51 454.867 270.699 462.615 268.008 463.443Z" fill="#263238"/>
<path d="M237.749 432.18L180.128 431.77C180.128 431.77 209.529 341.803 206.889 334.821C204.195 327.696 162.193 313.21 149.148 301.813C128.504 283.777 146.874 251.925 146.874 251.925L193.636 251.899C193.636 251.899 190.445 266.281 196.685 276.406C196.685 276.406 248.749 295.818 257.823 313.544C267.512 332.471 237.749 432.18 237.749 432.18Z" fill="#263238"/>
<path d="M187.591 420.151C189.101 419.899 190.635 419.948 192.16 419.962C193.725 419.977 195.291 419.986 196.857 420.008C200.045 420.052 203.233 420.097 206.421 420.151C212.796 420.259 219.164 420.414 225.534 420.695C229.123 420.853 232.7 421.148 236.281 421.429C236.423 421.44 236.406 421.643 236.268 421.647C223.501 421.979 210.771 421.542 198.012 421.056C196.276 420.99 194.539 420.915 192.803 420.84C191.058 420.765 189.289 420.758 187.577 420.382C187.46 420.355 187.48 420.169 187.591 420.151Z" fill="#37474F"/>
<path d="M256.241 356.62L206.97 335.172C206.96 335.038 206.929 334.925 206.888 334.822C204.194 327.697 162.192 313.209 149.144 301.817C128.508 283.772 146.872 251.929 146.872 251.929L193.635 251.898C193.635 251.898 190.448 266.283 196.689 276.41C196.689 276.41 248.747 295.823 257.826 313.549C261.29 320.314 259.706 337.433 256.241 356.62Z" fill="#37474F"/>
<path d="M195.183 414.891C202.623 391.428 210.431 367.865 214.707 343.593C215.152 339.741 216.082 335.329 214.641 331.677C213.791 329.945 212.266 328.535 210.708 327.272C195.692 316.476 177.535 311.101 162.031 300.809C158.634 298.482 155.239 295.977 152.768 292.564C146.17 281.792 147.473 267.975 151.939 256.658C151.18 258.57 150.583 260.542 150.093 262.537C147.7 272.295 147.77 283.507 153.282 292.197C155.695 295.458 159.069 297.906 162.454 300.167C176.319 309.034 192.032 314.59 206.197 322.969C209.876 325.355 214.022 327.771 215.836 332.021C216.363 333.819 216.37 335.703 216.282 337.55C215.508 347.859 212.737 357.894 210.109 367.829C205.721 383.698 200.638 399.361 195.183 414.891Z" fill="#37474F"/>
<path d="M187.645 315.066L189.761 331.003L215.851 462.17H223.316L202.722 331.003L201.048 315.066H187.645Z" fill="#FFC727"/>
<path opacity="0.3" d="M187.645 315.066L189.761 331.003L215.851 462.17H223.316L202.722 331.003L201.048 315.066H187.645Z" fill="black"/>
<path d="M116.996 462.17H124.472L150.562 331.003L152.678 315.066H139.275L137.601 331.003L116.996 462.17Z" fill="#FFC727"/>
<path opacity="0.3" d="M116.996 462.17H124.472L150.562 331.003L152.678 315.066H139.275L137.601 331.003L116.996 462.17Z" fill="black"/>
<path d="M129.151 424.495H212.41V420.752H129.151V424.495Z" fill="#FFC727"/>
<path opacity="0.3" d="M129.151 424.495H212.41V420.752H129.151V424.495Z" fill="black"/>
<path opacity="0.3" d="M202.722 330.438H189.761L187.645 315.066H201.048L202.722 330.438Z" fill="black"/>
<path opacity="0.3" d="M137.601 330.438H150.562L152.678 315.066H139.275L137.601 330.438Z" fill="black"/>
<path d="M130.547 319.883H209.765V304.487H130.547V319.883Z" fill="#FFC727"/>
<path opacity="0.3" d="M130.547 319.883H209.765V304.487H130.547V319.883Z" fill="black"/>
<path d="M389.326 463.102C386.651 463.986 308.123 463.543 305.226 461.676C304.864 461.451 305.438 453.421 305.178 442.689C305.093 439.174 284.628 386.898 284.628 386.898L333.772 387.066L354.585 436.514C354.585 436.514 383.769 449.771 386.74 452.159C389.688 454.537 392.002 462.23 389.326 463.102Z" fill="#AD6359"/>
<path d="M389.327 463.103C386.655 463.982 308.121 463.54 305.228 461.671C304.877 461.46 304.841 454.107 304.955 444.068C319.228 446.226 370.952 453.212 374.871 450.822C377.604 449.157 375.122 446.661 372.834 444.993C379.372 448.122 385.475 451.136 386.742 452.161C389.69 454.539 391.999 462.234 389.327 463.103Z" fill="#263238"/>
<path d="M356.244 427.139L296.6 427.959C296.6 427.959 247.42 338.533 243.671 334.773C235.164 326.256 161.449 315.072 143.089 296.825C123.647 277.509 141.1 251.898 141.1 251.898H195.004C195.004 251.898 194.423 263.648 197.126 264.489C226.421 273.595 275.444 294.671 288.121 305.867C310.867 325.965 356.244 427.139 356.244 427.139Z" fill="#263238"/>
<path d="M298.248 415.734C299.71 415.428 301.207 415.421 302.693 415.381C304.219 415.339 305.745 415.292 307.27 415.257C310.378 415.186 313.486 415.116 316.594 415.054C322.809 414.932 329.018 414.857 335.235 414.907C338.737 414.935 342.233 415.101 345.732 415.252C345.871 415.258 345.862 415.461 345.727 415.47C333.299 416.263 320.881 416.285 308.433 416.261C306.739 416.258 305.045 416.246 303.351 416.234C301.649 416.222 299.924 416.279 298.244 415.965C298.128 415.943 298.141 415.756 298.248 415.734Z" fill="#37474F"/>
<path d="M146.398 254.486C140.859 265.346 138.727 279.918 146.869 290.029C156.159 299.82 181.268 306.993 194.551 311.371C204.168 314.326 213.861 317.033 223.573 319.677C229.583 321.519 241.563 324.19 247.207 326.709C248.793 327.968 249.779 329.586 250.963 331.151C253.883 335.28 256.569 339.542 259.243 343.811C261.912 348.084 264.515 352.395 267.089 356.723C277.394 374.027 287.352 391.532 297.149 409.126C287.041 391.714 276.856 374.342 266.43 357.119C261.159 348.551 255.991 339.892 250.222 331.68C249.155 330.252 248.067 328.596 246.705 327.489C241.29 325.144 229.129 322.391 223.308 320.64C213.6 317.966 203.905 315.227 194.282 312.238C180.786 307.772 155.899 300.518 146.439 290.388C138.268 280.093 140.636 265.36 146.398 254.486Z" fill="#37474F"/>
<path d="M204.866 197.409C218.493 197.134 244.467 202.488 256.177 207.634C264.134 211.131 266.316 216.528 265.722 219.783C264.088 228.745 230.055 222.649 229.71 221.309C229.449 220.297 215.852 216.943 201.143 208.743C194.094 204.813 199.012 197.528 204.866 197.409Z" fill="#455A64"/>
<path d="M250.029 209.247L250.924 207.149L248.857 207.817L247.531 206.203L247.839 208.249L245.68 209.534L247.973 209.904L248.374 211.899L249.515 210.069L251.109 210.573L250.029 209.247ZM222.699 203.623L223.172 201.587L221.733 203.078L219.399 202.153L220.509 204.199L219.172 205.741L221.321 205.515L221.897 207.088L222.288 205.412L224.499 204.847L222.699 203.623ZM263.827 215.417L261.462 215.314L260.125 212.476L258.922 215.221L256.033 215.108L258.429 216.671L257.596 219.139L260.002 217.7L262.696 219.458L261.843 216.6L263.827 215.417ZM233.547 216.465L234.318 214.285L232.426 215.724L229.578 214.387L230.411 217.266L228.118 219.024L230.956 218.695L231.892 221.122L232.828 218.49L236.026 218.12L233.547 216.465ZM252.98 223.447L252.836 218.481L250.121 222.563L246.882 221.555L249.124 224.054L248.836 224.496C250.882 224.589 252.918 224.609 254.82 224.506L255.632 224.28L252.98 223.447Z" fill="#37474F"/>
<path d="M220.478 217.586C215.244 215.601 208.335 212.753 201.148 208.743C194.095 204.815 199.009 197.525 204.87 197.412C205.795 197.391 206.772 197.402 207.79 197.432L220.478 217.586Z" fill="#37474F"/>
<path d="M265.058 220.29C262.602 226.231 253.556 228.987 230.197 239.182C226.965 240.593 211.793 224.195 214.125 221.231C216.938 217.655 235.45 209.345 236.757 208.967C247.783 205.779 266.724 216.26 265.058 220.29Z" fill="#AD6359"/>
<path d="M216.765 219.183C216.765 219.183 207.822 225.088 204.084 229.644C199.079 235.746 197.27 243.074 196.697 246.191C195.501 252.697 197.108 269.255 201.958 269.625C206.348 269.959 203.85 253.117 203.85 253.117C203.85 253.117 203.563 270.709 208.923 270.14C214.283 269.57 210.271 250.184 210.271 250.184C210.271 250.184 210.382 268.266 215.816 266.804C219.923 265.699 217.278 247.936 217.278 247.936C217.278 247.936 217.481 263.477 221.753 262.523C226.474 261.469 225.062 244.919 225.062 244.919C235.514 240.666 238.751 234.365 240.519 229.609C240.949 228.458 216.765 219.183 216.765 219.183Z" fill="#AD6359"/>
<path d="M203.56 247.026C203.451 249.091 203.328 251.181 203.403 253.249C203.479 255.317 203.626 257.384 203.894 259.435C204.551 264.467 205.748 267.515 205.695 267.319C204.43 262.676 204.045 255.277 203.97 253.209C203.895 251.145 203.715 249.085 203.639 247.021C203.637 246.968 203.563 246.977 203.56 247.026Z" fill="#263238"/>
<path d="M211.022 246.618C210.998 249.261 210.877 251.884 210.969 254.529C211.061 257.161 211.379 259.65 211.651 262.269C211.672 262.471 211.773 262.393 211.76 262.19C211.592 259.562 211.639 257.12 211.502 254.491C211.365 251.871 211.126 249.236 211.084 246.614C211.084 246.572 211.022 246.577 211.022 246.618Z" fill="#263238"/>
<path d="M217.363 245.116C217.119 249.153 217.62 253.231 218.207 257.219C218.236 257.418 218.356 257.303 218.338 257.098C217.981 253.08 217.673 249.93 217.503 245.124C217.501 245.049 217.368 245.031 217.363 245.116Z" fill="#263238"/>
<path d="M216.726 217.058L243.401 236.141C243.401 236.141 263.638 226.524 265.596 220.269C266.885 216.152 247.615 204.824 235.7 209.274L216.726 217.058Z" fill="#455A64"/>
<path d="M255.633 224.28L252.98 223.447L252.836 218.481L250.121 222.563L246.882 221.555L249.124 224.054L247.438 226.604L250.595 225.709L253.124 228.516L253.021 225.02L255.633 224.28ZM233.547 216.465L234.318 214.285L232.426 215.724L229.578 214.387L230.411 217.266L228.118 219.024L230.956 218.695L231.892 221.122L232.828 218.49L236.026 218.12L233.547 216.465ZM262.882 215.972C262.635 215.766 262.368 215.561 262.09 215.345H262.08L261.463 215.314L261.165 214.687V214.677C260.671 214.338 260.157 213.998 259.602 213.669L258.923 215.222L256.034 215.109L258.43 216.672L257.597 219.14L260.003 217.701L262.697 219.459L261.844 216.601L262.882 215.972ZM250.307 209.587C249.207 209.268 248.086 208.991 246.955 208.775L245.68 209.536L247.973 209.906L248.374 211.901L249.515 210.071L251.109 210.575L250.307 209.587Z" fill="#37474F"/>
<path d="M251.229 209.899C248.927 208.902 242.601 206.789 235.679 209.259C235.618 209.281 235.639 209.383 235.703 209.367C241.037 208.026 248.904 209.227 251.201 209.998C251.261 210.018 251.286 209.924 251.229 209.899Z" fill="#263238"/>
<path d="M248.366 230.856C245.545 228.601 242.607 226.498 239.663 224.404C236.717 222.309 233.775 220.206 230.776 218.184C229.082 217.042 227.394 215.888 225.66 214.805C225.615 214.777 225.556 214.845 225.6 214.88C228.415 217.133 231.348 219.25 234.273 221.36C237.205 223.475 240.162 225.562 243.136 227.619C244.817 228.781 246.518 229.914 248.252 230.998C248.338 231.052 248.449 230.922 248.366 230.856Z" fill="#263238"/>
<path d="M216.619 216.758C217.829 216.036 219.131 215.509 220.427 214.956C221.721 214.404 223.024 213.873 224.332 213.355C226.933 212.325 232.328 209.845 237.312 208.755C237.367 208.743 237.144 209.073 237.089 209.082C234.689 209.48 218.444 216.626 217.071 217.035C217.146 217.114 217.219 217.194 217.284 217.286C217.328 217.348 217.279 217.453 217.194 217.419C216.993 217.34 216.836 217.221 216.643 217.128C216.484 217.052 216.462 216.851 216.619 216.758Z" fill="#263238"/>
<path d="M227.154 212.909C228.1 213.598 229.129 214.184 230.347 213.978C230.705 213.916 231.048 213.777 231.405 213.718C231.997 213.622 232.469 213.793 232.994 214.026C233.563 214.277 234.118 214.517 234.726 214.667C236.569 215.12 238.746 214.962 239.96 213.376C242.126 215.139 245.472 215.086 247.611 213.261C247.892 213.018 248.152 212.746 248.376 212.451C248.687 212.039 248.907 211.448 249.389 211.196C249.852 210.948 250.522 210.998 251.033 210.932C251.462 210.873 251.895 210.794 252.302 210.641C253.377 210.24 254.307 209.1 253.957 207.971C255.494 208.117 256.831 206.922 257.514 205.585C258.407 203.84 258.443 201.785 257.708 199.988C259.91 198.892 260.844 195.975 259.668 193.807C261.629 192.394 261.851 189.338 260.108 187.657C261.074 185.845 261.048 183.792 260.109 181.964C259.9 181.558 259.817 181.209 259.799 180.838C260.476 179.649 260.839 178.331 260.355 176.956C259.863 175.558 258.527 174.582 257.048 174.618C256.975 174.068 256.713 172.93 255.744 171.583C254.782 170.246 253.192 169.446 251.559 169.614C250.51 165.79 246.406 163.752 242.737 165.224C242.429 163.346 240.763 161.979 238.945 161.577C236.735 161.089 234.514 161.994 232.607 163.072C232.004 161.591 230.456 160.66 228.817 161.022C227.59 161.293 226.649 162.249 226.233 163.397C224.895 163.251 223.455 163.352 222.381 164.221C221.446 164.972 220.949 166.187 221.247 167.333C217.917 167.259 215.648 170.706 216.986 173.708C214.992 173.266 212.809 173.925 211.485 175.53C210.071 177.237 209.926 179.732 210.956 181.649C209.072 181.923 207.556 183.437 207.08 185.283C206.512 187.477 207.412 189.769 208.807 191.461C207.295 192.646 206.703 194.753 207.248 196.602C207.745 198.287 209.059 199.537 210.596 200.308C208.788 200.108 207.174 199.254 206.473 197.308C205.653 195.033 206.835 192.7 208.749 191.418C208.765 191.407 208.747 191.382 208.731 191.39C206.5 192.557 205.227 194.984 206.083 197.462C206.91 199.857 209.19 200.875 211.511 200.788C210.415 202.62 210.342 205.003 211.493 206.841C212.667 208.71 214.886 209.67 217.044 209.445C217.817 214.276 223.74 217.018 227.154 212.909ZM259.829 180.149C259.835 180.096 259.837 180.05 259.844 179.994C259.898 179.579 259.924 179.165 259.876 178.746C259.769 177.816 259.366 176.92 258.756 176.21C258.463 175.868 258.122 175.567 257.744 175.325C257.535 175.195 257.08 174.976 257.08 174.976C257.08 174.976 257.078 174.9 257.069 174.786C258.622 175.079 259.801 176.155 260.101 177.734C260.265 178.597 260.109 179.384 259.829 180.149ZM226.689 163.454C226.682 163.453 226.674 163.452 226.667 163.451C227.025 162.446 227.687 161.607 228.875 161.323C230.576 160.917 231.644 161.882 232.422 163.175C232.388 163.194 232.353 163.213 232.319 163.232C231.4 162.099 229.792 161.691 228.417 162.193C227.708 162.449 227.134 162.895 226.689 163.454ZM218.175 211.344C220.157 213.996 223.994 214.782 226.92 212.738C226.934 212.749 226.949 212.759 226.963 212.769C223.658 215.938 220.157 214.424 218.175 211.344Z" fill="#263238"/>
<path d="M205.643 197.357C204.682 198.14 200.172 206.755 202.828 211.601C203.696 213.178 212.511 208.832 212.511 208.832L213.235 208.66L223.37 206.245L225.01 192.149L225.163 190.153C225.163 190.153 222.434 190.997 219.046 192.081C218.889 192.13 218.731 192.18 218.563 192.235C218.37 192.291 218.187 192.342 218.009 192.403C217.501 192.558 216.983 192.719 216.47 192.891C216.079 193.02 215.699 193.143 215.293 193.293C214.882 193.433 214.487 193.578 214.076 193.718C210.058 195.187 206.054 197.031 205.643 197.357Z" fill="#AD6359"/>
<path d="M219.046 192.082C213.054 198.249 212.929 205.505 213.234 208.661L223.369 206.246L225.009 192.15L225.162 190.154C225.162 190.154 222.434 190.997 219.046 192.082Z" fill="#263238"/>
<path d="M243.091 214.378C227.217 223.447 219.985 214.961 218.031 211.534C216.257 208.424 210.61 197.608 225.46 186.946C240.31 176.284 249.551 180.8 253.985 187.699C258.419 194.599 258.965 205.308 243.091 214.378Z" fill="#AD6359"/>
<path d="M223.894 188.844C227.365 191.573 231.184 189.858 231.184 189.858C235.302 193.344 239.956 194.016 240.43 194.089C240.042 194.147 237.246 194.569 235.814 194.739C242.86 204.033 252.293 203.281 252.293 203.281C250.638 208.266 248.848 209.992 248.029 211.004C248.029 211.004 254.357 207.932 256.951 202.59C260.128 196.052 256.447 191.141 256.447 191.141C256.447 191.141 254.833 181.989 245.011 179.168C234.425 176.136 223.894 188.844 223.894 188.844Z" fill="#263238"/>
<path d="M241.412 201.682C239.676 200.509 238.146 199.003 236.849 197.389C236.838 197.376 236.859 197.361 236.87 197.373C239.133 199.853 241.945 201.688 245.186 202.623C246.556 203.018 247.96 203.244 249.385 203.289C250.875 203.335 252.581 203.254 253.976 202.696C254.082 202.654 254.148 202.819 254.042 202.861C252.567 203.451 251.2 203.979 249.595 204.069C248.071 204.154 246.514 203.958 245.061 203.489C243.761 203.07 242.543 202.447 241.412 201.682Z" fill="#263238"/>
<path d="M225.684 190.166C225.684 190.166 229.19 184.15 226.811 182.395C224.432 180.64 218.181 186.832 218.43 190.067C218.679 193.302 221.678 193.133 221.678 193.133L225.684 190.166Z" fill="#AD6359"/>
<path d="M225.063 184.215C225.047 184.168 224.98 184.189 224.982 184.235C225.093 186.533 223.77 188.38 222.239 189.953C222.689 189.046 222.719 188.082 221.591 187.438C221.532 187.404 221.475 187.489 221.512 187.538C222.048 188.253 222.175 188.888 221.788 189.717C221.514 190.304 221.065 190.826 220.672 191.337C220.541 191.508 220.778 191.777 220.947 191.619C220.959 191.607 220.972 191.594 220.984 191.583C223.474 190.492 226.04 186.98 225.063 184.215Z" fill="#263238"/>
<path d="M243.848 210.785C243.861 210.351 243.8 209.948 243.768 209.517C243.732 209.031 243.754 208.64 243.44 208.239C243.272 208.024 242.874 207.981 242.65 208.124C242.128 208.458 242.024 209.065 242.044 209.651C242.065 210.288 242.244 210.773 242.662 211.253C243.066 211.719 243.831 211.358 243.848 210.785Z" fill="#263238"/>
<path d="M236.645 199.033C237.025 199.244 237.34 199.502 237.694 199.75C238.093 200.029 238.44 200.211 238.624 200.685C238.723 200.939 238.556 201.304 238.318 201.423C237.764 201.7 237.19 201.48 236.695 201.163C236.158 200.819 235.833 200.417 235.634 199.813C235.442 199.227 236.144 198.755 236.645 199.033Z" fill="#263238"/>
<path d="M224.281 206.206C224.117 206.592 223.85 207.017 223.98 207.455C224.105 207.874 224.474 208.279 224.764 208.594C224.793 208.625 224.768 208.678 224.724 208.668C224.158 208.54 223.629 208.012 223.512 207.435C223.398 206.871 223.752 206.431 224.185 206.115C224.245 206.07 224.305 206.149 224.281 206.206Z" fill="#263238"/>
<path d="M227.724 207.467C229.211 209.108 229.566 210.377 230.064 211.57C230.153 211.684 230.402 211.913 230.532 211.867L230.54 211.862C230.579 211.839 232.78 210.49 232.78 210.49C232.801 210.876 232.988 212.798 233.403 212.529C236.831 210.288 240.644 207.796 243.582 204.841C243.684 204.749 243.555 204.585 243.443 204.662C240.063 206.685 237.061 209.29 233.698 211.376C233.604 210.782 233.493 209.79 233.238 209.366C233.138 209.268 230.941 210.94 230.551 211.111C230.551 211.111 230.118 208.898 227.847 207.218C227.341 206.842 227.181 206.867 227.724 207.467Z" fill="#263238"/>
<path d="M227.313 210.273C227.727 210.73 230.211 210.646 229.956 209.679C229.701 208.712 228.22 206.853 226.534 206.665C225.056 206.501 227.077 208.797 227.083 209.306C227.088 209.732 227.015 209.944 227.313 210.273Z" fill="#263238"/>
<path d="M227.082 209.311C227.082 209.409 227.075 209.484 227.082 209.555C227.783 209.29 228.379 208.43 227.88 207.158C227.464 206.899 227.01 206.711 226.538 206.661C225.061 206.504 227.076 208.802 227.082 209.311Z" fill="#FF9ABB"/>
<path d="M235 203.111C235.034 203.075 234.895 203.064 234.853 203.095C233.841 203.846 232.554 204.535 231.561 203.837C231.53 203.815 231.48 203.854 231.509 203.886C232.463 204.916 234.161 203.984 235 203.111Z" fill="#263238"/>
<path d="M234.023 200.745C233.816 200.86 233.624 201.005 233.448 201.156C233.258 201.193 233.064 201.201 232.89 201.183C232.502 201.137 232.175 200.954 232.037 200.597C231.761 199.884 232.308 199.232 232.968 198.833C233.016 198.802 233.06 198.817 233.045 198.862C232.834 199.329 232.643 199.842 232.912 200.203C233.139 200.515 233.64 200.569 233.997 200.726C234.002 200.732 234.013 200.733 234.013 200.744L234.023 200.745Z" fill="#263238"/>
<path d="M233.898 203.919C233.608 204.054 233.265 204.13 232.893 204.093C232.522 204.056 232.169 203.812 231.952 203.508C231.729 203.194 231.693 202.732 231.824 202.394C231.955 202.056 232.156 201.782 232.393 201.564C232.543 201.425 232.705 201.306 232.872 201.191C233.228 200.955 233.618 200.784 234.035 200.734C233.767 200.892 233.523 201.077 233.307 201.282C233.097 201.475 232.913 201.673 232.743 201.883C232.395 202.324 232.201 202.833 232.462 203.173C232.706 203.553 233.194 203.624 233.74 203.469C234.275 203.321 234.813 203.063 235.354 202.787C234.969 203.261 234.484 203.658 233.898 203.919Z" fill="#263238"/>
<path d="M238.996 209.516C239.042 209.499 238.997 209.631 238.952 209.657C237.859 210.284 236.712 211.187 236.955 212.377C236.963 212.414 236.907 212.444 236.89 212.405C236.326 211.118 237.86 209.935 238.996 209.516Z" fill="#263238"/>
<path d="M240.774 211.358C240.585 211.502 240.376 211.62 240.167 211.721C240.057 211.88 239.972 212.054 239.919 212.222C239.806 212.596 239.843 212.969 240.114 213.238C240.657 213.777 241.473 213.535 242.103 213.091C242.15 213.059 242.154 213.013 242.108 213.009C241.596 213.015 241.049 212.985 240.826 212.595C240.631 212.263 240.782 211.782 240.781 211.391C240.778 211.384 240.781 211.373 240.771 211.369L240.774 211.358Z" fill="#263238"/>
<path d="M237.814 210.202C237.574 210.414 237.367 210.698 237.252 211.053C237.137 211.408 237.22 211.83 237.411 212.149C237.609 212.479 238.018 212.697 238.38 212.713C238.742 212.728 239.074 212.654 239.368 212.523C239.556 212.442 239.73 212.34 239.901 212.234C240.26 212.002 240.573 211.713 240.785 211.351C240.533 211.534 240.266 211.683 239.992 211.799C239.732 211.914 239.476 212.004 239.215 212.075C238.672 212.217 238.127 212.191 237.921 211.816C237.67 211.441 237.801 210.965 238.161 210.527C238.511 210.096 238.963 209.707 239.432 209.321C238.846 209.484 238.288 209.769 237.814 210.202Z" fill="#263238"/>
<path d="M233.598 219.74C234.176 218.807 235.249 218.185 236.521 218.316C237.532 218.42 238.46 219.059 238.901 219.975C239.486 221.189 239.231 222.48 238.449 223.35C238.805 223.847 239.02 224.466 239.051 225.15C239.115 226.571 238.232 227.938 236.907 228.455C235.17 229.133 233.372 228.356 232.594 226.862L232.461 226.888C230.563 227.263 228.73 225.79 228.828 223.734C228.876 222.712 229.481 221.749 230.377 221.255C230.779 221.034 231.192 220.913 231.598 220.877" fill="white"/>
<path d="M233.598 219.74C236.097 215.886 241.494 219.978 238.612 223.496L238.627 223.224C240.599 225.962 237.868 229.774 234.637 228.801C233.679 228.527 232.855 227.844 232.402 226.963L232.637 227.076C228.231 227.938 227.076 221.378 231.6 220.878C227.441 221.518 228.577 227.653 232.71 226.614C233.467 228.309 235.697 228.984 237.265 228.003C238.862 227.098 239.336 224.771 238.172 223.334C241.066 220.141 236.08 216.278 233.598 219.74Z" fill="#263238"/>
<path d="M229.957 219.519C229.23 217.786 228.661 216 228.255 214.165C228.984 215.897 229.55 217.684 229.957 219.519Z" fill="#263238"/>
<path d="M232.597 217.891C231.57 216.496 230.684 215.013 229.947 213.445C230.975 214.84 231.858 216.324 232.597 217.891Z" fill="#263238"/>
<path d="M231.766 219.76C230.821 218.111 230.027 216.39 229.389 214.6C230.335 216.248 231.126 217.97 231.766 219.76Z" fill="#263238"/>
<path d="M200.425 265.059L204.573 243.715C204.573 243.715 212.71 241.171 214.81 234.083C216.44 228.58 215.975 210.946 214.487 205.989C211.958 197.561 208.396 195.567 203.267 195.674C180.471 196.151 149.462 229.628 132.924 255.492L200.425 265.059Z" fill="#455A64"/>
<path d="M166.035 250.447L163.372 249.614L163.228 244.658L160.524 248.74L157.285 247.732L159.527 250.231L157.841 252.771L160.998 251.876L163.527 254.693L163.424 251.187L166.035 250.447ZM201.22 260.74L197.981 259.732L200.223 262.231L198.537 264.781L200.593 264.195L201.282 260.637L201.22 260.74ZM184.162 212.085L181.509 211.252L181.365 206.296L178.651 210.378L175.412 209.37L177.654 211.869L175.968 214.409L179.125 213.514L181.654 216.331L181.551 212.825L184.162 212.085ZM215.409 219.025L212.684 219.621L210.093 215.395L209.774 220.279L206.463 221.019L209.65 222.068L209.444 225.112L211.747 222.768L215.336 223.95L213.506 220.968L215.409 219.025ZM154.807 241.019L155.578 238.839L153.686 240.278L150.848 238.941L151.671 241.83L149.378 243.578L152.216 243.259L153.152 245.675L154.088 243.043L157.286 242.673L154.807 241.019ZM203.246 205.052L204.017 202.872L202.125 204.311L199.287 202.974L200.11 205.863L197.817 207.611L200.655 207.282L201.591 209.709L202.527 207.077L205.725 206.707L203.246 205.052ZM185.098 239.97L182.723 239.878L181.386 237.03L180.183 239.786L177.294 239.663L179.69 241.226L178.868 243.694L181.264 242.265L183.958 244.013L183.105 241.165L185.098 239.97ZM208.5 240.402L209.066 241.44C209.302 241.275 209.549 241.111 209.796 240.916L208.5 240.402ZM170.117 228.896L171.012 226.798L168.945 227.466L167.619 225.852L167.928 227.898L165.769 229.183L168.062 229.553L168.473 231.548L169.604 229.718L171.208 230.222L170.117 228.896Z" fill="#37474F"/>
<path d="M214.125 208.833C216.5 222.31 217.103 238.265 219.036 256.677C221.193 277.222 221.681 297.713 222.06 302.138C222.549 307.833 193.155 297.721 193.402 293.805C193.56 291.298 194.277 272.12 194.979 254.625C195.68 237.13 199.911 219.046 202.328 207.359C205.118 193.867 212.376 198.903 214.125 208.833Z" fill="#AD6359"/>
<path d="M221.589 292.998C221.589 292.998 221.883 295.011 222.481 304.88C222.894 311.704 219.539 328.591 202.103 336.663C195.422 339.756 190.335 336.42 196.705 331.974C201.191 328.843 204.57 327.058 205.747 325.627C205.747 325.627 197.388 325.1 194.833 320.975C193.691 319.131 190.693 314.026 188.925 309.718C188.925 309.718 189.76 309.081 190.932 308.424C190.932 308.424 189.316 299.326 193.402 293.806L221.589 292.998Z" fill="#AD6359"/>
<path d="M221.835 311.456C219.646 314.293 214.906 320.228 209.34 323.735C203.158 327.63 190.198 333.466 187.37 328.872C185.296 325.504 190.049 322.841 190.049 322.841C190.049 322.841 184.184 324.124 182.977 320.672C181.876 317.526 185.676 315.686 185.676 315.686C185.676 315.686 181.985 315.853 181.508 312.618C180.935 308.727 188.766 309.016 191.59 304.575C192.224 303.576 221.835 311.456 221.835 311.456Z" fill="#AD6359"/>
<path d="M206.315 316.515C203.819 318.846 196.792 322.684 190.182 322.913C190.032 322.918 189.948 322.808 190.084 322.774C197.308 320.976 203.661 317.916 206.279 316.456C206.313 316.437 206.343 316.489 206.315 316.515Z" fill="#263238"/>
<path d="M202.202 310.388C199.842 312.178 192.422 315.81 185.716 315.813C185.566 315.813 185.489 315.697 185.626 315.668C193.252 314.1 199.468 311.629 202.169 310.327C202.205 310.31 202.232 310.365 202.202 310.388Z" fill="#263238"/>
<path d="M223.814 292.921L190.562 291.587C190.562 291.587 191.929 259.95 192.727 249.155C193.525 238.36 199.828 213.237 202.595 204.259C205.362 195.281 211.66 197.4 214.239 207.275C216.817 217.149 218.945 250.621 219.248 251.654C219.551 252.685 223.814 292.921 223.814 292.921Z" fill="#455A64"/>
<path d="M206.731 262.457L204.078 261.624L203.934 256.658L201.219 260.74L197.98 259.732L200.222 262.231L198.536 264.781L201.693 263.886L204.222 266.693L204.119 263.197L206.731 262.457ZM215.409 219.025L212.684 219.621L210.093 215.395L209.774 220.279L206.463 221.019L209.65 222.068L209.444 225.112L211.747 222.768L215.336 223.95L213.506 220.968L215.409 219.025ZM203.246 205.052L204.017 202.872L202.732 203.849C202.681 203.983 202.639 204.116 202.598 204.26C202.207 205.504 201.755 207.067 201.261 208.856L201.59 209.709L202.526 207.077L205.724 206.707L203.246 205.052ZM215.718 271.618L213.353 271.525L212.006 268.677L210.803 271.433L207.924 271.32L210.32 272.873L209.487 275.341L211.893 273.912L214.587 275.67L213.734 272.812L215.718 271.618ZM211.8 241.872L212.273 239.826L210.834 241.327L208.5 240.402L209.611 242.448L208.274 243.99L210.423 243.764L210.999 245.337L211.39 243.661L213.59 243.095L211.8 241.872ZM198.526 287.977L199.431 285.89L197.354 286.558L196.038 284.944L196.336 286.99L194.187 288.275L196.48 288.645L196.881 290.64L198.022 288.81L199.616 289.314L198.526 287.977Z" fill="#37474F"/>
<path d="M207.085 285.883C209.288 285.957 211.492 285.98 213.696 286.003C214.754 286.014 215.813 286.034 216.871 286.011C218.01 285.986 219.181 286.051 220.314 285.945C220.393 285.938 220.399 285.834 220.319 285.821C219.196 285.644 218.024 285.639 216.89 285.54C215.837 285.448 214.778 285.405 213.722 285.349C211.521 285.233 209.321 285.118 207.119 285.053C202.706 284.924 198.306 284.92 193.892 284.97C193.786 284.971 193.779 285.127 193.885 285.135C198.284 285.463 202.675 285.735 207.085 285.883Z" fill="#263238"/>
<path d="M191.62 268.781C191.94 259.82 191.828 250.784 193.11 241.898C194.716 233.055 196.878 224.349 199.431 215.74C197.851 223.524 195.383 234.356 194.096 242.063C192.722 250.9 192.743 259.9 191.62 268.781Z" fill="#263238"/>
<path d="M196.677 226.279C196.412 224.066 196.484 221.858 196.902 219.668C197.17 221.88 197.092 224.089 196.677 226.279Z" fill="#263238"/>
<path d="M131.488 368.447C130.871 367.893 133.733 359.219 136.07 357.724C138.408 356.228 152.849 356.501 154.45 359.316C156.052 362.131 153.54 370.89 152.5 371.026C151.46 371.162 148.701 370.827 148.185 370.21C147.668 369.593 149.403 364.09 148.628 363.074C147.609 361.738 139.423 361.634 138.622 362.463C137.82 363.292 136.813 368.182 136.649 368.493C136.484 368.803 132.483 369.341 131.488 368.447Z" fill="#FFC727"/>
<path d="M171.461 448.026C168.242 454.001 157.368 461.674 150.97 462.666C144.582 463.647 102.289 468.501 95.674 459.503C89.654 451.316 102.714 393.757 115.089 375.655C116.209 374.009 117.328 372.691 118.42 371.772C118.512 371.69 118.596 371.627 118.679 371.555C130.276 362.383 152.918 367.821 155.759 368.674C160.183 370.013 166.363 373.985 169.395 382.526C172.435 391.068 174.689 442.05 171.461 448.026Z" fill="#455A64"/>
<path d="M147.543 443.823C146.802 448.058 139.919 457.943 131.984 460.298C124.058 462.661 95.6709 459.506 89.4149 453.813C88.7149 453.176 88.2389 451.887 87.9779 450.093C86.1139 437.287 94.8219 398.742 104.08 387.173C105.085 385.917 106.098 384.971 107.116 384.424C108.376 383.733 109.789 383.147 111.303 382.651C118.606 380.278 128.464 380.06 136.103 382.02C141.033 383.295 145.042 385.476 146.835 388.58C151.401 396.464 148.285 439.596 147.543 443.823Z" fill="#FFC727"/>
<path opacity="0.1" d="M147.543 443.823C146.802 448.058 139.919 457.943 131.984 460.298C124.058 462.661 95.671 459.506 89.415 453.813C88.715 453.176 88.239 451.887 87.978 450.093C92.904 453.228 98.695 454.915 104.482 455.565C108.703 456.039 113.003 456.059 117.235 455.771C121.44 455.476 125.765 454.664 129.269 452.089C135.885 447.236 138.328 437.788 139.373 429.869C140.5 421.228 140.109 412.322 139.531 403.651C139.043 396.342 138.115 389.039 136.103 382.02C141.033 383.295 145.042 385.476 146.835 388.58C151.401 396.464 148.285 439.596 147.543 443.823Z" fill="black"/>
<path d="M142.549 426.687L140.617 426.549C141.279 417.616 142.039 393.407 137.701 388.63C133.486 383.982 116.623 382.963 109.596 385.032C107.311 385.706 105.476 386.472 104.083 387.176C105.089 385.913 106.102 384.969 107.117 384.421C108.376 383.735 109.785 383.146 111.306 382.649C119.822 381.118 134.75 382.493 139.14 387.334C144.917 393.696 142.641 425.347 142.549 426.687Z" fill="#263238"/>
<path d="M165.497 419.449L163.564 419.475C162.928 383.493 161.25 382.142 154.194 376.457L153.951 376.257C147.077 370.727 130.6 371.137 124.138 372.181C118.95 373.011 115.34 375.477 115.089 375.655C116.209 374.009 117.328 372.691 118.42 371.772C119.925 371.169 121.762 370.606 123.823 370.273C128.358 369.536 146.979 368.159 155.157 374.761L155.399 374.951C162.849 380.944 164.851 382.558 165.497 419.449Z" fill="#263238"/>
<path d="M176.651 447.038C175.515 451.71 164.398 460.881 158.963 462.801C157.865 463.197 148.708 464.907 148.349 461.218C148.324 460.976 148.306 460.726 148.289 460.475C147.668 450.835 151.99 430.014 153.003 427.216C154.198 423.918 164.621 417.812 170.798 416.618C172.154 416.352 173.312 416.327 174.115 416.613C178.605 418.233 177.362 444.076 176.651 447.038Z" fill="#37474F"/>
</svg>
