<svg width="12" height="12" viewBox="0 0 12 12" fill="none" xmlns="http://www.w3.org/2000/svg">
<path d="M2.31 9.06C2.82 8.67 3.39 8.3625 4.02 8.1375C4.65 7.9125 5.31 7.8 6 7.8C6.69 7.8 7.35 7.9125 7.98 8.1375C8.61 8.3625 9.18 8.67 9.69 9.06C10.04 8.65 10.3125 8.185 10.5075 7.665C10.7025 7.145 10.8 6.59 10.8 6C10.8 4.67 10.3325 3.5375 9.3975 2.6025C8.4625 1.6675 7.33 1.2 6 1.2C4.67 1.2 3.5375 1.6675 2.6025 2.6025C1.6675 3.5375 1.2 4.67 1.2 6C1.2 6.59 1.2975 7.145 1.4925 7.665C1.6875 8.185 1.96 8.65 2.31 9.06ZM6 6.6C5.41 6.6 4.9125 6.3975 4.5075 5.9925C4.1025 5.5875 3.9 5.09 3.9 4.5C3.9 3.91 4.1025 3.4125 4.5075 3.0075C4.9125 2.6025 5.41 2.4 6 2.4C6.59 2.4 7.0875 2.6025 7.4925 3.0075C7.8975 3.4125 8.1 3.91 8.1 4.5C8.1 5.09 7.8975 5.5875 7.4925 5.9925C7.0875 6.3975 6.59 6.6 6 6.6ZM6 12C5.17 12 4.39 11.8425 3.66 11.5275C2.93 11.2125 2.295 10.785 1.755 10.245C1.215 9.705 0.7875 9.07 0.4725 8.34C0.1575 7.61 0 6.83 0 6C0 5.17 0.1575 4.39 0.4725 3.66C0.7875 2.93 1.215 2.295 1.755 1.755C2.295 1.215 2.93 0.7875 3.66 0.4725C4.39 0.1575 5.17 0 6 0C6.83 0 7.61 0.1575 8.34 0.4725C9.07 0.7875 9.705 1.215 10.245 1.755C10.785 2.295 11.2125 2.93 11.5275 3.66C11.8425 4.39 12 5.17 12 6C12 6.83 11.8425 7.61 11.5275 8.34C11.2125 9.07 10.785 9.705 10.245 10.245C9.705 10.785 9.07 11.2125 8.34 11.5275C7.61 11.8425 6.83 12 6 12ZM6 10.8C6.53 10.8 7.03 10.7225 7.5 10.5675C7.97 10.4125 8.4 10.19 8.79 9.9C8.4 9.61 7.97 9.3875 7.5 9.2325C7.03 9.0775 6.53 9 6 9C5.47 9 4.97 9.0775 4.5 9.2325C4.03 9.3875 3.6 9.61 3.21 9.9C3.6 10.19 4.03 10.4125 4.5 10.5675C4.97 10.7225 5.47 10.8 6 10.8ZM6 5.4C6.26 5.4 6.475 5.315 6.645 5.145C6.815 4.975 6.9 4.76 6.9 4.5C6.9 4.24 6.815 4.025 6.645 3.855C6.475 3.685 6.26 3.6 6 3.6C5.74 3.6 5.525 3.685 5.355 3.855C5.185 4.025 5.1 4.24 5.1 4.5C5.1 4.76 5.185 4.975 5.355 5.145C5.525 5.315 5.74 5.4 6 5.4Z" fill="white"/>
</svg>
