<svg width="364" height="364" viewBox="0 0 364 364" fill="none" xmlns="http://www.w3.org/2000/svg">
<path d="M0 22.4312V44.8625H22.4314H44.8627V22.4312V-0.000198364H22.4314H0V22.4312ZM38.7451 22.941V38.7449H22.9412H7.13726V22.941V7.13706H22.9412H38.7451V22.941Z" fill="black"/>
<path d="M13.2549 22.9412V32.6274H22.9412H32.6275V22.9412V13.2549H22.9412H13.2549V22.9412Z" fill="black"/>
<path d="M50.9803 3.56858C50.9803 6.93329 51.1843 7.13721 54.549 7.13721C57.9137 7.13721 58.1176 6.93329 58.1176 3.56858C58.1176 0.203873 57.9137 -4.86374e-05 54.549 -4.86374e-05C51.1843 -4.86374e-05 50.9803 0.203873 50.9803 3.56858Z" fill="black"/>
<path d="M70.3529 3.56863C70.3529 6.83136 70.149 7.13724 67.2941 7.13724C64.5412 7.13724 64.2353 7.44315 64.2353 10.1961V13.2549H57.6078H50.9804V22.9412V32.6274H54.549C57.8118 32.6274 58.1176 32.8314 58.1176 35.6863C58.1176 38.5412 57.8118 38.7451 54.549 38.7451C51.2863 38.7451 50.9804 38.949 50.9804 41.8039C50.9804 44.6588 51.2863 44.8627 54.549 44.8627C57.9137 44.8627 58.1176 45.0667 58.1176 48.4314C58.1176 51.7961 57.9137 52 54.549 52C51.2863 52 50.9804 52.2039 50.9804 55.0588C50.9804 57.9137 51.2863 58.1176 54.549 58.1176C57.8118 58.1176 58.1176 57.9137 58.1176 55.0588C58.1176 52.3059 58.4235 52 61.1765 52C63.9294 52 64.2353 52.3059 64.2353 55.0588V58.1176H80.0392H95.8431V61.1765C95.8431 63.9294 95.5373 64.2353 92.7843 64.2353C90.0314 64.2353 89.7255 64.5412 89.7255 67.2941C89.7255 70.0471 90.0314 70.3529 92.7843 70.3529H95.8431V76.9804V83.6078H89.7255H83.6078V73.9216V64.2353H76.9804H70.3529V67.2941C70.3529 70.0471 70.0471 70.3529 67.2941 70.3529C64.5412 70.3529 64.2353 70.0471 64.2353 67.2941C64.2353 64.5412 63.9294 64.2353 61.1765 64.2353C58.4235 64.2353 58.1176 64.5412 58.1176 67.2941C58.1176 70.149 57.8118 70.3529 54.549 70.3529C51.2863 70.3529 50.9804 70.149 50.9804 67.2941V64.2353H38.2353H25.4902V67.2941C25.4902 70.0471 25.1843 70.3529 22.4314 70.3529H19.3725V64.2353V58.1176H22.4314C25.1843 58.1176 25.4902 57.8118 25.4902 55.0588V52H12.7451H0V55.0588V58.1176H6.62745H13.2549V64.2353V70.3529H10.1961C7.44314 70.3529 7.13726 70.0471 7.13726 67.2941C7.13726 64.4392 6.83137 64.2353 3.56863 64.2353C0.305882 64.2353 0 64.4392 0 67.2941C0 70.149 0.305882 70.3529 3.56863 70.3529C6.93333 70.3529 7.13726 70.5569 7.13726 73.9216C7.13726 77.2863 6.93333 77.4902 3.56863 77.4902C0.305882 77.4902 0 77.6941 0 80.549C0 83.4039 0.305882 83.6078 3.56863 83.6078C6.83137 83.6078 7.13726 83.8118 7.13726 86.6667C7.13726 89.5216 6.83137 89.7255 3.56863 89.7255H0V99.4118V109.098H3.56863C6.83137 109.098 7.13726 109.302 7.13726 112.157C7.13726 115.012 6.83137 115.216 3.56863 115.216C0.305882 115.216 0 115.42 0 118.275V121.333H6.62745H13.2549V124.902V128.471H22.9412H32.6275V131.529V134.588H38.7451H44.8627V137.647V140.706H38.7451H32.6275V143.765V146.824H22.9412H13.2549V143.765C13.2549 141.012 13.5608 140.706 16.3137 140.706C19.0667 140.706 19.3725 140.4 19.3725 137.647V134.588H13.2549H7.13726V131.529C7.13726 128.674 6.83137 128.471 3.56863 128.471H0V134.588V140.706H3.56863C6.83137 140.706 7.13726 140.91 7.13726 143.765C7.13726 146.518 7.44314 146.824 10.1961 146.824H13.2549V153.451V160.078H10.1961C7.44314 160.078 7.13726 159.773 7.13726 157.02C7.13726 154.165 6.83137 153.961 3.56863 153.961H0V160.078V166.196H3.56863C6.83137 166.196 7.13726 166.4 7.13726 169.255C7.13726 172.008 7.44314 172.314 10.1961 172.314C13.051 172.314 13.2549 172.62 13.2549 175.882C13.2549 179.145 13.051 179.451 10.1961 179.451C7.44314 179.451 7.13726 179.757 7.13726 182.51C7.13726 185.365 6.83137 185.569 3.56863 185.569H0V195.255V204.941H6.62745H13.2549V208C13.2549 210.753 13.5608 211.059 16.3137 211.059H19.3725V217.176V223.294H13.2549H7.13726V220.235C7.13726 217.38 6.83137 217.176 3.56863 217.176H0V229.922V242.667H3.56863C6.83137 242.667 7.13726 242.871 7.13726 245.725C7.13726 248.58 6.83137 248.784 3.56863 248.784H0V261.529V274.275H3.56863H7.13726V280.902V287.529H3.56863H0V297.216V306.902H16.3137H32.6275V303.333V299.765H38.7451H44.8627V296.706C44.8627 293.953 45.1686 293.647 47.9216 293.647H50.9804V300.275V306.902H54.549C57.8118 306.902 58.1176 307.106 58.1176 309.961C58.1176 312.816 57.8118 313.02 54.549 313.02C51.2863 313.02 50.9804 313.224 50.9804 316.078C50.9804 318.933 51.2863 319.137 54.549 319.137H58.1176V328.824V338.51H54.549H50.9804V351.255V364H54.549H58.1176V351.255V338.51H61.1765H64.2353V344.627V350.745H70.3529H76.4706V354.314C76.4706 357.678 76.6745 357.882 80.0392 357.882C83.302 357.882 83.6078 358.086 83.6078 360.941C83.6078 363.694 83.9137 364 86.6667 364C89.4196 364 89.7255 363.694 89.7255 360.941C89.7255 358.188 90.0314 357.882 92.7843 357.882C95.5373 357.882 95.8431 358.188 95.8431 360.941C95.8431 363.694 96.149 364 98.902 364C101.655 364 101.961 363.694 101.961 360.941C101.961 358.188 101.655 357.882 98.902 357.882H95.8431V351.255V344.627H92.7843C90.0314 344.627 89.7255 344.322 89.7255 341.569V338.51H95.8431H101.961V341.569C101.961 344.424 102.267 344.627 105.529 344.627C108.792 344.627 109.098 344.831 109.098 347.686C109.098 350.439 109.404 350.745 112.157 350.745C115.012 350.745 115.216 351.051 115.216 354.314C115.216 357.576 115.42 357.882 118.275 357.882C121.027 357.882 121.333 358.188 121.333 360.941V364H134.078H146.824V360.941C146.824 358.188 147.129 357.882 149.882 357.882C152.635 357.882 152.941 358.188 152.941 360.941C152.941 363.796 153.247 364 156.51 364C159.773 364 160.078 363.796 160.078 360.941C160.078 358.086 159.773 357.882 156.51 357.882C153.145 357.882 152.941 357.678 152.941 354.314V350.745H159.569H166.196V357.373V364H175.882H185.569V360.941C185.569 358.188 185.875 357.882 188.627 357.882C191.482 357.882 191.686 357.576 191.686 354.314C191.686 351.051 191.89 350.745 194.745 350.745C197.498 350.745 197.804 350.439 197.804 347.686V344.627H207.49H217.176V347.686V350.745H210.549H203.922V357.373V364H207.49C210.753 364 211.059 363.796 211.059 360.941C211.059 358.188 211.365 357.882 214.118 357.882C216.973 357.882 217.176 357.576 217.176 354.314C217.176 351.051 217.38 350.745 220.235 350.745C223.09 350.745 223.294 351.051 223.294 354.314C223.294 357.678 223.498 357.882 226.863 357.882C230.125 357.882 230.431 358.086 230.431 360.941V364H236.549H242.667V360.941C242.667 358.188 242.973 357.882 245.725 357.882C248.58 357.882 248.784 357.576 248.784 354.314C248.784 350.949 248.988 350.745 252.353 350.745C255.718 350.745 255.922 350.949 255.922 354.314C255.922 357.576 256.125 357.882 258.98 357.882C261.733 357.882 262.039 358.188 262.039 360.941C262.039 363.694 262.345 364 265.098 364C267.851 364 268.157 363.694 268.157 360.941C268.157 358.188 267.851 357.882 265.098 357.882C262.243 357.882 262.039 357.576 262.039 354.314C262.039 351.051 262.243 350.745 265.098 350.745H268.157V341.569V332.392H274.784H281.412V338.51V344.627H277.843H274.275V351.255V357.882H277.843H281.412V351.255V344.627H287.529H293.647V341.569C293.647 338.816 293.341 338.51 290.588 338.51H287.529V331.882V325.255H293.647H299.765V344.627V364H303.333H306.902V354.314V344.627H313.02H319.137V347.686C319.137 350.439 318.831 350.745 316.078 350.745H313.02V357.373V364H328.824H344.627V360.941V357.882H351.255H357.882V354.314C357.882 350.949 357.678 350.745 354.314 350.745C351.051 350.745 350.745 350.541 350.745 347.686C350.745 344.933 350.439 344.627 347.686 344.627C344.933 344.627 344.627 344.322 344.627 341.569C344.627 338.816 344.322 338.51 341.569 338.51C338.816 338.51 338.51 338.204 338.51 335.451C338.51 332.698 338.816 332.392 341.569 332.392C344.424 332.392 344.627 332.086 344.627 328.824C344.627 325.561 344.831 325.255 347.686 325.255C350.541 325.255 350.745 325.561 350.745 328.824C350.745 332.188 350.949 332.392 354.314 332.392C357.576 332.392 357.882 332.596 357.882 335.451C357.882 338.204 358.188 338.51 360.941 338.51H364V325.765V313.02H360.941C358.188 313.02 357.882 312.714 357.882 309.961C357.882 307.208 358.188 306.902 360.941 306.902H364V297.216V287.529H351.255H338.51V284.471C338.51 281.718 338.816 281.412 341.569 281.412H344.627V271.725V262.039H347.686H350.745V268.157V274.275H354.314C357.678 274.275 357.882 274.478 357.882 277.843C357.882 281.106 358.086 281.412 360.941 281.412H364V274.784V268.157H360.941C358.188 268.157 357.882 267.851 357.882 265.098C357.882 262.243 357.576 262.039 354.314 262.039C351.051 262.039 350.745 261.835 350.745 258.98C350.745 256.227 350.439 255.922 347.686 255.922C344.933 255.922 344.627 256.227 344.627 258.98V262.039H334.941H325.255V258.98C325.255 256.125 325.561 255.922 328.824 255.922C332.188 255.922 332.392 255.718 332.392 252.353C332.392 248.988 332.188 248.784 328.824 248.784C325.561 248.784 325.255 248.58 325.255 245.725V242.667H334.941H344.627V245.725C344.627 248.478 344.933 248.784 347.686 248.784C350.439 248.784 350.745 248.478 350.745 245.725C350.745 242.973 350.439 242.667 347.686 242.667C344.933 242.667 344.627 242.361 344.627 239.608C344.627 236.855 344.322 236.549 341.569 236.549C338.816 236.549 338.51 236.243 338.51 233.49C338.51 230.737 338.816 230.431 341.569 230.431C344.424 230.431 344.627 230.125 344.627 226.863C344.627 223.6 344.831 223.294 347.686 223.294C350.541 223.294 350.745 223.6 350.745 226.863V230.431H357.373H364V220.745V211.059H360.941C358.188 211.059 357.882 211.365 357.882 214.118C357.882 216.973 357.576 217.176 354.314 217.176C351.051 217.176 350.745 216.973 350.745 214.118C350.745 211.365 350.439 211.059 347.686 211.059C344.933 211.059 344.627 210.753 344.627 208C344.627 205.247 344.933 204.941 347.686 204.941C350.541 204.941 350.745 204.635 350.745 201.373C350.745 198.11 350.541 197.804 347.686 197.804C344.933 197.804 344.627 197.498 344.627 194.745C344.627 191.992 344.322 191.686 341.569 191.686H338.51V185.569V179.451H344.627H350.745V182.51V185.569H357.373H364V182.51C364 179.757 363.694 179.451 360.941 179.451C358.086 179.451 357.882 179.145 357.882 175.882C357.882 172.62 358.086 172.314 360.941 172.314H364V166.196V160.078H357.373H350.745V157.02C350.745 154.165 351.051 153.961 354.314 153.961C357.678 153.961 357.882 153.757 357.882 150.392C357.882 147.129 358.086 146.824 360.941 146.824C363.694 146.824 364 146.518 364 143.765C364 141.012 363.694 140.706 360.941 140.706C358.188 140.706 357.882 141.012 357.882 143.765C357.882 146.62 357.576 146.824 354.314 146.824C350.949 146.824 350.745 147.027 350.745 150.392C350.745 153.655 350.541 153.961 347.686 153.961H344.627V147.333V140.706H347.686C350.439 140.706 350.745 140.4 350.745 137.647C350.745 134.894 350.439 134.588 347.686 134.588C344.933 134.588 344.627 134.282 344.627 131.529V128.471H351.255H357.882V118.784V109.098H360.941H364V102.471V95.8431H360.941C358.086 95.8431 357.882 96.149 357.882 99.4118V102.98H351.255H344.627V99.4118C344.627 96.149 344.831 95.8431 347.686 95.8431C350.439 95.8431 350.745 95.5373 350.745 92.7843C350.745 90.0314 350.439 89.7255 347.686 89.7255C344.933 89.7255 344.627 90.0314 344.627 92.7843C344.627 95.5373 344.322 95.8431 341.569 95.8431H338.51V86.6667V77.4902H341.569C344.322 77.4902 344.627 77.7961 344.627 80.549V83.6078H351.255H357.882V86.6667C357.882 89.4196 358.188 89.7255 360.941 89.7255C363.694 89.7255 364 89.4196 364 86.6667C364 83.9137 363.694 83.6078 360.941 83.6078C358.188 83.6078 357.882 83.302 357.882 80.549C357.882 77.7961 358.188 77.4902 360.941 77.4902H364V70.8627V64.2353H360.941H357.882V70.8627V77.4902H351.255H344.627V73.9216C344.627 70.6588 344.831 70.3529 347.686 70.3529C350.439 70.3529 350.745 70.0471 350.745 67.2941C350.745 64.5412 350.439 64.2353 347.686 64.2353C344.933 64.2353 344.627 63.9294 344.627 61.1765C344.627 58.4235 344.933 58.1176 347.686 58.1176C350.439 58.1176 350.745 57.8118 350.745 55.0588V52H341.569H332.392V55.0588V58.1176H325.765H319.137V55.0588C319.137 52.3059 318.831 52 316.078 52C313.326 52 313.02 52.3059 313.02 55.0588C313.02 57.8118 312.714 58.1176 309.961 58.1176C307.208 58.1176 306.902 57.8118 306.902 55.0588V52H300.275H293.647V48.4314C293.647 45.1686 293.851 44.8627 296.706 44.8627H299.765V38.7451V32.6274H303.333H306.902V16.3137V0H300.275H293.647V3.56863C293.647 6.83136 293.851 7.13724 296.706 7.13724C299.459 7.13724 299.765 7.44315 299.765 10.1961C299.765 12.949 299.459 13.2549 296.706 13.2549C293.953 13.2549 293.647 13.5608 293.647 16.3137C293.647 19.0667 293.953 19.3726 296.706 19.3726H299.765V26V32.6274H296.706C293.851 32.6274 293.647 32.3216 293.647 29.0588C293.647 25.7961 293.443 25.4902 290.588 25.4902H287.529V32.1176V38.7451H284.471C281.718 38.7451 281.412 39.051 281.412 41.8039C281.412 44.6588 281.106 44.8627 277.843 44.8627C274.58 44.8627 274.275 44.6588 274.275 41.8039C274.275 39.051 273.969 38.7451 271.216 38.7451C268.463 38.7451 268.157 38.4392 268.157 35.6863C268.157 32.9333 268.463 32.6274 271.216 32.6274C274.071 32.6274 274.275 32.3216 274.275 29.0588C274.275 25.6941 274.478 25.4902 277.843 25.4902C281.106 25.4902 281.412 25.2863 281.412 22.4314V19.3726H274.784H268.157V13.2549V7.13724H265.098C262.243 7.13724 262.039 6.83136 262.039 3.56863C262.039 0.305878 261.835 0 258.98 0C256.125 0 255.922 0.305878 255.922 3.56863C255.922 6.83136 256.125 7.13724 258.98 7.13724C261.733 7.13724 262.039 7.44315 262.039 10.1961C262.039 12.949 261.733 13.2549 258.98 13.2549C256.227 13.2549 255.922 13.5608 255.922 16.3137C255.922 19.1686 255.616 19.3726 252.353 19.3726C249.09 19.3726 248.784 19.5765 248.784 22.4314C248.784 25.1843 248.478 25.4902 245.725 25.4902C242.973 25.4902 242.667 25.1843 242.667 22.4314C242.667 19.6784 242.361 19.3726 239.608 19.3726C236.855 19.3726 236.549 19.6784 236.549 22.4314C236.549 25.1843 236.243 25.4902 233.49 25.4902H230.431V19.3726V13.2549H226.863C223.6 13.2549 223.294 13.051 223.294 10.1961V7.13724H229.922H236.549V10.1961V13.2549H242.667H248.784V6.62744V0H236.039H223.294V3.56863C223.294 6.83136 223.09 7.13724 220.235 7.13724C217.38 7.13724 217.176 6.83136 217.176 3.56863V0H210.549H203.922V3.56863C203.922 6.83136 203.718 7.13724 200.863 7.13724C198.11 7.13724 197.804 7.44315 197.804 10.1961V13.2549H204.431H211.059V16.3137V19.3726H204.431H197.804V22.4314C197.804 25.1843 197.498 25.4902 194.745 25.4902C191.992 25.4902 191.686 25.1843 191.686 22.4314C191.686 19.6784 191.38 19.3726 188.627 19.3726C185.875 19.3726 185.569 19.0667 185.569 16.3137C185.569 13.4588 185.263 13.2549 182 13.2549C178.737 13.2549 178.431 13.051 178.431 10.1961V7.13724H185.059H191.686V3.56863V0H172.314H152.941V3.56863C152.941 6.83136 152.737 7.13724 149.882 7.13724H146.824V13.2549V19.3726H149.882H152.941V35.6863V52H146.824H140.706V48.4314C140.706 45.1686 140.91 44.8627 143.765 44.8627H146.824V38.7451V32.6274H140.706H134.588V29.0588C134.588 25.6941 134.384 25.4902 131.02 25.4902C127.757 25.4902 127.451 25.2863 127.451 22.4314C127.451 19.6784 127.145 19.3726 124.392 19.3726C121.639 19.3726 121.333 19.0667 121.333 16.3137C121.333 13.5608 121.027 13.2549 118.275 13.2549H115.216V6.62744V0H112.157C109.302 0 109.098 0.305878 109.098 3.56863C109.098 6.93332 108.894 7.13724 105.529 7.13724C102.165 7.13724 101.961 6.93332 101.961 3.56863V0H92.7843H83.6078V6.62744V13.2549H80.0392H76.4706V19.3726V25.4902H80.0392C83.4039 25.4902 83.6078 25.6941 83.6078 29.0588C83.6078 32.4235 83.4039 32.6274 80.0392 32.6274H76.4706V38.7451V44.8627H73.4118H70.3529V32.1176V19.3726H67.2941C64.5412 19.3726 64.2353 19.0667 64.2353 16.3137C64.2353 13.5608 64.5412 13.2549 67.2941 13.2549C70.0471 13.2549 70.3529 12.949 70.3529 10.1961C70.3529 7.44315 70.6588 7.13724 73.4118 7.13724C76.2667 7.13724 76.4706 6.83136 76.4706 3.56863C76.4706 0.305878 76.2667 0 73.4118 0C70.5569 0 70.3529 0.305878 70.3529 3.56863ZM101.961 10.1961C101.961 12.949 101.655 13.2549 98.902 13.2549C96.149 13.2549 95.8431 12.949 95.8431 10.1961C95.8431 7.44315 96.149 7.13724 98.902 7.13724C101.655 7.13724 101.961 7.44315 101.961 10.1961ZM166.196 16.3137V25.4902H163.137C160.384 25.4902 160.078 25.1843 160.078 22.4314C160.078 19.5765 159.773 19.3726 156.51 19.3726H152.941V13.2549V7.13724H159.569H166.196V16.3137ZM217.176 10.1961C217.176 12.949 216.871 13.2549 214.118 13.2549C211.365 13.2549 211.059 12.949 211.059 10.1961C211.059 7.44315 211.365 7.13724 214.118 7.13724C216.871 7.13724 217.176 7.44315 217.176 10.1961ZM178.431 16.3137C178.431 19.1686 178.737 19.3726 182 19.3726C185.263 19.3726 185.569 19.5765 185.569 22.4314C185.569 25.2863 185.263 25.4902 182 25.4902C178.737 25.4902 178.431 25.2863 178.431 22.4314C178.431 19.6784 178.125 19.3726 175.373 19.3726C172.62 19.3726 172.314 19.0667 172.314 16.3137C172.314 13.5608 172.62 13.2549 175.373 13.2549C178.125 13.2549 178.431 13.5608 178.431 16.3137ZM115.216 22.4314V25.4902H108.588H101.961V22.4314V19.3726H108.588H115.216V22.4314ZM223.294 22.4314C223.294 25.1843 222.988 25.4902 220.235 25.4902C217.38 25.4902 217.176 25.7961 217.176 29.0588C217.176 32.3216 216.973 32.6274 214.118 32.6274C211.365 32.6274 211.059 32.9333 211.059 35.6863C211.059 38.4392 211.365 38.7451 214.118 38.7451C216.871 38.7451 217.176 39.051 217.176 41.8039C217.176 44.5569 217.482 44.8627 220.235 44.8627C222.988 44.8627 223.294 44.5569 223.294 41.8039C223.294 38.949 223.6 38.7451 226.863 38.7451C230.125 38.7451 230.431 38.5412 230.431 35.6863C230.431 32.9333 230.737 32.6274 233.49 32.6274C236.345 32.6274 236.549 32.3216 236.549 29.0588C236.549 25.7961 236.753 25.4902 239.608 25.4902C242.463 25.4902 242.667 25.7961 242.667 29.0588C242.667 32.3216 242.871 32.6274 245.725 32.6274C248.58 32.6274 248.784 32.3216 248.784 29.0588C248.784 25.6941 248.988 25.4902 252.353 25.4902C255.616 25.4902 255.922 25.2863 255.922 22.4314V19.3726H262.039H268.157V22.4314C268.157 25.1843 267.851 25.4902 265.098 25.4902C262.243 25.4902 262.039 25.7961 262.039 29.0588V32.6274H255.412H248.784V35.6863C248.784 38.5412 249.09 38.7451 252.353 38.7451C255.616 38.7451 255.922 38.949 255.922 41.8039C255.922 44.5569 256.227 44.8627 258.98 44.8627C261.733 44.8627 262.039 44.5569 262.039 41.8039C262.039 39.051 262.345 38.7451 265.098 38.7451C267.851 38.7451 268.157 39.051 268.157 41.8039C268.157 44.5569 268.463 44.8627 271.216 44.8627C274.071 44.8627 274.275 45.1686 274.275 48.4314C274.275 51.7961 274.478 52 277.843 52C281.208 52 281.412 51.7961 281.412 48.4314C281.412 45.1686 281.616 44.8627 284.471 44.8627C287.224 44.8627 287.529 44.5569 287.529 41.8039C287.529 39.051 287.835 38.7451 290.588 38.7451C293.341 38.7451 293.647 39.051 293.647 41.8039C293.647 44.5569 293.341 44.8627 290.588 44.8627C287.733 44.8627 287.529 45.1686 287.529 48.4314C287.529 51.6941 287.733 52 290.588 52C293.341 52 293.647 52.3059 293.647 55.0588C293.647 57.8118 293.341 58.1176 290.588 58.1176C287.835 58.1176 287.529 57.8118 287.529 55.0588C287.529 52.3059 287.224 52 284.471 52H281.412V58.1176V64.2353H274.784H268.157V67.2941V70.3529H274.784H281.412V73.9216V77.4902H287.529H293.647V80.549V83.6078H300.275H306.902V80.549C306.902 77.6941 306.596 77.4902 303.333 77.4902C299.969 77.4902 299.765 77.2863 299.765 73.9216V70.3529H293.647H287.529V67.2941V64.2353H293.647H299.765V67.2941V70.3529H312.51H325.255V73.9216C325.255 77.2863 325.459 77.4902 328.824 77.4902H332.392V70.8627V64.2353H338.51H344.627V67.2941C344.627 70.0471 344.322 70.3529 341.569 70.3529C338.714 70.3529 338.51 70.6588 338.51 73.9216C338.51 77.1843 338.306 77.4902 335.451 77.4902H332.392V86.6667V95.8431H335.451H338.51V102.471V109.098H344.627H350.745V115.216V121.333H347.686C344.831 121.333 344.627 121.639 344.627 124.902C344.627 128.165 344.424 128.471 341.569 128.471C338.816 128.471 338.51 128.776 338.51 131.529V134.588H331.882H325.255V131.529C325.255 128.674 325.561 128.471 328.824 128.471C332.188 128.471 332.392 128.267 332.392 124.902V121.333H325.765H319.137V124.902C319.137 128.165 318.933 128.471 316.078 128.471H313.02V134.588V140.706H306.392H299.765V137.647C299.765 134.894 299.459 134.588 296.706 134.588H293.647V140.706V146.824H290.588H287.529V140.706V134.588H277.843H268.157V137.647C268.157 140.4 268.463 140.706 271.216 140.706C273.969 140.706 274.275 141.012 274.275 143.765C274.275 146.62 274.58 146.824 277.843 146.824C281.208 146.824 281.412 147.027 281.412 150.392V153.961H287.529H293.647V157.02C293.647 159.773 293.953 160.078 296.706 160.078C299.459 160.078 299.765 159.773 299.765 157.02C299.765 154.165 300.071 153.961 303.333 153.961C306.698 153.961 306.902 153.757 306.902 150.392V146.824H313.02H319.137V143.765C319.137 141.012 319.443 140.706 322.196 140.706C324.949 140.706 325.255 141.012 325.255 143.765C325.255 146.62 325.561 146.824 328.824 146.824C332.086 146.824 332.392 146.62 332.392 143.765C332.392 141.012 332.698 140.706 335.451 140.706H338.51V150.392V160.078H344.627H350.745V163.137V166.196H344.627H338.51V163.137C338.51 160.384 338.204 160.078 335.451 160.078C332.698 160.078 332.392 159.773 332.392 157.02V153.961H325.765H319.137V157.02C319.137 159.773 318.831 160.078 316.078 160.078C313.326 160.078 313.02 160.384 313.02 163.137C313.02 165.89 312.714 166.196 309.961 166.196C307.208 166.196 306.902 166.502 306.902 169.255C306.902 172.11 306.596 172.314 303.333 172.314C299.969 172.314 299.765 172.518 299.765 175.882C299.765 179.247 299.969 179.451 303.333 179.451H306.902V185.569V191.686H303.333H299.765V207.49V223.294H296.706H293.647V229.922V236.549H290.588H287.529V242.667V248.784H293.647H299.765V239.608V230.431H303.333C306.698 230.431 306.902 230.227 306.902 226.863V223.294H313.02H319.137V220.235C319.137 217.482 319.443 217.176 322.196 217.176C324.949 217.176 325.255 217.482 325.255 220.235C325.255 223.09 325.561 223.294 328.824 223.294H332.392V229.922V236.549H325.765H319.137V239.608V242.667H313.02H306.902V245.725C306.902 248.58 306.596 248.784 303.333 248.784H299.765V258.471V268.157H306.392H313.02V265.098C313.02 262.345 313.326 262.039 316.078 262.039C318.831 262.039 319.137 262.345 319.137 265.098V268.157H325.765H332.392V271.216C332.392 273.969 332.698 274.275 335.451 274.275C338.306 274.275 338.51 274.58 338.51 277.843C338.51 281.106 338.306 281.412 335.451 281.412C332.596 281.412 332.392 281.106 332.392 277.843V274.275H325.765H319.137V277.843C319.137 281.106 319.341 281.412 322.196 281.412C324.949 281.412 325.255 281.718 325.255 284.471V287.529H331.882H338.51V290.588V293.647H348.196H357.882V300.275V306.902H354.314H350.745V313.02V319.137H354.314C357.576 319.137 357.882 319.341 357.882 322.196C357.882 325.051 357.576 325.255 354.314 325.255C351.051 325.255 350.745 325.051 350.745 322.196C350.745 319.443 350.439 319.137 347.686 319.137C344.933 319.137 344.627 319.443 344.627 322.196C344.627 324.949 344.322 325.255 341.569 325.255H338.51V316.078V306.902H341.569C344.424 306.902 344.627 306.596 344.627 303.333C344.627 300.071 344.424 299.765 341.569 299.765C338.816 299.765 338.51 299.459 338.51 296.706C338.51 293.953 338.204 293.647 335.451 293.647C332.698 293.647 332.392 293.953 332.392 296.706C332.392 299.561 332.086 299.765 328.824 299.765C325.459 299.765 325.255 299.969 325.255 303.333V306.902H316.078H306.902V309.961V313.02H300.275H293.647V309.961C293.647 307.208 293.953 306.902 296.706 306.902C299.561 306.902 299.765 306.596 299.765 303.333C299.765 300.071 299.561 299.765 296.706 299.765C293.953 299.765 293.647 299.459 293.647 296.706V293.647H283.961H274.275V296.706V299.765H280.902H287.529V312.51V325.255H274.784H262.039V319.137V313.02H258.98H255.922V322.706V332.392H258.98H262.039V341.569V350.745H258.98H255.922V344.627V338.51H252.353C249.09 338.51 248.784 338.714 248.784 341.569V344.627H242.667H236.549V341.569C236.549 338.816 236.855 338.51 239.608 338.51C242.361 338.51 242.667 338.204 242.667 335.451V332.392H236.549H230.431V338.51V344.627H226.863H223.294V338.51V332.392H220.235C217.38 332.392 217.176 332.086 217.176 328.824V325.255H210.549H203.922V328.824C203.922 332.086 203.718 332.392 200.863 332.392H197.804V322.706V313.02H204.431H211.059V309.961C211.059 307.106 210.753 306.902 207.49 306.902C204.125 306.902 203.922 306.698 203.922 303.333C203.922 299.969 204.125 299.765 207.49 299.765C210.855 299.765 211.059 299.969 211.059 303.333C211.059 306.596 211.263 306.902 214.118 306.902C216.871 306.902 217.176 307.208 217.176 309.961V313.02H223.804H230.431V306.392V299.765H223.804H217.176V296.706C217.176 293.953 217.482 293.647 220.235 293.647C222.988 293.647 223.294 293.341 223.294 290.588C223.294 287.835 222.988 287.529 220.235 287.529H217.176V280.902V274.275H210.549H203.922V277.843C203.922 281.208 204.125 281.412 207.49 281.412C210.753 281.412 211.059 281.616 211.059 284.471V287.529H204.431H197.804V297.216V306.902H194.745C191.89 306.902 191.686 306.596 191.686 303.333C191.686 300.071 191.482 299.765 188.627 299.765C185.875 299.765 185.569 299.459 185.569 296.706C185.569 293.851 185.263 293.647 182 293.647C178.737 293.647 178.431 293.851 178.431 296.706C178.431 299.459 178.125 299.765 175.373 299.765C172.518 299.765 172.314 300.071 172.314 303.333C172.314 306.596 172.11 306.902 169.255 306.902C166.4 306.902 166.196 306.596 166.196 303.333C166.196 300.071 165.992 299.765 163.137 299.765H160.078V312.51V325.255H156.51H152.941V312.51V299.765H146.824H140.706V296.706C140.706 293.953 140.4 293.647 137.647 293.647H134.588V303.333V313.02H131.02H127.451V303.333V293.647H124.392H121.333V300.275V306.902H118.275C115.42 306.902 115.216 306.596 115.216 303.333C115.216 300.071 115.012 299.765 112.157 299.765C109.404 299.765 109.098 299.459 109.098 296.706C109.098 293.851 108.792 293.647 105.529 293.647C102.267 293.647 101.961 293.851 101.961 296.706C101.961 299.459 101.655 299.765 98.902 299.765H95.8431V306.392V313.02H98.902C101.655 313.02 101.961 312.714 101.961 309.961C101.961 307.106 102.267 306.902 105.529 306.902C108.792 306.902 109.098 307.106 109.098 309.961V313.02H115.216H121.333V319.137V325.255H127.961H134.588V322.196C134.588 319.443 134.894 319.137 137.647 319.137H140.706V325.765V332.392H150.392H160.078V335.451C160.078 338.204 160.384 338.51 163.137 338.51C165.89 338.51 166.196 338.816 166.196 341.569C166.196 344.322 166.502 344.627 169.255 344.627C172.008 344.627 172.314 344.322 172.314 341.569V338.51H185.059H197.804V341.569C197.804 344.322 197.498 344.627 194.745 344.627C191.992 344.627 191.686 344.933 191.686 347.686C191.686 350.439 191.38 350.745 188.627 350.745C185.773 350.745 185.569 351.051 185.569 354.314C185.569 357.678 185.365 357.882 182 357.882C178.635 357.882 178.431 357.678 178.431 354.314V350.745H172.314H166.196V347.686V344.627H156.51H146.824V347.686V350.745H140.706H134.588V354.314C134.588 357.678 134.384 357.882 131.02 357.882C127.655 357.882 127.451 357.678 127.451 354.314C127.451 351.051 127.247 350.745 124.392 350.745C121.639 350.745 121.333 350.439 121.333 347.686C121.333 344.933 121.027 344.627 118.275 344.627C115.522 344.627 115.216 344.322 115.216 341.569C115.216 338.816 115.522 338.51 118.275 338.51C121.027 338.51 121.333 338.204 121.333 335.451V332.392H115.216H109.098V335.451C109.098 338.306 108.792 338.51 105.529 338.51C102.267 338.51 101.961 338.306 101.961 335.451V332.392H95.8431H89.7255V335.451V338.51H76.9804H64.2353V331.882V325.255H67.2941C70.149 325.255 70.3529 325.561 70.3529 328.824V332.392H80.0392H89.7255V328.824V325.255H83.098H76.4706V322.196V319.137H70.3529H64.2353V306.392V293.647H61.1765C58.4235 293.647 58.1176 293.341 58.1176 290.588V287.529H51.4902H44.8627V290.588V293.647H38.7451H32.6275V296.706V299.765H26H19.3725V296.706C19.3725 293.953 19.0667 293.647 16.3137 293.647C13.5608 293.647 13.2549 293.953 13.2549 296.706C13.2549 299.459 12.949 299.765 10.1961 299.765H7.13726V293.647V287.529H13.2549H19.3725V284.471C19.3725 281.718 19.6784 281.412 22.4314 281.412C25.2863 281.412 25.4902 281.106 25.4902 277.843C25.4902 274.58 25.2863 274.275 22.4314 274.275C19.6784 274.275 19.3725 273.969 19.3725 271.216C19.3725 268.463 19.0667 268.157 16.3137 268.157C13.5608 268.157 13.2549 268.463 13.2549 271.216C13.2549 273.969 12.949 274.275 10.1961 274.275H7.13726V261.529V248.784H10.1961H13.2549V255.412V262.039H16.3137C19.0667 262.039 19.3725 262.345 19.3725 265.098C19.3725 267.851 19.6784 268.157 22.4314 268.157H25.4902V262.039V255.922H29.0588C32.4235 255.922 32.6275 255.718 32.6275 252.353V248.784H38.7451H44.8627V245.725V242.667H38.7451H32.6275V236.549V230.431H35.6863C38.5412 230.431 38.7451 230.125 38.7451 226.863C38.7451 223.6 38.949 223.294 41.8039 223.294C44.5569 223.294 44.8627 222.988 44.8627 220.235V217.176H38.7451H32.6275V220.235C32.6275 223.09 32.3216 223.294 29.0588 223.294H25.4902V210.549V197.804H22.4314H19.3725V191.686V185.569H16.3137C13.5608 185.569 13.2549 185.263 13.2549 182.51V179.451H19.3725H25.4902V188.627V197.804H29.0588C32.4235 197.804 32.6275 198.008 32.6275 201.373C32.6275 204.635 32.8314 204.941 35.6863 204.941C38.5412 204.941 38.7451 204.635 38.7451 201.373V197.804H44.8627H50.9804V207.49V217.176H54.549H58.1176V211.059V204.941H61.1765C63.9294 204.941 64.2353 205.247 64.2353 208C64.2353 210.753 64.5412 211.059 67.2941 211.059C70.0471 211.059 70.3529 211.365 70.3529 214.118C70.3529 216.871 70.6588 217.176 73.4118 217.176H76.4706V211.059V204.941H73.4118H70.3529V198.314V191.686H76.9804H83.6078V188.627C83.6078 185.773 83.302 185.569 80.0392 185.569C76.7765 185.569 76.4706 185.365 76.4706 182.51C76.4706 179.757 76.1647 179.451 73.4118 179.451C70.5569 179.451 70.3529 179.145 70.3529 175.882C70.3529 172.62 70.5569 172.314 73.4118 172.314C76.2667 172.314 76.4706 172.62 76.4706 175.882C76.4706 179.247 76.6745 179.451 80.0392 179.451H83.6078V169.765V160.078H86.6667H89.7255V166.196V172.314H95.8431H101.961V166.196V160.078H98.902H95.8431V153.451V146.824H98.902H101.961V140.706V134.588H108.588H115.216V131.529C115.216 128.776 115.522 128.471 118.275 128.471C121.129 128.471 121.333 128.165 121.333 124.902C121.333 121.639 121.537 121.333 124.392 121.333C127.247 121.333 127.451 121.639 127.451 124.902C127.451 128.267 127.655 128.471 131.02 128.471C134.282 128.471 134.588 128.674 134.588 131.529C134.588 134.282 134.894 134.588 137.647 134.588C140.4 134.588 140.706 134.282 140.706 131.529C140.706 128.776 141.012 128.471 143.765 128.471C146.62 128.471 146.824 128.165 146.824 124.902C146.824 121.639 146.62 121.333 143.765 121.333C141.012 121.333 140.706 121.027 140.706 118.275V115.216H134.078H127.451V112.157V109.098H121.333H115.216V115.216V121.333H112.157C109.302 121.333 109.098 121.639 109.098 124.902C109.098 128.267 108.894 128.471 105.529 128.471C102.165 128.471 101.961 128.267 101.961 124.902C101.961 121.537 102.165 121.333 105.529 121.333C108.792 121.333 109.098 121.129 109.098 118.275C109.098 115.42 108.792 115.216 105.529 115.216H101.961V105.529V95.8431H98.902C96.0471 95.8431 95.8431 96.149 95.8431 99.4118C95.8431 102.674 95.6392 102.98 92.7843 102.98C90.0314 102.98 89.7255 103.286 89.7255 106.039C89.7255 108.792 90.0314 109.098 92.7843 109.098C95.5373 109.098 95.8431 109.404 95.8431 112.157V115.216H89.7255H83.6078V118.275V121.333H89.7255H95.8431V124.902C95.8431 128.165 95.6392 128.471 92.7843 128.471C90.0314 128.471 89.7255 128.776 89.7255 131.529C89.7255 134.282 90.0314 134.588 92.7843 134.588C95.5373 134.588 95.8431 134.894 95.8431 137.647C95.8431 140.4 95.5373 140.706 92.7843 140.706H89.7255V147.333V153.961H86.6667C83.8118 153.961 83.6078 153.655 83.6078 150.392C83.6078 147.027 83.4039 146.824 80.0392 146.824H76.4706V156.51V166.196H73.4118H70.3529V160.078V153.961H64.2353H58.1176V150.392C58.1176 147.027 57.9137 146.824 54.549 146.824H50.9804V156.51V166.196H44.8627H38.7451V163.137C38.7451 160.384 39.051 160.078 41.8039 160.078C44.5569 160.078 44.8627 159.773 44.8627 157.02V153.961H38.7451H32.6275V150.392V146.824H38.7451H44.8627V143.765C44.8627 141.012 45.1686 140.706 47.9216 140.706C50.6745 140.706 50.9804 140.4 50.9804 137.647C50.9804 134.894 50.6745 134.588 47.9216 134.588C45.1686 134.588 44.8627 134.282 44.8627 131.529V128.471H38.7451H32.6275V121.843V115.216H35.6863C38.4392 115.216 38.7451 114.91 38.7451 112.157C38.7451 109.404 39.051 109.098 41.8039 109.098C44.5569 109.098 44.8627 108.792 44.8627 106.039V102.98H38.7451H32.6275V99.4118V95.8431H26H19.3725V105.529V115.216H16.3137C13.5608 115.216 13.2549 114.91 13.2549 112.157C13.2549 109.404 12.949 109.098 10.1961 109.098C7.44314 109.098 7.13726 108.792 7.13726 106.039C7.13726 103.286 7.44314 102.98 10.1961 102.98H13.2549V96.3529V89.7255H22.9412H32.6275V92.7843V95.8431H38.7451H44.8627V92.7843C44.8627 90.0314 44.5569 89.7255 41.8039 89.7255C39.051 89.7255 38.7451 89.4196 38.7451 86.6667C38.7451 83.9137 38.4392 83.6078 35.6863 83.6078C32.9333 83.6078 32.6275 83.302 32.6275 80.549C32.6275 77.7961 32.9333 77.4902 35.6863 77.4902C38.5412 77.4902 38.7451 77.1843 38.7451 73.9216C38.7451 70.6588 38.949 70.3529 41.8039 70.3529C44.6588 70.3529 44.8627 70.6588 44.8627 73.9216C44.8627 77.1843 44.6588 77.4902 41.8039 77.4902C39.051 77.4902 38.7451 77.7961 38.7451 80.549V83.6078H44.8627H50.9804V80.549C50.9804 77.6941 51.2863 77.4902 54.549 77.4902C57.9137 77.4902 58.1176 77.2863 58.1176 73.9216C58.1176 70.6588 58.3216 70.3529 61.1765 70.3529H64.2353V80.0392V89.7255H61.1765C58.4235 89.7255 58.1176 90.0314 58.1176 92.7843V95.8431H64.2353H70.3529V86.6667V77.4902H73.4118H76.4706V90.2353V102.98H80.0392H83.6078V96.3529V89.7255H92.7843H101.961V86.6667C101.961 83.8118 102.267 83.6078 105.529 83.6078H109.098V96.3529V109.098H112.157C114.91 109.098 115.216 108.792 115.216 106.039C115.216 103.286 115.522 102.98 118.275 102.98C121.129 102.98 121.333 102.674 121.333 99.4118C121.333 96.149 121.129 95.8431 118.275 95.8431H115.216V86.6667V77.4902H112.157C109.302 77.4902 109.098 77.1843 109.098 73.9216V70.3529H102.471H95.8431V67.2941V64.2353H105.529H115.216V58.1176V52H118.275H121.333V45.3726V38.7451H118.275C115.522 38.7451 115.216 39.051 115.216 41.8039C115.216 44.5569 114.91 44.8627 112.157 44.8627C109.404 44.8627 109.098 44.5569 109.098 41.8039C109.098 38.949 108.792 38.7451 105.529 38.7451C102.267 38.7451 101.961 38.949 101.961 41.8039C101.961 44.5569 101.655 44.8627 98.902 44.8627C96.0471 44.8627 95.8431 45.1686 95.8431 48.4314V52H86.1569H76.4706V48.4314C76.4706 45.0667 76.6745 44.8627 80.0392 44.8627H83.6078V38.7451V32.6274H96.3529H109.098V35.6863C109.098 38.4392 109.404 38.7451 112.157 38.7451C114.91 38.7451 115.216 38.4392 115.216 35.6863C115.216 32.9333 115.522 32.6274 118.275 32.6274C121.129 32.6274 121.333 32.3216 121.333 29.0588C121.333 25.7961 121.537 25.4902 124.392 25.4902C127.247 25.4902 127.451 25.7961 127.451 29.0588C127.451 32.4235 127.655 32.6274 131.02 32.6274C134.282 32.6274 134.588 32.8314 134.588 35.6863C134.588 38.4392 134.894 38.7451 137.647 38.7451C140.4 38.7451 140.706 39.051 140.706 41.8039C140.706 44.5569 140.4 44.8627 137.647 44.8627C134.894 44.8627 134.588 44.5569 134.588 41.8039C134.588 38.949 134.282 38.7451 131.02 38.7451H127.451V45.3726V52H134.078H140.706V58.1176V64.2353H143.765C146.518 64.2353 146.824 64.5412 146.824 67.2941V70.3529H140.706H134.588V76.9804V83.6078H131.02H127.451V89.7255V95.8431H137.137H146.824V92.7843C146.824 90.0314 146.518 89.7255 143.765 89.7255H140.706V83.6078V77.4902H143.765H146.824V83.6078V89.7255H149.882C152.635 89.7255 152.941 90.0314 152.941 92.7843C152.941 95.5373 152.635 95.8431 149.882 95.8431C147.027 95.8431 146.824 96.149 146.824 99.4118V102.98H153.451H160.078V93.2941V83.6078H163.137C165.89 83.6078 166.196 83.302 166.196 80.549V77.4902H159.569H152.941V73.9216C152.941 70.5569 153.145 70.3529 156.51 70.3529C159.773 70.3529 160.078 70.149 160.078 67.2941C160.078 64.4392 159.773 64.2353 156.51 64.2353C153.247 64.2353 152.941 64.0314 152.941 61.1765V58.1176H165.686H178.431V61.1765C178.431 64.0314 178.737 64.2353 182 64.2353C185.263 64.2353 185.569 64.0314 185.569 61.1765C185.569 58.4235 185.875 58.1176 188.627 58.1176C191.38 58.1176 191.686 58.4235 191.686 61.1765C191.686 63.9294 191.38 64.2353 188.627 64.2353H185.569V70.8627V77.4902H188.627C191.482 77.4902 191.686 77.1843 191.686 73.9216C191.686 70.6588 191.89 70.3529 194.745 70.3529C197.6 70.3529 197.804 70.6588 197.804 73.9216C197.804 77.1843 198.008 77.4902 200.863 77.4902C203.718 77.4902 203.922 77.1843 203.922 73.9216C203.922 70.5569 204.125 70.3529 207.49 70.3529C210.855 70.3529 211.059 70.5569 211.059 73.9216C211.059 77.1843 211.263 77.4902 214.118 77.4902C216.871 77.4902 217.176 77.7961 217.176 80.549C217.176 83.302 217.482 83.6078 220.235 83.6078C222.988 83.6078 223.294 83.302 223.294 80.549C223.294 77.6941 223.6 77.4902 226.863 77.4902H230.431V83.6078V89.7255H233.49H236.549V80.0392V70.3529H226.863H217.176V67.2941V64.2353H226.863H236.549V61.1765V58.1176H223.804H211.059V61.1765C211.059 64.0314 210.753 64.2353 207.49 64.2353C204.227 64.2353 203.922 64.0314 203.922 61.1765C203.922 58.4235 203.616 58.1176 200.863 58.1176H197.804V48.4314V38.7451H200.863H203.922V32.1176V25.4902H207.49C210.753 25.4902 211.059 25.2863 211.059 22.4314V19.3726H217.176H223.294V22.4314ZM64.2353 29.0588C64.2353 32.3216 64.0314 32.6274 61.1765 32.6274C58.3216 32.6274 58.1176 32.3216 58.1176 29.0588C58.1176 25.7961 58.3216 25.4902 61.1765 25.4902C64.0314 25.4902 64.2353 25.7961 64.2353 29.0588ZM166.196 42.3137V52H163.137H160.078V42.3137V32.6274H163.137H166.196V42.3137ZM191.686 42.3137V52H182H172.314V42.3137V32.6274H182H191.686V42.3137ZM64.2353 41.8039C64.2353 44.5569 63.9294 44.8627 61.1765 44.8627C58.4235 44.8627 58.1176 44.5569 58.1176 41.8039C58.1176 39.051 58.4235 38.7451 61.1765 38.7451C63.9294 38.7451 64.2353 39.051 64.2353 41.8039ZM319.137 61.1765C319.137 63.9294 318.831 64.2353 316.078 64.2353C313.326 64.2353 313.02 63.9294 313.02 61.1765C313.02 58.4235 313.326 58.1176 316.078 58.1176C318.831 58.1176 319.137 58.4235 319.137 61.1765ZM13.2549 80.549C13.2549 83.302 12.949 83.6078 10.1961 83.6078C7.44314 83.6078 7.13726 83.302 7.13726 80.549C7.13726 77.7961 7.44314 77.4902 10.1961 77.4902C12.949 77.4902 13.2549 77.7961 13.2549 80.549ZM25.4902 80.549C25.4902 83.302 25.1843 83.6078 22.4314 83.6078C19.6784 83.6078 19.3725 83.302 19.3725 80.549C19.3725 77.7961 19.6784 77.4902 22.4314 77.4902C25.1843 77.4902 25.4902 77.7961 25.4902 80.549ZM32.6275 163.137V166.196H26H19.3725V169.255C19.3725 172.008 19.0667 172.314 16.3137 172.314H13.2549V166.196V160.078H22.9412H32.6275V163.137ZM64.2353 163.137C64.2353 165.89 63.9294 166.196 61.1765 166.196C58.4235 166.196 58.1176 165.89 58.1176 163.137C58.1176 160.384 58.4235 160.078 61.1765 160.078C63.9294 160.078 64.2353 160.384 64.2353 163.137ZM50.9804 182V191.686H41.8039H32.6275V182V172.314H41.8039H50.9804V182ZM332.392 182V191.686H322.706H313.02V182V172.314H322.706H332.392V182ZM64.2353 182.51C64.2353 185.263 63.9294 185.569 61.1765 185.569C58.4235 185.569 58.1176 185.263 58.1176 182.51C58.1176 179.757 58.4235 179.451 61.1765 179.451C63.9294 179.451 64.2353 179.757 64.2353 182.51ZM13.2549 194.745C13.2549 197.498 12.949 197.804 10.1961 197.804C7.44314 197.804 7.13726 197.498 7.13726 194.745C7.13726 191.992 7.44314 191.686 10.1961 191.686C12.949 191.686 13.2549 191.992 13.2549 194.745ZM64.2353 194.745C64.2353 197.498 63.9294 197.804 61.1765 197.804C58.4235 197.804 58.1176 197.498 58.1176 194.745C58.1176 191.992 58.4235 191.686 61.1765 191.686C63.9294 191.686 64.2353 191.992 64.2353 194.745ZM325.255 201.373C325.255 204.737 325.459 204.941 328.824 204.941C332.188 204.941 332.392 204.737 332.392 201.373V197.804H338.51H344.627V201.373C344.627 204.635 344.424 204.941 341.569 204.941C338.816 204.941 338.51 205.247 338.51 208C338.51 210.753 338.816 211.059 341.569 211.059C344.322 211.059 344.627 211.365 344.627 214.118C344.627 216.871 344.322 217.176 341.569 217.176C338.816 217.176 338.51 216.871 338.51 214.118V211.059H328.824H319.137V208V204.941H313.02H306.902V201.373V197.804H316.078H325.255V201.373ZM313.02 214.118C313.02 216.871 312.714 217.176 309.961 217.176C307.208 217.176 306.902 216.871 306.902 214.118C306.902 211.365 307.208 211.059 309.961 211.059C312.714 211.059 313.02 211.365 313.02 214.118ZM25.4902 236.549V242.667H22.4314C19.6784 242.667 19.3725 242.361 19.3725 239.608C19.3725 236.855 19.0667 236.549 16.3137 236.549C13.5608 236.549 13.2549 236.855 13.2549 239.608C13.2549 242.361 12.949 242.667 10.1961 242.667C7.44314 242.667 7.13726 242.361 7.13726 239.608C7.13726 236.855 7.44314 236.549 10.1961 236.549C12.949 236.549 13.2549 236.243 13.2549 233.49V230.431H19.3725H25.4902V236.549ZM325.255 252.353C325.255 255.616 325.051 255.922 322.196 255.922C319.341 255.922 319.137 255.616 319.137 252.353C319.137 249.09 319.341 248.784 322.196 248.784C325.051 248.784 325.255 249.09 325.255 252.353ZM146.824 309.961C146.824 312.714 146.518 313.02 143.765 313.02C141.012 313.02 140.706 312.714 140.706 309.961C140.706 307.208 141.012 306.902 143.765 306.902C146.518 306.902 146.824 307.208 146.824 309.961ZM191.686 322.706V332.392H182H172.314V322.706V313.02H182H191.686V322.706ZM332.392 322.706V332.392H322.706H313.02V322.706V313.02H322.706H332.392V322.706ZM325.255 341.569C325.255 344.322 324.949 344.627 322.196 344.627C319.443 344.627 319.137 344.322 319.137 341.569C319.137 338.816 319.443 338.51 322.196 338.51C324.949 338.51 325.255 338.816 325.255 341.569ZM89.7255 351.255V357.882H86.6667H83.6078V351.255V344.627H86.6667H89.7255V351.255ZM236.549 354.314C236.549 357.576 236.345 357.882 233.49 357.882C230.635 357.882 230.431 357.576 230.431 354.314C230.431 351.051 230.635 350.745 233.49 350.745C236.345 350.745 236.549 351.051 236.549 354.314ZM332.392 354.314C332.392 357.678 332.188 357.882 328.824 357.882C325.459 357.882 325.255 357.678 325.255 354.314C325.255 350.949 325.459 350.745 328.824 350.745C332.188 350.745 332.392 350.949 332.392 354.314Z" fill="black"/>
<path d="M89.7255 41.8037C89.7255 44.5567 90.0314 44.8625 92.7843 44.8625C95.5373 44.8625 95.8432 44.5567 95.8432 41.8037C95.8432 39.0508 95.5373 38.7449 92.7843 38.7449C90.0314 38.7449 89.7255 39.0508 89.7255 41.8037Z" fill="black"/>
<path d="M203.922 41.8039C203.922 44.6588 204.228 44.8627 207.49 44.8627C210.855 44.8627 211.059 45.0667 211.059 48.4314C211.059 51.6941 211.263 52 214.118 52C216.973 52 217.177 51.6941 217.177 48.4314C217.177 45.1686 216.973 44.8627 214.118 44.8627C211.365 44.8627 211.059 44.5569 211.059 41.8039C211.059 38.949 210.753 38.7451 207.49 38.7451C204.228 38.7451 203.922 38.949 203.922 41.8039Z" fill="black"/>
<path d="M230.431 41.804C230.431 44.6589 230.126 44.8628 226.863 44.8628C223.498 44.8628 223.294 45.0668 223.294 48.4315V52.0001H232.98H242.667V55.0589C242.667 57.8118 242.973 58.1177 245.726 58.1177C248.478 58.1177 248.784 58.4236 248.784 61.1766V64.2354H242.667H236.549V67.2942V70.353H246.235H255.922V67.2942C255.922 64.5413 256.227 64.2354 258.98 64.2354H262.039V58.1177V52.0001H258.98C256.125 52.0001 255.922 51.6942 255.922 48.4315C255.922 45.0668 255.718 44.8628 252.353 44.8628C249.09 44.8628 248.784 44.6589 248.784 41.804C248.784 39.0511 248.478 38.7452 245.726 38.7452C242.973 38.7452 242.667 39.0511 242.667 41.804C242.667 44.5569 242.361 44.8628 239.608 44.8628C236.855 44.8628 236.549 44.5569 236.549 41.804C236.549 39.0511 236.243 38.7452 233.49 38.7452C230.737 38.7452 230.431 39.0511 230.431 41.804Z" fill="black"/>
<path d="M121.333 58.1177V64.2354H118.274H115.216V70.8628V77.4903H118.274C121.027 77.4903 121.333 77.7961 121.333 80.5491C121.333 83.302 121.639 83.6079 124.392 83.6079C127.145 83.6079 127.451 83.302 127.451 80.5491C127.451 77.7961 127.145 77.4903 124.392 77.4903H121.333V70.8628V64.2354H124.392H127.451V58.1177V52.0001H124.392H121.333V58.1177Z" fill="black"/>
<path d="M268.157 55.0589C268.157 57.8118 268.463 58.1177 271.216 58.1177C273.969 58.1177 274.275 57.8118 274.275 55.0589C274.275 52.3059 273.969 52 271.216 52C268.463 52 268.157 52.3059 268.157 55.0589Z" fill="black"/>
<path d="M262.039 73.9216C262.039 77.1844 262.243 77.4902 265.098 77.4902C267.953 77.4902 268.157 77.1844 268.157 73.9216C268.157 70.6589 267.953 70.353 265.098 70.353C262.243 70.353 262.039 70.6589 262.039 73.9216Z" fill="black"/>
<path d="M178.431 80.549C178.431 83.4039 178.737 83.6078 182 83.6078C185.263 83.6078 185.569 83.8117 185.569 86.6666V89.7255H178.941H172.314V86.6666C172.314 83.9137 172.008 83.6078 169.255 83.6078H166.196V89.7255V95.8431H175.882H185.569V99.4117V102.98H191.686H197.804V109.098V115.216H204.431H211.059V121.843V128.471H207.49H203.922V134.588V140.706H197.804H191.686V137.647C191.686 134.894 191.992 134.588 194.745 134.588C197.498 134.588 197.804 134.282 197.804 131.529C197.804 128.776 197.498 128.471 194.745 128.471C191.992 128.471 191.686 128.776 191.686 131.529C191.686 134.282 191.38 134.588 188.627 134.588C185.875 134.588 185.569 134.282 185.569 131.529C185.569 128.674 185.263 128.471 182 128.471C178.737 128.471 178.431 128.674 178.431 131.529C178.431 134.384 178.737 134.588 182 134.588C185.263 134.588 185.569 134.792 185.569 137.647C185.569 140.4 185.875 140.706 188.627 140.706C191.38 140.706 191.686 141.012 191.686 143.765V146.824H185.059H178.431V143.765V140.706H169.255H160.078V137.647C160.078 134.792 159.773 134.588 156.51 134.588C153.247 134.588 152.941 134.384 152.941 131.529C152.941 128.776 152.635 128.471 149.882 128.471C147.129 128.471 146.824 128.776 146.824 131.529C146.824 134.282 147.129 134.588 149.882 134.588C152.635 134.588 152.941 134.894 152.941 137.647C152.941 140.502 153.247 140.706 156.51 140.706H160.078V147.333V153.961H153.451H146.824V150.392C146.824 147.129 146.62 146.824 143.765 146.824C141.012 146.824 140.706 146.518 140.706 143.765C140.706 141.012 140.4 140.706 137.647 140.706C134.894 140.706 134.588 140.4 134.588 137.647C134.588 134.792 134.282 134.588 131.02 134.588C127.757 134.588 127.451 134.384 127.451 131.529C127.451 128.776 127.145 128.471 124.392 128.471H121.333V134.588V140.706H127.961H134.588V143.765C134.588 146.62 134.282 146.824 131.02 146.824C127.655 146.824 127.451 147.027 127.451 150.392C127.451 153.655 127.247 153.961 124.392 153.961C121.537 153.961 121.333 153.655 121.333 150.392C121.333 147.129 121.129 146.824 118.275 146.824C115.522 146.824 115.216 146.518 115.216 143.765C115.216 141.012 114.91 140.706 112.157 140.706C109.404 140.706 109.098 141.012 109.098 143.765C109.098 146.62 108.792 146.824 105.529 146.824H101.961V153.451V160.078H105.529H109.098V153.451V146.824H112.157C115.012 146.824 115.216 147.129 115.216 150.392C115.216 153.655 115.42 153.961 118.275 153.961C121.027 153.961 121.333 154.267 121.333 157.02C121.333 159.773 121.027 160.078 118.275 160.078C115.522 160.078 115.216 160.384 115.216 163.137C115.216 165.89 115.522 166.196 118.275 166.196C121.027 166.196 121.333 166.502 121.333 169.255V172.314H115.216H109.098V182V191.686H105.529H101.961V185.569V179.451H95.8432H89.7255V182.51C89.7255 185.263 90.0314 185.569 92.7844 185.569C95.5373 185.569 95.8432 185.874 95.8432 188.627V191.686H89.7255H83.6079V194.745C83.6079 197.6 83.302 197.804 80.0393 197.804C76.6745 197.804 76.4706 198.008 76.4706 201.373C76.4706 204.737 76.6745 204.941 80.0393 204.941C83.404 204.941 83.6079 204.737 83.6079 201.373C83.6079 198.11 83.8118 197.804 86.6667 197.804C89.5216 197.804 89.7255 198.11 89.7255 201.373C89.7255 204.635 89.9295 204.941 92.7844 204.941H95.8432V198.314V191.686H98.902C101.655 191.686 101.961 191.992 101.961 194.745C101.961 197.6 102.267 197.804 105.529 197.804H109.098V207.49V217.176H105.529H101.961V223.804V230.431H98.902H95.8432V220.745V211.059H92.7844H89.7255V220.745V230.431H92.7844C95.5373 230.431 95.8432 230.737 95.8432 233.49V236.549H86.1569H76.4706V239.608V242.667H70.353H64.2353V239.608C64.2353 236.855 63.9295 236.549 61.1765 236.549C58.4236 236.549 58.1177 236.855 58.1177 239.608C58.1177 242.463 57.8118 242.667 54.5491 242.667H50.9804V236.549V230.431H67.2942H83.6079V226.863V223.294H76.9804H70.353V220.235C70.353 217.482 70.0471 217.176 67.2942 217.176C64.5412 217.176 64.2353 217.482 64.2353 220.235V223.294H54.5491H44.8628V226.863C44.8628 230.125 44.6589 230.431 41.804 230.431C39.051 230.431 38.7451 230.737 38.7451 233.49C38.7451 236.243 39.051 236.549 41.804 236.549C44.5569 236.549 44.8628 236.855 44.8628 239.608C44.8628 242.361 45.1687 242.667 47.9216 242.667C50.6745 242.667 50.9804 242.973 50.9804 245.725C50.9804 248.58 51.2863 248.784 54.5491 248.784C57.8118 248.784 58.1177 248.58 58.1177 245.725C58.1177 242.973 58.4236 242.667 61.1765 242.667H64.2353V249.294V255.922H76.9804H89.7255V258.98C89.7255 261.733 89.4196 262.039 86.6667 262.039C83.9138 262.039 83.6079 262.345 83.6079 265.098C83.6079 267.953 83.302 268.157 80.0393 268.157H76.4706V277.843V287.529H73.4118H70.353V280.902V274.274H67.2942C64.5412 274.274 64.2353 273.969 64.2353 271.216C64.2353 268.463 64.5412 268.157 67.2942 268.157C70.0471 268.157 70.353 267.851 70.353 265.098C70.353 262.345 70.0471 262.039 67.2942 262.039C64.5412 262.039 64.2353 262.345 64.2353 265.098C64.2353 267.851 63.9295 268.157 61.1765 268.157C58.4236 268.157 58.1177 268.463 58.1177 271.216V274.274H51.4902H44.8628V271.216C44.8628 268.463 45.1687 268.157 47.9216 268.157C50.6745 268.157 50.9804 267.851 50.9804 265.098C50.9804 262.243 51.2863 262.039 54.5491 262.039C57.8118 262.039 58.1177 261.835 58.1177 258.98V255.922H45.3726H32.6275V258.98V262.039H38.7451H44.8628V265.098C44.8628 267.851 44.5569 268.157 41.804 268.157C39.051 268.157 38.7451 268.463 38.7451 271.216C38.7451 273.969 38.4393 274.274 35.6863 274.274C32.9334 274.274 32.6275 273.969 32.6275 271.216C32.6275 268.361 32.3216 268.157 29.0589 268.157C25.7961 268.157 25.4902 268.361 25.4902 271.216C25.4902 274.071 25.7961 274.274 29.0589 274.274C32.4236 274.274 32.6275 274.478 32.6275 277.843C32.6275 281.208 32.4236 281.412 29.0589 281.412H25.4902V287.529V293.647H29.0589H32.6275V287.529V281.412H35.6863C38.4393 281.412 38.7451 281.718 38.7451 284.471C38.7451 287.224 39.051 287.529 41.804 287.529C44.5569 287.529 44.8628 287.224 44.8628 284.471V281.412H54.5491H64.2353V287.529V293.647H70.353H76.4706V290.588C76.4706 287.733 76.7765 287.529 80.0393 287.529H83.6079V293.647V299.765H76.9804H70.353V303.333V306.902H76.9804H83.6079V313.02V319.137H86.6667C89.4196 319.137 89.7255 319.443 89.7255 322.196V325.255H102.471H115.216V322.196V319.137H105.529H95.8432V316.078C95.8432 313.325 95.5373 313.02 92.7844 313.02C90.0314 313.02 89.7255 312.714 89.7255 309.961C89.7255 307.208 89.4196 306.902 86.6667 306.902C83.8118 306.902 83.6079 306.596 83.6079 303.333V299.765H89.7255H95.8432V296.706C95.8432 293.953 95.5373 293.647 92.7844 293.647H89.7255V283.961V274.274H92.7844C95.6393 274.274 95.8432 274.58 95.8432 277.843C95.8432 281.106 96.0471 281.412 98.902 281.412C101.655 281.412 101.961 281.718 101.961 284.471V287.529H108.588H115.216V290.588C115.216 293.341 115.522 293.647 118.275 293.647H121.333V287.529V281.412H131.02H140.706V284.471C140.706 287.224 141.012 287.529 143.765 287.529C146.518 287.529 146.824 287.224 146.824 284.471C146.824 281.718 147.129 281.412 149.882 281.412H152.941V290.588V299.765H156.51H160.078V290.588V281.412H156.51H152.941V271.725V262.039H159.569H166.196V258.98C166.196 256.227 166.502 255.922 169.255 255.922C172.008 255.922 172.314 256.227 172.314 258.98C172.314 261.733 172.62 262.039 175.373 262.039C178.126 262.039 178.431 262.345 178.431 265.098V268.157H172.314H166.196V274.784V281.412H169.255C172.008 281.412 172.314 281.718 172.314 284.471C172.314 287.224 172.008 287.529 169.255 287.529H166.196V293.647V299.765H169.255H172.314V293.647V287.529H182H191.686V280.902V274.274H197.804H203.922V265.098V255.922H207.49C210.753 255.922 211.059 256.125 211.059 258.98C211.059 261.733 211.365 262.039 214.118 262.039C216.871 262.039 217.177 262.345 217.177 265.098C217.177 267.851 217.482 268.157 220.235 268.157C222.988 268.157 223.294 267.851 223.294 265.098C223.294 262.243 223.6 262.039 226.863 262.039H230.431V268.157V274.274H226.863H223.294V280.902V287.529H226.863C230.126 287.529 230.431 287.325 230.431 284.471V281.412H236.549H242.667V284.471V287.529H249.294H255.922V290.588C255.922 293.341 256.227 293.647 258.98 293.647H262.039V303.333V313.02H265.098H268.157V303.333V293.647H271.216H274.275V287.529V281.412H280.902H287.529V284.471C287.529 287.224 287.835 287.529 290.588 287.529C293.341 287.529 293.647 287.835 293.647 290.588C293.647 293.341 293.953 293.647 296.706 293.647C299.459 293.647 299.765 293.953 299.765 296.706V299.765H306.392H313.02V296.706C313.02 293.953 312.714 293.647 309.961 293.647C307.208 293.647 306.902 293.341 306.902 290.588V287.529H300.275H293.647V284.471C293.647 281.718 293.341 281.412 290.588 281.412C287.733 281.412 287.529 281.106 287.529 277.843V274.274H293.647H299.765V277.843V281.412H306.392H313.02V277.843V274.274H306.392H299.765V271.216V268.157H293.647H287.529V262.039V255.922H284.471C281.616 255.922 281.412 255.616 281.412 252.353C281.412 248.988 281.208 248.784 277.843 248.784C274.58 248.784 274.275 248.58 274.275 245.725C274.275 242.973 273.969 242.667 271.216 242.667C268.463 242.667 268.157 242.361 268.157 239.608V236.549H274.784H281.412V233.49V230.431H274.784H268.157V226.863V223.294H277.843H287.529V220.235C287.529 217.482 287.835 217.176 290.588 217.176H293.647V211.059V204.941H290.588C287.835 204.941 287.529 205.247 287.529 208C287.529 210.753 287.224 211.059 284.471 211.059C281.718 211.059 281.412 210.753 281.412 208V204.941H274.784H268.157V208C268.157 210.753 267.851 211.059 265.098 211.059C262.345 211.059 262.039 210.753 262.039 208C262.039 205.247 261.733 204.941 258.98 204.941C256.126 204.941 255.922 204.635 255.922 201.373V197.804H249.294H242.667V191.686V185.569H232.98H223.294V182.51C223.294 179.655 223.6 179.451 226.863 179.451H230.431V169.765V160.078H236.549H242.667V163.137C242.667 165.89 242.361 166.196 239.608 166.196H236.549V172.824V179.451H239.608H242.667V172.824V166.196H245.726H248.784V178.941V191.686H252.353H255.922V182V172.314H262.039H268.157V182V191.686H265.098C262.345 191.686 262.039 191.992 262.039 194.745V197.804H271.726H281.412V194.745C281.412 191.89 281.106 191.686 277.843 191.686H274.275V185.569V179.451H277.843C281.208 179.451 281.412 179.247 281.412 175.882V172.314H274.784H268.157V169.255V166.196H277.843H287.529V169.255V172.314H293.647H299.765V169.255C299.765 166.502 299.459 166.196 296.706 166.196C293.953 166.196 293.647 165.89 293.647 163.137V160.078H287.529H281.412V157.02V153.961H274.784H268.157V150.392V146.824H258.471H248.784V143.765C248.784 141.012 248.478 140.706 245.726 140.706C242.973 140.706 242.667 140.4 242.667 137.647C242.667 134.894 242.361 134.588 239.608 134.588H236.549V140.706V146.824H242.667H248.784V150.392V153.961H239.608H230.431V150.392V146.824H223.804H217.177V140.706V134.588H220.235C222.988 134.588 223.294 134.282 223.294 131.529C223.294 128.776 222.988 128.471 220.235 128.471C217.38 128.471 217.177 128.165 217.177 124.902V121.333H226.863H236.549V124.902V128.471H242.667H248.784V121.843V115.216H245.726C242.973 115.216 242.667 115.522 242.667 118.274C242.667 121.027 242.361 121.333 239.608 121.333C236.855 121.333 236.549 121.027 236.549 118.274V115.216H229.922H223.294V109.098V102.98H220.235C217.38 102.98 217.177 102.674 217.177 99.4117V95.8431H223.804H230.431V92.7843V89.7255H223.804H217.177V92.7843V95.8431H210.549H203.922V99.4117C203.922 102.674 203.718 102.98 200.863 102.98C198.008 102.98 197.804 102.674 197.804 99.4117V95.8431H191.686H185.569V92.7843V89.7255H191.686H197.804V86.6666V83.6078H191.686H185.569V80.549C185.569 77.6941 185.263 77.4902 182 77.4902C178.737 77.4902 178.431 77.6941 178.431 80.549ZM217.177 106.039C217.177 108.792 216.871 109.098 214.118 109.098C211.365 109.098 211.059 108.792 211.059 106.039C211.059 103.286 211.365 102.98 214.118 102.98C216.871 102.98 217.177 103.286 217.177 106.039ZM172.314 150.392C172.314 153.655 172.518 153.961 175.373 153.961C178.126 153.961 178.431 154.267 178.431 157.02V160.078H172.314H166.196V166.196V172.314H159.569H152.941V169.255C152.941 166.502 152.635 166.196 149.882 166.196C147.129 166.196 146.824 166.502 146.824 169.255C146.824 172.008 146.518 172.314 143.765 172.314C141.012 172.314 140.706 172.008 140.706 169.255C140.706 166.502 140.4 166.196 137.647 166.196H134.588V172.824V179.451H131.02C127.757 179.451 127.451 179.655 127.451 182.51V185.569H134.078H140.706V188.627V191.686H146.824H152.941V188.627C152.941 185.874 152.635 185.569 149.882 185.569C147.129 185.569 146.824 185.263 146.824 182.51C146.824 179.757 147.129 179.451 149.882 179.451C152.635 179.451 152.941 179.757 152.941 182.51C152.941 185.365 153.247 185.569 156.51 185.569C159.773 185.569 160.078 185.365 160.078 182.51C160.078 179.757 160.384 179.451 163.137 179.451C165.89 179.451 166.196 179.757 166.196 182.51C166.196 185.263 165.89 185.569 163.137 185.569H160.078V191.686V197.804H163.137C165.992 197.804 166.196 198.11 166.196 201.373C166.196 204.635 166.4 204.941 169.255 204.941C172.11 204.941 172.314 204.635 172.314 201.373V197.804H178.941H185.569V201.373V204.941H178.941H172.314V208V211.059H182H191.686V204.431V197.804H194.745C197.6 197.804 197.804 198.11 197.804 201.373C197.804 204.635 198.008 204.941 200.863 204.941C203.616 204.941 203.922 205.247 203.922 208V211.059H197.804H191.686V214.118C191.686 216.871 191.38 217.176 188.627 217.176C185.875 217.176 185.569 217.482 185.569 220.235C185.569 222.988 185.875 223.294 188.627 223.294C191.482 223.294 191.686 223.6 191.686 226.863C191.686 230.125 191.482 230.431 188.627 230.431C185.875 230.431 185.569 230.737 185.569 233.49C185.569 236.345 185.263 236.549 182 236.549C178.737 236.549 178.431 236.345 178.431 233.49C178.431 230.635 178.737 230.431 182 230.431C185.365 230.431 185.569 230.227 185.569 226.863V223.294H178.941H172.314V226.863C172.314 230.125 172.11 230.431 169.255 230.431C166.502 230.431 166.196 230.737 166.196 233.49C166.196 236.243 166.502 236.549 169.255 236.549C172.008 236.549 172.314 236.855 172.314 239.608V242.667H178.941H185.569V245.725C185.569 248.58 185.263 248.784 182 248.784C178.635 248.784 178.431 248.988 178.431 252.353C178.431 255.616 178.227 255.922 175.373 255.922H172.314V249.294V242.667H169.255C166.502 242.667 166.196 242.973 166.196 245.725C166.196 248.478 165.89 248.784 163.137 248.784C160.282 248.784 160.078 249.09 160.078 252.353C160.078 255.718 159.875 255.922 156.51 255.922C153.145 255.922 152.941 255.718 152.941 252.353C152.941 249.09 152.737 248.784 149.882 248.784C147.129 248.784 146.824 248.478 146.824 245.725C146.824 242.973 146.518 242.667 143.765 242.667H140.706V249.294V255.922H143.765C146.518 255.922 146.824 256.227 146.824 258.98C146.824 261.733 146.518 262.039 143.765 262.039C141.012 262.039 140.706 262.345 140.706 265.098C140.706 267.851 141.012 268.157 143.765 268.157H146.824V274.784V281.412H143.765H140.706V274.784V268.157H137.647C134.894 268.157 134.588 268.463 134.588 271.216V274.274H124.902H115.216V271.216C115.216 268.463 114.91 268.157 112.157 268.157H109.098V258.471V248.784H105.529C102.165 248.784 101.961 248.988 101.961 252.353C101.961 255.616 101.757 255.922 98.902 255.922H95.8432V249.294V242.667H102.471H109.098V239.608C109.098 236.753 108.792 236.549 105.529 236.549C102.267 236.549 101.961 236.345 101.961 233.49C101.961 230.635 102.267 230.431 105.529 230.431H109.098V223.804V217.176H112.157C114.91 217.176 115.216 216.871 115.216 214.118V211.059H134.078H152.941V208V204.941H143.765H134.588V198.314V191.686H131.02C127.757 191.686 127.451 191.482 127.451 188.627C127.451 185.874 127.145 185.569 124.392 185.569C121.639 185.569 121.333 185.874 121.333 188.627C121.333 191.38 121.027 191.686 118.275 191.686H115.216V185.569V179.451H121.333H127.451V172.824V166.196H124.392C121.639 166.196 121.333 165.89 121.333 163.137C121.333 160.384 121.639 160.078 124.392 160.078C127.145 160.078 127.451 159.773 127.451 157.02C127.451 154.165 127.757 153.961 131.02 153.961C134.282 153.961 134.588 154.165 134.588 157.02C134.588 159.773 134.894 160.078 137.647 160.078C140.4 160.078 140.706 160.384 140.706 163.137C140.706 165.89 141.012 166.196 143.765 166.196C146.518 166.196 146.824 165.89 146.824 163.137V160.078H156.51H166.196V153.451V146.824H169.255C172.11 146.824 172.314 147.129 172.314 150.392ZM197.804 153.451V160.078H200.863H203.922V153.451V146.824H207.49C210.855 146.824 211.059 147.027 211.059 150.392V153.961H217.177H223.294V160.078V166.196H220.235C217.482 166.196 217.177 166.502 217.177 169.255C217.177 172.008 217.482 172.314 220.235 172.314C223.09 172.314 223.294 172.62 223.294 175.882C223.294 179.145 223.09 179.451 220.235 179.451H217.177V185.569V191.686H223.804H230.431V194.745C230.431 197.498 230.737 197.804 233.49 197.804C236.345 197.804 236.549 198.11 236.549 201.373C236.549 204.635 236.345 204.941 233.49 204.941H230.431V211.059V217.176H233.49C236.243 217.176 236.549 216.871 236.549 214.118V211.059H242.667H248.784V208C248.784 205.145 249.09 204.941 252.353 204.941C255.616 204.941 255.922 205.145 255.922 208C255.922 210.855 255.616 211.059 252.353 211.059H248.784V220.745V230.431H252.353H255.922V223.804V217.176H258.98H262.039V223.804V230.431H265.098C267.851 230.431 268.157 230.737 268.157 233.49V236.549H258.471H248.784V239.608C248.784 242.463 249.09 242.667 252.353 242.667C255.616 242.667 255.922 242.871 255.922 245.725C255.922 248.478 256.227 248.784 258.98 248.784C261.835 248.784 262.039 249.09 262.039 252.353C262.039 255.616 262.243 255.922 265.098 255.922C267.851 255.922 268.157 256.227 268.157 258.98C268.157 261.733 268.463 262.039 271.216 262.039C273.969 262.039 274.275 261.733 274.275 258.98C274.275 256.125 274.58 255.922 277.843 255.922C281.106 255.922 281.412 256.125 281.412 258.98C281.412 261.835 281.106 262.039 277.843 262.039H274.275V271.725V281.412H271.216C268.361 281.412 268.157 281.106 268.157 277.843C268.157 274.58 267.953 274.274 265.098 274.274C262.243 274.274 262.039 274.58 262.039 277.843C262.039 281.106 261.835 281.412 258.98 281.412H255.922V271.725V262.039H252.353H248.784V268.157V274.274H245.726C242.973 274.274 242.667 273.969 242.667 271.216C242.667 268.463 242.361 268.157 239.608 268.157H236.549V262.039V255.922H233.49H230.431V249.294V242.667H236.549H242.667V239.608C242.667 236.855 242.361 236.549 239.608 236.549C236.855 236.549 236.549 236.243 236.549 233.49V230.431H229.922H223.294V226.863C223.294 223.6 223.09 223.294 220.235 223.294H217.177V229.922V236.549H220.235C222.988 236.549 223.294 236.855 223.294 239.608C223.294 242.361 222.988 242.667 220.235 242.667C217.482 242.667 217.177 242.361 217.177 239.608C217.177 236.855 216.871 236.549 214.118 236.549H211.059V242.667V248.784H217.177H223.294V252.353V255.922H217.177H211.059V252.353V248.784H201.373H191.686V242.667V236.549H194.745C197.498 236.549 197.804 236.243 197.804 233.49C197.804 230.737 198.11 230.431 200.863 230.431C203.718 230.431 203.922 230.125 203.922 226.863C203.922 223.6 203.718 223.294 200.863 223.294C198.11 223.294 197.804 222.988 197.804 220.235C197.804 217.482 198.11 217.176 200.863 217.176C203.616 217.176 203.922 217.482 203.922 220.235V223.294H210.549H217.177V220.235C217.177 217.482 216.871 217.176 214.118 217.176C211.365 217.176 211.059 216.871 211.059 214.118C211.059 211.365 211.365 211.059 214.118 211.059H217.177V204.431V197.804H210.549H203.922V194.745C203.922 191.992 203.616 191.686 200.863 191.686H197.804V175.882V160.078H194.745H191.686V153.451V146.824H194.745H197.804V153.451ZM268.157 157.02C268.157 159.773 267.851 160.078 265.098 160.078C262.345 160.078 262.039 160.384 262.039 163.137V166.196H255.412H248.784V163.137C248.784 160.282 249.09 160.078 252.353 160.078C255.616 160.078 255.922 159.874 255.922 157.02V153.961H262.039H268.157V157.02ZM191.686 182V191.686H182H172.314V182V172.314H182H191.686V182ZM127.451 201.373V204.941H121.333H115.216V201.373V197.804H121.333H127.451V201.373ZM274.275 214.118C274.275 216.871 273.969 217.176 271.216 217.176C268.463 217.176 268.157 216.871 268.157 214.118C268.157 211.365 268.463 211.059 271.216 211.059C273.969 211.059 274.275 211.365 274.275 214.118ZM197.804 258.98C197.804 261.733 197.498 262.039 194.745 262.039C191.992 262.039 191.686 262.345 191.686 265.098C191.686 267.851 191.38 268.157 188.627 268.157H185.569V274.784V281.412H182H178.431V274.784V268.157H182H185.569V262.039V255.922H191.686H197.804V258.98ZM101.961 271.216C101.961 274.071 102.267 274.274 105.529 274.274C108.894 274.274 109.098 274.478 109.098 277.843C109.098 281.208 108.894 281.412 105.529 281.412C102.165 281.412 101.961 281.208 101.961 277.843C101.961 274.58 101.757 274.274 98.902 274.274C96.1491 274.274 95.8432 273.969 95.8432 271.216C95.8432 268.463 96.1491 268.157 98.902 268.157C101.655 268.157 101.961 268.463 101.961 271.216ZM287.529 271.216C287.529 273.969 287.224 274.274 284.471 274.274C281.718 274.274 281.412 273.969 281.412 271.216C281.412 268.463 281.718 268.157 284.471 268.157C287.224 268.157 287.529 268.463 287.529 271.216ZM44.8628 277.843C44.8628 281.106 44.6589 281.412 41.804 281.412C38.9491 281.412 38.7451 281.106 38.7451 277.843C38.7451 274.58 38.9491 274.274 41.804 274.274C44.6589 274.274 44.8628 274.58 44.8628 277.843ZM268.157 290.588C268.157 293.341 267.851 293.647 265.098 293.647C262.345 293.647 262.039 293.341 262.039 290.588C262.039 287.835 262.345 287.529 265.098 287.529C267.851 287.529 268.157 287.835 268.157 290.588Z" fill="black"/>
<path d="M127.451 163.137C127.451 165.992 127.757 166.196 131.02 166.196C134.282 166.196 134.588 165.992 134.588 163.137C134.588 160.282 134.282 160.078 131.02 160.078C127.757 160.078 127.451 160.282 127.451 163.137Z" fill="black"/>
<path d="M152.941 214.118C152.941 216.972 153.247 217.176 156.51 217.176H160.078V223.804V230.431H156.51C153.145 230.431 152.941 230.227 152.941 226.863C152.941 223.6 152.737 223.294 149.882 223.294C147.027 223.294 146.824 223.6 146.824 226.863C146.824 230.125 147.027 230.431 149.882 230.431H152.941V239.608V248.784H156.51H160.078V239.608V230.431H163.137H166.196V223.804V217.176H163.137C160.384 217.176 160.078 216.87 160.078 214.118C160.078 211.263 159.773 211.059 156.51 211.059C153.247 211.059 152.941 211.263 152.941 214.118Z" fill="black"/>
<path d="M121.333 220.235C121.333 222.988 121.027 223.294 118.274 223.294C115.42 223.294 115.216 223.6 115.216 226.863C115.216 230.125 115.012 230.431 112.157 230.431C109.404 230.431 109.098 230.737 109.098 233.49C109.098 236.243 109.404 236.549 112.157 236.549C114.91 236.549 115.216 236.243 115.216 233.49C115.216 230.737 115.522 230.431 118.274 230.431C121.027 230.431 121.333 230.737 121.333 233.49C121.333 236.243 121.639 236.549 124.392 236.549C127.145 236.549 127.451 236.855 127.451 239.608V242.667H134.078H140.706V232.98V223.294H137.647H134.588V229.921V236.549H131.02H127.451V226.863V217.176H124.392C121.639 217.176 121.333 217.482 121.333 220.235Z" fill="black"/>
<path d="M109.098 245.725C109.098 248.478 109.404 248.784 112.157 248.784C114.91 248.784 115.216 248.478 115.216 245.725C115.216 242.972 114.91 242.667 112.157 242.667C109.404 242.667 109.098 242.972 109.098 245.725Z" fill="black"/>
<path d="M121.333 258.981C121.333 261.733 121.027 262.039 118.274 262.039C115.522 262.039 115.216 262.345 115.216 265.098V268.157H124.902H134.588V265.098C134.588 262.345 134.894 262.039 137.647 262.039C140.4 262.039 140.706 261.733 140.706 258.981V255.922H131.02H121.333V258.981Z" fill="black"/>
<path d="M203.922 163.137V166.196H210.549H217.177V163.137V160.078H210.549H203.922V163.137Z" fill="black"/>
<path d="M203.922 182.51C203.922 185.365 204.228 185.569 207.49 185.569C210.753 185.569 211.059 185.365 211.059 182.51C211.059 179.655 210.753 179.451 207.49 179.451C204.228 179.451 203.922 179.655 203.922 182.51Z" fill="black"/>
<path d="M236.549 220.235C236.549 222.988 236.855 223.294 239.608 223.294C242.361 223.294 242.667 222.988 242.667 220.235C242.667 217.482 242.361 217.177 239.608 217.177C236.855 217.177 236.549 217.482 236.549 220.235Z" fill="black"/>
<path d="M197.804 239.608C197.804 242.361 198.11 242.667 200.863 242.667C203.616 242.667 203.922 242.361 203.922 239.608C203.922 236.855 203.616 236.549 200.863 236.549C198.11 236.549 197.804 236.855 197.804 239.608Z" fill="black"/>
<path d="M236.549 252.353C236.549 255.616 236.753 255.922 239.608 255.922C242.463 255.922 242.667 255.616 242.667 252.353C242.667 249.09 242.463 248.784 239.608 248.784C236.753 248.784 236.549 249.09 236.549 252.353Z" fill="black"/>
<path d="M248.784 252.353C248.784 255.718 248.988 255.922 252.353 255.922C255.616 255.922 255.922 256.126 255.922 258.981C255.922 261.733 256.227 262.039 258.98 262.039C261.733 262.039 262.039 262.345 262.039 265.098C262.039 267.851 262.345 268.157 265.098 268.157C267.851 268.157 268.157 267.851 268.157 265.098C268.157 262.345 267.851 262.039 265.098 262.039C262.345 262.039 262.039 261.733 262.039 258.981C262.039 256.228 261.733 255.922 258.98 255.922C256.126 255.922 255.922 255.616 255.922 252.353C255.922 248.988 255.718 248.784 252.353 248.784C248.988 248.784 248.784 248.988 248.784 252.353Z" fill="black"/>
<path d="M178.431 182.51C178.431 185.365 178.737 185.569 182 185.569C185.263 185.569 185.569 185.365 185.569 182.51C185.569 179.655 185.263 179.451 182 179.451C178.737 179.451 178.431 179.655 178.431 182.51Z" fill="black"/>
<path d="M203.922 80.5491C203.922 83.404 204.228 83.6079 207.49 83.6079C210.753 83.6079 211.059 83.404 211.059 80.5491C211.059 77.6942 210.753 77.4903 207.49 77.4903C204.228 77.4903 203.922 77.6942 203.922 80.5491Z" fill="black"/>
<path d="M242.667 83.608V89.7256H239.608C236.855 89.7256 236.549 90.0315 236.549 92.7844V95.8433H249.294H262.039V99.4119V102.981H255.412H248.784V106.039V109.098H261.529H274.275V112.157V115.216H268.157H262.039V118.275V121.333H271.726H281.412V118.275C281.412 115.522 281.718 115.216 284.471 115.216H287.529V121.843V128.471H290.588C293.443 128.471 293.647 128.165 293.647 124.902C293.647 121.639 293.851 121.333 296.706 121.333C299.459 121.333 299.765 121.028 299.765 118.275C299.765 115.42 300.071 115.216 303.333 115.216C306.596 115.216 306.902 115.42 306.902 118.275C306.902 121.028 307.208 121.333 309.961 121.333C312.714 121.333 313.02 121.028 313.02 118.275V115.216H319.137H325.255V109.098V102.981H322.196H319.137V96.3531V89.7256H322.196H325.255V83.608V77.4903H322.196C319.443 77.4903 319.137 77.7962 319.137 80.5491V83.608H313.02H306.902V86.6668V89.7256H300.275H293.647V92.7844V95.8433H283.961H274.275V89.7256V83.608H271.216H268.157V89.7256V95.8433H265.098C262.345 95.8433 262.039 95.5374 262.039 92.7844C262.039 90.0315 261.733 89.7256 258.98 89.7256H255.922V83.608V77.4903H249.294H242.667V83.608ZM306.902 99.4119V102.981H300.275H293.647V99.4119V95.8433H300.275H306.902V99.4119ZM281.412 106.039C281.412 108.894 281.106 109.098 277.843 109.098C274.58 109.098 274.275 108.894 274.275 106.039C274.275 103.184 274.58 102.981 277.843 102.981C281.106 102.981 281.412 103.184 281.412 106.039ZM293.647 112.157C293.647 114.91 293.341 115.216 290.588 115.216C287.835 115.216 287.529 114.91 287.529 112.157C287.529 109.404 287.835 109.098 290.588 109.098C293.341 109.098 293.647 109.404 293.647 112.157ZM313.02 112.157C313.02 114.91 312.714 115.216 309.961 115.216C307.208 115.216 306.902 114.91 306.902 112.157C306.902 109.404 307.208 109.098 309.961 109.098C312.714 109.098 313.02 109.404 313.02 112.157Z" fill="black"/>
<path d="M281.412 86.6665C281.412 89.4195 281.718 89.7253 284.471 89.7253C287.224 89.7253 287.529 89.4195 287.529 86.6665C287.529 83.9136 287.224 83.6077 284.471 83.6077C281.718 83.6077 281.412 83.9136 281.412 86.6665Z" fill="black"/>
<path d="M50.9804 99.4117C50.9804 102.776 51.1843 102.98 54.549 102.98C57.8117 102.98 58.1176 103.184 58.1176 106.039C58.1176 108.792 58.4235 109.098 61.1764 109.098C63.9294 109.098 64.2353 109.404 64.2353 112.157V115.216H57.6078H50.9804V112.157C50.9804 109.404 50.6745 109.098 47.9215 109.098C45.1686 109.098 44.8627 109.404 44.8627 112.157C44.8627 114.91 44.5568 115.216 41.8039 115.216C39.0509 115.216 38.7451 115.521 38.7451 118.274C38.7451 121.027 39.0509 121.333 41.8039 121.333C44.6588 121.333 44.8627 121.639 44.8627 124.902C44.8627 128.165 45.0666 128.47 47.9215 128.47C50.6745 128.47 50.9804 128.776 50.9804 131.529C50.9804 134.384 51.2862 134.588 54.549 134.588C57.8117 134.588 58.1176 134.384 58.1176 131.529C58.1176 128.776 58.4235 128.47 61.1764 128.47H64.2353V121.843V115.216H67.2941H70.3529V121.843V128.47H76.9804H83.6078V124.902C83.6078 121.537 83.4039 121.333 80.0392 121.333C76.7764 121.333 76.4705 121.129 76.4705 118.274C76.4705 115.42 76.7764 115.216 80.0392 115.216C83.3019 115.216 83.6078 115.012 83.6078 112.157C83.6078 109.302 83.3019 109.098 80.0392 109.098C76.7764 109.098 76.4705 109.302 76.4705 112.157C76.4705 114.91 76.1647 115.216 73.4117 115.216H70.3529V109.098V102.98H64.2353H58.1176V99.4117C58.1176 96.047 57.9137 95.843 54.549 95.843C51.1843 95.843 50.9804 96.047 50.9804 99.4117ZM50.9804 118.274C50.9804 121.129 51.2862 121.333 54.549 121.333C57.9137 121.333 58.1176 121.537 58.1176 124.902C58.1176 128.267 57.9137 128.47 54.549 128.47C51.1843 128.47 50.9804 128.267 50.9804 124.902C50.9804 121.639 50.7764 121.333 47.9215 121.333C45.1686 121.333 44.8627 121.027 44.8627 118.274C44.8627 115.521 45.1686 115.216 47.9215 115.216C50.6745 115.216 50.9804 115.521 50.9804 118.274Z" fill="black"/>
<path d="M127.451 106.039C127.451 108.894 127.757 109.098 131.02 109.098C134.282 109.098 134.588 108.894 134.588 106.039C134.588 103.184 134.282 102.98 131.02 102.98C127.757 102.98 127.451 103.184 127.451 106.039Z" fill="black"/>
<path d="M230.431 106.039C230.431 108.792 230.737 109.098 233.49 109.098C236.243 109.098 236.549 108.792 236.549 106.039C236.549 103.286 236.243 102.98 233.49 102.98C230.737 102.98 230.431 103.286 230.431 106.039Z" fill="black"/>
<path d="M146.824 115.216V121.333H153.451H160.078V124.902V128.471H166.196H172.314V124.902C172.314 121.639 172.518 121.333 175.373 121.333C178.126 121.333 178.431 121.028 178.431 118.275C178.431 115.42 178.737 115.216 182 115.216C185.263 115.216 185.569 115.42 185.569 118.275C185.569 121.028 185.875 121.333 188.627 121.333C191.38 121.333 191.686 121.028 191.686 118.275C191.686 115.522 191.38 115.216 188.627 115.216C185.875 115.216 185.569 114.91 185.569 112.157V109.098H178.941H172.314V115.216V121.333H166.196H160.078V118.275C160.078 115.42 159.773 115.216 156.51 115.216C153.247 115.216 152.941 115.012 152.941 112.157C152.941 109.404 152.635 109.098 149.882 109.098H146.824V115.216Z" fill="black"/>
<path d="M338.51 118.275C338.51 121.028 338.816 121.333 341.569 121.333C344.322 121.333 344.628 121.028 344.628 118.275C344.628 115.522 344.322 115.216 341.569 115.216C338.816 115.216 338.51 115.522 338.51 118.275Z" fill="black"/>
<path d="M255.922 134.588V140.706H258.98C261.733 140.706 262.039 140.4 262.039 137.647C262.039 134.894 262.345 134.588 265.098 134.588C267.851 134.588 268.157 134.282 268.157 131.529V128.471H262.039H255.922V134.588Z" fill="black"/>
<path d="M299.765 131.529C299.765 134.384 300.071 134.588 303.333 134.588C306.596 134.588 306.902 134.384 306.902 131.529C306.902 128.674 306.596 128.47 303.333 128.47C300.071 128.47 299.765 128.674 299.765 131.529Z" fill="black"/>
<path d="M70.353 137.647V140.706H64.2353H58.1177V143.765V146.823H67.2941H76.4706V143.765C76.4706 140.91 76.7765 140.706 80.0392 140.706C83.302 140.706 83.6079 140.502 83.6079 137.647V134.588H76.9804H70.353V137.647Z" fill="black"/>
<path d="M306.902 157.02C306.902 159.772 307.208 160.078 309.961 160.078C312.714 160.078 313.02 159.772 313.02 157.02C313.02 154.267 312.714 153.961 309.961 153.961C307.208 153.961 306.902 154.267 306.902 157.02Z" fill="black"/>
<path d="M293.647 185.569V191.686H296.706H299.765V185.569V179.451H296.706H293.647V185.569Z" fill="black"/>
<path d="M38.7451 208C38.7451 210.753 39.0509 211.059 41.8039 211.059C44.5568 211.059 44.8627 210.753 44.8627 208C44.8627 205.247 44.5568 204.941 41.8039 204.941C39.0509 204.941 38.7451 205.247 38.7451 208Z" fill="black"/>
<path d="M313.02 233.49C313.02 236.243 313.326 236.549 316.078 236.549C318.831 236.549 319.137 236.243 319.137 233.49C319.137 230.737 318.831 230.431 316.078 230.431C313.326 230.431 313.02 230.737 313.02 233.49Z" fill="black"/>
<path d="M127.451 290.588C127.451 293.443 127.757 293.647 131.02 293.647C134.282 293.647 134.588 293.443 134.588 290.588C134.588 287.733 134.282 287.529 131.02 287.529C127.757 287.529 127.451 287.733 127.451 290.588Z" fill="black"/>
<path d="M319.137 290.588C319.137 293.341 319.443 293.647 322.196 293.647C324.949 293.647 325.255 293.341 325.255 290.588C325.255 287.835 324.949 287.529 322.196 287.529C319.443 287.529 319.137 287.835 319.137 290.588Z" fill="black"/>
<path d="M236.549 309.961C236.549 312.714 236.243 313.02 233.49 313.02C230.737 313.02 230.431 313.325 230.431 316.078V319.137H239.608H248.784V313.02V306.902H242.667H236.549V309.961Z" fill="black"/>
<path d="M274.275 309.961C274.275 312.816 274.58 313.02 277.843 313.02C281.106 313.02 281.412 312.816 281.412 309.961C281.412 307.106 281.106 306.902 277.843 306.902C274.58 306.902 274.275 307.106 274.275 309.961Z" fill="black"/>
<path d="M223.294 328.824C223.294 332.188 223.498 332.392 226.863 332.392C230.227 332.392 230.431 332.188 230.431 328.824C230.431 325.459 230.227 325.255 226.863 325.255C223.498 325.255 223.294 325.459 223.294 328.824Z" fill="black"/>
<path d="M127.451 341.569V350.745H131.02C134.282 350.745 134.588 350.541 134.588 347.686V344.627H140.706H146.823V341.569C146.823 338.816 146.518 338.51 143.765 338.51C141.012 338.51 140.706 338.204 140.706 335.451V332.392H134.078H127.451V341.569Z" fill="black"/>
<path d="M178.431 41.8037C178.431 44.6586 178.737 44.8625 182 44.8625C185.263 44.8625 185.569 44.6586 185.569 41.8037C185.569 38.9488 185.263 38.7449 182 38.7449C178.737 38.7449 178.431 38.9488 178.431 41.8037Z" fill="black"/>
<path d="M38.7451 182.51C38.7451 185.263 39.0509 185.569 41.8039 185.569C44.5568 185.569 44.8627 185.263 44.8627 182.51C44.8627 179.757 44.5568 179.451 41.8039 179.451C39.0509 179.451 38.7451 179.757 38.7451 182.51Z" fill="black"/>
<path d="M319.137 182.51C319.137 185.263 319.443 185.569 322.196 185.569C324.949 185.569 325.255 185.263 325.255 182.51C325.255 179.757 324.949 179.451 322.196 179.451C319.443 179.451 319.137 179.757 319.137 182.51Z" fill="black"/>
<path d="M178.431 322.196C178.431 325.051 178.737 325.255 182 325.255C185.263 325.255 185.569 325.051 185.569 322.196C185.569 319.341 185.263 319.137 182 319.137C178.737 319.137 178.431 319.341 178.431 322.196Z" fill="black"/>
<path d="M319.137 322.196C319.137 324.949 319.443 325.255 322.196 325.255C324.949 325.255 325.255 324.949 325.255 322.196C325.255 319.443 324.949 319.137 322.196 319.137C319.443 319.137 319.137 319.443 319.137 322.196Z" fill="black"/>
<path d="M121.333 3.56861C121.333 6.83135 121.537 7.13724 124.392 7.13724C127.145 7.13724 127.451 7.44312 127.451 10.1961V13.2549H134.078H140.706V10.1961V7.13724H134.078H127.451V3.56861C127.451 0.305862 127.247 -2.00272e-05 124.392 -2.00272e-05C121.537 -2.00272e-05 121.333 0.305862 121.333 3.56861Z" fill="black"/>
<path d="M281.412 3.56861C281.412 6.93331 281.208 7.13724 277.843 7.13724C274.58 7.13724 274.275 7.34116 274.275 10.1961V13.2549H280.902H287.529V6.62743V-2.00272e-05H284.471C281.616 -2.00272e-05 281.412 0.305862 281.412 3.56861Z" fill="black"/>
<path d="M319.137 22.4312V44.8625H341.569H364V22.4312V-0.000198364H341.569H319.137V22.4312ZM357.882 22.941V38.7449H341.569H325.255V22.941V7.13706H341.569H357.882V22.941Z" fill="black"/>
<path d="M332.392 22.9412V32.6274H341.569H350.745V22.9412V13.2549H341.569H332.392V22.9412Z" fill="black"/>
<path d="M306.902 41.8037C306.902 44.5567 307.208 44.8625 309.961 44.8625C312.714 44.8625 313.02 44.5567 313.02 41.8037C313.02 39.0508 312.714 38.7449 309.961 38.7449C307.208 38.7449 306.902 39.0508 306.902 41.8037Z" fill="black"/>
<path d="M38.7451 55.0589C38.7451 57.8118 39.0509 58.1177 41.8039 58.1177C44.5568 58.1177 44.8627 57.8118 44.8627 55.0589C44.8627 52.3059 44.5568 52 41.8039 52C39.0509 52 38.7451 52.3059 38.7451 55.0589Z" fill="black"/>
<path d="M357.882 55.0589C357.882 57.8118 358.188 58.1177 360.941 58.1177C363.694 58.1177 364 57.8118 364 55.0589C364 52.3059 363.694 52 360.941 52C358.188 52 357.882 52.3059 357.882 55.0589Z" fill="black"/>
<path d="M357.882 194.745C357.882 197.498 358.188 197.804 360.941 197.804C363.694 197.804 364 197.498 364 194.745C364 191.992 363.694 191.686 360.941 191.686C358.188 191.686 357.882 191.992 357.882 194.745Z" fill="black"/>
<path d="M357.882 239.608C357.882 242.361 358.188 242.667 360.941 242.667C363.694 242.667 364 242.361 364 239.608C364 236.855 363.694 236.549 360.941 236.549C358.188 236.549 357.882 236.855 357.882 239.608Z" fill="black"/>
<path d="M357.882 252.353C357.882 255.616 358.086 255.922 360.941 255.922C363.796 255.922 364 255.616 364 252.353C364 249.09 363.796 248.784 360.941 248.784C358.086 248.784 357.882 249.09 357.882 252.353Z" fill="black"/>
<path d="M38.7451 309.961C38.7451 312.714 39.0509 313.02 41.8039 313.02C44.5568 313.02 44.8627 312.714 44.8627 309.961C44.8627 307.208 44.5568 306.902 41.8039 306.902C39.0509 306.902 38.7451 307.208 38.7451 309.961Z" fill="black"/>
<path d="M0 341.569V364H22.4314H44.8627V341.569V319.137H22.4314H0V341.569ZM38.7451 341.569V357.882H22.9412H7.13726V341.569V325.255H22.9412H38.7451V341.569Z" fill="black"/>
<path d="M13.2549 341.569V350.745H22.9412H32.6275V341.569V332.392H22.9412H13.2549V341.569Z" fill="black"/>
<path d="M287.529 354.314C287.529 357.576 287.733 357.882 290.588 357.882C293.443 357.882 293.647 357.576 293.647 354.314C293.647 351.051 293.443 350.745 290.588 350.745C287.733 350.745 287.529 351.051 287.529 354.314Z" fill="black"/>
<path d="M64.2353 360.941C64.2353 363.694 64.5412 364 67.2941 364C70.0471 364 70.3529 363.694 70.3529 360.941C70.3529 358.188 70.0471 357.882 67.2941 357.882C64.5412 357.882 64.2353 358.188 64.2353 360.941Z" fill="black"/>
</svg>
