<svg width="12" height="14" viewBox="0 0 12 14" fill="none" xmlns="http://www.w3.org/2000/svg">
<path d="M10 14C9.44444 14 8.97222 13.7958 8.58333 13.3875C8.19444 12.9792 8 12.4833 8 11.9C8 11.8183 8.00556 11.7338 8.01667 11.6462C8.02778 11.5588 8.04445 11.48 8.06667 11.41L3.36667 8.54C3.17778 8.715 2.96667 8.85208 2.73333 8.95125C2.5 9.05042 2.25556 9.1 2 9.1C1.44444 9.1 0.972222 8.89583 0.583333 8.4875C0.194444 8.07917 0 7.58333 0 7C0 6.41667 0.194444 5.92083 0.583333 5.5125C0.972222 5.10417 1.44444 4.9 2 4.9C2.25556 4.9 2.5 4.94958 2.73333 5.04875C2.96667 5.14792 3.17778 5.285 3.36667 5.46L8.06667 2.59C8.04445 2.52 8.02778 2.44125 8.01667 2.35375C8.00556 2.26625 8 2.18167 8 2.1C8 1.51667 8.19444 1.02083 8.58333 0.6125C8.97222 0.204167 9.44444 0 10 0C10.5556 0 11.0278 0.204167 11.4167 0.6125C11.8056 1.02083 12 1.51667 12 2.1C12 2.68333 11.8056 3.17917 11.4167 3.5875C11.0278 3.99583 10.5556 4.2 10 4.2C9.74444 4.2 9.5 4.15042 9.26667 4.05125C9.03333 3.95208 8.82222 3.815 8.63333 3.64L3.93333 6.51C3.95556 6.58 3.97222 6.65875 3.98333 6.74625C3.99444 6.83375 4 6.91833 4 7C4 7.08167 3.99444 7.16625 3.98333 7.25375C3.97222 7.34125 3.95556 7.42 3.93333 7.49L8.63333 10.36C8.82222 10.185 9.03333 10.0479 9.26667 9.94875C9.5 9.84958 9.74444 9.8 10 9.8C10.5556 9.8 11.0278 10.0042 11.4167 10.4125C11.8056 10.8208 12 11.3167 12 11.9C12 12.4833 11.8056 12.9792 11.4167 13.3875C11.0278 13.7958 10.5556 14 10 14ZM10 2.8C10.1889 2.8 10.3472 2.73292 10.475 2.59875C10.6028 2.46458 10.6667 2.29833 10.6667 2.1C10.6667 1.90167 10.6028 1.73542 10.475 1.60125C10.3472 1.46708 10.1889 1.4 10 1.4C9.81111 1.4 9.65278 1.46708 9.525 1.60125C9.39722 1.73542 9.33333 1.90167 9.33333 2.1C9.33333 2.29833 9.39722 2.46458 9.525 2.59875C9.65278 2.73292 9.81111 2.8 10 2.8ZM2 7.7C2.18889 7.7 2.34722 7.63292 2.475 7.49875C2.60278 7.36458 2.66667 7.19833 2.66667 7C2.66667 6.80167 2.60278 6.63542 2.475 6.50125C2.34722 6.36708 2.18889 6.3 2 6.3C1.81111 6.3 1.65278 6.36708 1.525 6.50125C1.39722 6.63542 1.33333 6.80167 1.33333 7C1.33333 7.19833 1.39722 7.36458 1.525 7.49875C1.65278 7.63292 1.81111 7.7 2 7.7ZM10 12.6C10.1889 12.6 10.3472 12.5329 10.475 12.3988C10.6028 12.2646 10.6667 12.0983 10.6667 11.9C10.6667 11.7017 10.6028 11.5354 10.475 11.4012C10.3472 11.2671 10.1889 11.2 10 11.2C9.81111 11.2 9.65278 11.2671 9.525 11.4012C9.39722 11.5354 9.33333 11.7017 9.33333 11.9C9.33333 12.0983 9.39722 12.2646 9.525 12.3988C9.65278 12.5329 9.81111 12.6 10 12.6Z" fill="white"/>
</svg>
