<svg width="12" height="10" viewBox="0 0 12 10" fill="none" xmlns="http://www.w3.org/2000/svg">
<path d="M1.2 8.48485V3.63636V3.83333V1.21212V8.48485ZM9.54 10L7.44 7.87879C7.31 7.74748 7.2175 7.60606 7.1625 7.45455C7.1075 7.30303 7.08 7.15152 7.08 7C7.08 6.67677 7.195 6.38889 7.425 6.13636C7.655 5.88384 7.95 5.75758 8.31 5.75758C8.59 5.75758 8.81 5.82323 8.97 5.95455C9.13 6.08586 9.32 6.26263 9.54 6.48485C9.74 6.28283 9.9225 6.11111 10.0875 5.9697C10.2525 5.82828 10.48 5.75758 10.77 5.75758C11.14 5.75758 11.4375 5.88636 11.6625 6.14394C11.8875 6.40152 12 6.69192 12 7.01515C12 7.16667 11.97 7.31818 11.91 7.4697C11.85 7.62121 11.76 7.75758 11.64 7.87879L9.54 10ZM1.2 2.42424H10.8V1.21212H1.2V2.42424ZM5.745 9.69697H1.2C0.87 9.69697 0.5875 9.57828 0.3525 9.34091C0.1175 9.10354 0 8.81818 0 8.48485V1.21212C0 0.878788 0.1175 0.593434 0.3525 0.356061C0.5875 0.118687 0.87 0 1.2 0H10.8C11.13 0 11.4125 0.118687 11.6475 0.356061C11.8825 0.593434 12 0.878788 12 1.21212V4.43939C11.65 4.18687 11.2675 3.9899 10.8525 3.84848C10.4375 3.70707 10 3.63636 9.54 3.63636C8.97 3.63636 8.4325 3.74495 7.9275 3.96212C7.4225 4.17929 6.98 4.47475 6.6 4.84848H1.2V8.48485H5.385C5.415 8.69697 5.46 8.90404 5.52 9.10606C5.58 9.30808 5.655 9.50505 5.745 9.69697Z" fill="white"/>
</svg>
